<svg id="Capa_1" enable-background="new 0 0 510 510" height="512" viewBox="0 0 510 510" width="512" xmlns="http://www.w3.org/2000/svg"><g><path d="m210 150h-150v210h150zm-30 30v30h-90v-30zm-90 150v-90h90v90z"/><path d="m0 30v450h510v-450zm480 420h-450v-390h450z"/><path d="m450 90h-210v150h210zm-30 120h-150v-90h150z"/><path d="m300 150h30v30h-30z"/><path d="m360 150h30v30h-30z"/><path d="m240 270h45v30h-45z"/><path d="m330 270h45v30h-45z"/><path d="m405 270h45v30h-45z"/><path d="m240 330h45v30h-45z"/><path d="m330 330h45v30h-45z"/><path d="m405 330h45v30h-45z"/><path d="m240 390h45v30h-45z"/><path d="m330 390h45v30h-45z"/><path d="m405 390h45v30h-45z"/></g></svg>