<svg id="Layer_1" enable-background="new 0 0 34 34" viewBox="0 0 34 34" xmlns="http://www.w3.org/2000/svg"><g><path d="m30 1.9200134h-26c-1.6500244 0-3 1.3499756-3 3v24.1599731c0 1.6500244 1.3499756 3 3 3h26c1.6499634 0 3-1.3499756 3-3v-24.1599731c0-1.6500244-1.3500366-3-3-3zm-13.0800171 6c0-.5500488.4500122-1 1-1h9.0800171c.5499878 0 1 .4499512 1 1v6.1599731c0 .5499878-.4500122 1-1 1h-9.0800171c-.5499878 0-1-.4500122-1-1zm-10.9199829 8.5299683c0-1.8399658 1.3599854-3.5 3.1999512-3.6300049 2.0300293-.1499634 3.7200317 1.460022 3.7200317 3.4500122v3.710022c0 .6699829-.539978 1.2099609-1.210022 1.2099609h-4.5c-.6699829 0-1.2099609-.539978-1.2099609-1.2099609zm5.9204102 10.7398682h-4.9204102c-.5522461 0-1-.4472656-1-1s.4477539-1 1-1h4.9204102c.5522461 0 1 .4472656 1 1s-.4477539 1-1 1zm0-18.3798829h-4.9204102c-.5522461 0-1-.4472656-1-1s.4477539-1 1-1h4.9204102c.5522461 0 1 .4472656 1 1s-.4477539 1-1 1zm6.0795898 19.2705079h-.5795898c-.5522461 0-1-.4472656-1-1s.4477539-1 1-1h.5795898c.5522461 0 1 .4472656 1 1s-.4477539 1-1 1zm0-4h-.5795898c-.5522461 0-1-.4472656-1-1s.4477539-1 1-1h.5795898c.5522461 0 1 .4472656 1 1s-.4477539 1-1 1zm0-4h-.5795898c-.5522461 0-1-.4472656-1-1s.4477539-1 1-1h.5795898c.5522461 0 1 .4472656 1 1s-.4477539 1-1 1zm4.75 8h-.5795898c-.5522461 0-1-.4472656-1-1s.4477539-1 1-1h.5795898c.5522461 0 1 .4472656 1 1s-.4477539 1-1 1zm0-4h-.5795898c-.5522461 0-1-.4472656-1-1s.4477539-1 1-1h.5795898c.5522461 0 1 .4472656 1 1s-.4477539 1-1 1zm0-4h-.5795898c-.5522461 0-1-.4472656-1-1s.4477539-1 1-1h.5795898c.5522461 0 1 .4472656 1 1s-.4477539 1-1 1zm4.75 8h-.5795898c-.5522461 0-1-.4472656-1-1s.4477539-1 1-1h.5795898c.5522461 0 1 .4472656 1 1s-.4477539 1-1 1zm0-4h-.5795898c-.5522461 0-1-.4472656-1-1s.4477539-1 1-1h.5795898c.5522461 0 1 .4472656 1 1s-.4477539 1-1 1zm0-4h-.5795898c-.5522461 0-1-.4472656-1-1s.4477539-1 1-1h.5795898c.5522461 0 1 .4472656 1 1s-.4477539 1-1 1z"/></g></svg>