<svg version="1.1" id="Layer_1" xmlns="http://www.w3.org/2000/svg" xmlns:xlink="http://www.w3.org/1999/xlink" x="0px" y="0px"
	 viewBox="0 0 64 16" style="enable-background:new 0 0 64 16;" xml:space="preserve">
<g>
	<path d="M0,0.5h3.8v12.2h7.1v2.9H0V0.5z" class="Blue"/>
	<path d="M14.6,13.9c-1.3-1.3-1.9-3.2-1.9-5.8c0-2.7,0.6-4.7,1.9-6c1.2-1.2,3.1-1.9,5.6-1.9c2.5,0,4.4,0.6,5.6,1.9
		c1.3,1.2,1.9,3.2,1.9,6c0,2.6-0.6,4.5-1.9,5.8c-1.3,1.3-3.1,1.9-5.6,1.9C17.7,15.8,15.8,15.1,14.6,13.9z M23,11.5
		c0.6-0.7,0.9-1.9,0.9-3.4c0-1.7-0.3-2.9-0.9-3.6c-0.6-0.7-1.5-1.1-2.8-1.1c-1.3,0-2.2,0.4-2.8,1.1c-0.6,0.7-0.9,1.9-0.9,3.6
		c0,1.5,0.3,2.7,0.9,3.4c0.6,0.7,1.5,1.1,2.8,1.1C21.5,12.6,22.4,12.2,23,11.5z" class="Blue"/>
	<path d="M33.5,13.8c-1.4-1.3-2-3.2-2-5.6c0-2.5,0.7-4.5,2.1-5.9C35,0.9,37,0.2,39.7,0.2c1.8,0,3.3,0.2,4.6,0.7v3.2
		c-1.2-0.4-2.6-0.7-4.3-0.7c-1.6,0-2.8,0.4-3.5,1.1c-0.7,0.8-1.1,2-1.1,3.6c0,1.5,0.3,2.6,1,3.3c0.7,0.7,1.7,1.1,3.1,1.1
		c0.9,0,1.7-0.1,2.5-0.4V9.3h-3.3V7h6.4v7.5c-0.6,0.4-1.4,0.7-2.3,1c-1,0.2-2.1,0.4-3.4,0.4C36.9,15.8,34.9,15.1,33.5,13.8z" class="Blue"/>
	<path d="M50.9,13.9c-1.3-1.3-1.9-3.2-1.9-5.8c0-2.7,0.6-4.7,1.9-6c1.2-1.2,3.1-1.9,5.6-1.9c2.5,0,4.4,0.6,5.6,1.9
		c1.3,1.2,1.9,3.2,1.9,6c0,2.6-0.6,4.5-1.9,5.8c-1.3,1.3-3.1,1.9-5.6,1.9C54,15.8,52.1,15.1,50.9,13.9z M59.3,11.5
		c0.6-0.7,0.9-1.9,0.9-3.4c0-1.7-0.3-2.9-0.9-3.6c-0.6-0.7-1.5-1.1-2.8-1.1c-1.3,0-2.2,0.4-2.8,1.1c-0.6,0.7-0.9,1.9-0.9,3.6
		c0,1.5,0.3,2.7,0.9,3.4c0.6,0.7,1.5,1.1,2.8,1.1C57.8,12.6,58.7,12.2,59.3,11.5z" class="Blue"/>
</g>
</svg>
