<svg id="Flat" height="512" viewBox="0 0 512 512" width="512" xmlns="http://www.w3.org/2000/svg"><circle cx="256" cy="264" fill="#3a98e4" r="224"/><path d="m480 264a223.181 223.181 0 0 1 -61.16 153.81c-10.05-13.04-20.39-33.58-26.84-65.81-16-80-88-72-112-112s8-80 56-80c32.08 0 74.87-17.86 99.73-29.71a222.968 222.968 0 0 1 44.27 133.71z" fill="#44c086"/><path d="m480 128a48 48 0 0 0 -96 0c0 32 17.55 60.47 48 96 30.45-35.53 48-64 48-96z" fill="#e74444"/><path d="m176 168c-16 64-72 56-72 112 0 45.31-5.24 73.41-58.08 61.91a224.267 224.267 0 0 1 76.8-257.95c27.09 14.61 63.63 42.62 53.28 84.04z" fill="#44c086"/><path d="m160 72a48 48 0 0 0 -96 0c0 32 17.55 60.47 48 96 30.45-35.53 48-64 48-96z" fill="#e74444"/><path d="m304 408c-11.33 22.65-18.65 57.34-21.95 78.5a226.253 226.253 0 0 1 -26.05 1.5q-7.92 0-15.71-.54c-4.75-59.44-72.94-82.69-80.29-119.46-8-40 24-48 96-40s64 48 48 80z" fill="#44c086"/><path d="m256 288a48 48 0 0 0 -96 0c0 32 17.55 60.47 48 96 30.45-35.53 48-64 48-96z" fill="#e74444"/><path d="m367.86 69.89c-8.43 17.69-23.81 38.92-47.86 34.11-40-8-56 48-88 24-22.98-17.24 7.68-63.36 26.78-87.98a222.839 222.839 0 0 1 109.08 29.87z" fill="#44c086"/><g fill="#e8edf1"><circle cx="112" cy="72" r="16"/><circle cx="432" cy="128" r="16"/><circle cx="208" cy="288" r="16"/></g></svg>