<svg id="Layer_1" enable-background="new 0 0 512 512" viewBox="0 0 512 512" xmlns="http://www.w3.org/2000/svg"><g><g><path clip-rule="evenodd" d="m286.5 100 170.6-.9-.9 170.6-227.8 227.8c-11.3 11.3-29.8 11.3-41.1 0l-128.6-128.6c-11.3-11.3-11.3-29.8 0-41.1z" fill="#fccb30" fill-rule="evenodd"/></g><g><path clip-rule="evenodd" d="m286.9 94.4 170.2-.9c3.1 0 5.6 2.5 5.6 5.5l-.9 170.7c0 1.5-.6 2.9-1.6 3.9l-227.9 227.9c-13.5 13.5-35.5 13.5-49 0l-129-129c-13.2-13.5-13-35.3.3-48.6l227.9-227.9c1.2-1.2 2.8-1.7 4.4-1.6zm164.6 10.3-162.7.9-226.2 226.1c-9 9-9.1 23.8-.3 32.9 11.3 10.6 128.9 127.6 128.9 128.9 9.1 9.1 24.1 9.1 33.2 0l226.2-226.2z" fill="#2a2927" fill-rule="evenodd"/></g><g><path clip-rule="evenodd" d="m258.7 88.3 170.6-.9-.9 170.6-227.8 227.8c-11.3 11.3-29.8 11.3-41.1 0l-128.6-128.6c-11.3-11.3-11.3-29.8 0-41.1zm123 46.7c-24.1-22.9-58.6 11.6-35.7 35.7 24.2 22.9 58.7-11.6 35.7-35.7z" fill="#00beae" fill-rule="evenodd"/></g><g><path clip-rule="evenodd" d="m259.1 82.7 170.2-.9c3.1 0 5.6 2.5 5.6 5.5l-.9 170.8c0 1.5-.6 2.9-1.6 3.9l-227.8 227.8c-13.5 13.5-35.5 13.5-49 0l-128.6-128.7c-13.5-13.5-13.5-35.5 0-49l227.8-227.7c1.2-1.2 2.8-1.8 4.3-1.7zm164.6 10.3-162.7.8-226.2 226.3c-9.1 9.1-9.1 24.1 0 33.2l128.6 128.6c4.5 4.6 10.6 6.8 16.6 6.8s12-2.3 16.6-6.8l226.2-226.2zm-38 38.1c-12-12-31.6-12.1-43.6 0-19.6 18.7-4.8 53.3 21.8 52.6 26.6.6 41.3-33.9 21.8-52.6zm-2.1 21.7c-.6-26-38.7-25.9-39.3 0 .6 26 38.7 26 39.3 0z" fill="#2a2927" fill-rule="evenodd"/></g><g><path clip-rule="evenodd" d="m81.7 213.4h281.7v161.7h-281.7z" fill="#fccb30" fill-rule="evenodd" transform="matrix(.707 -.707 .707 .707 -142.86 243.528)"/></g><g><path clip-rule="evenodd" d="m265 145.3-191.3 191.4 106.4 106.4 191.3-191.3zm-203.2 187.4 199.2-199.2c2.2-2.2 5.7-2.2 7.9 0l114.3 114.3c2.2 2.2 2.2 5.7 0 7.9l-199.2 199.2c-2.2 2.2-5.7 2.2-7.9 0l-114.3-114.3c-2.2-2.2-2.2-5.7 0-7.9z" fill="#2a2927" fill-rule="evenodd"/></g><g><path clip-rule="evenodd" d="m384.5 152.4c10 9.2-4.8 22.7-14.3 24.9-42.6-20.9-40.6-78.8-17.6-117.8 64.2-103.8 177-42.8 123.2 67.5-3.5 5.9-14.2 26.1-19 32.3l.3-60.2h-1.7c22.7-75.4-43.9-83-77.6-23.9-14.4 25.8-19.3 61.7 6.7 77.2z" fill="#ff8048" fill-rule="evenodd"/></g><g><path clip-rule="evenodd" d="m388.5 148.4c9.2 8.4 4.5 19-3.1 26.5-4.5 4-10.3 8.1-16.5 7.7-12.2-4.3-21.6-14.7-28-25.6-16.8-30.6-10.7-69.5 6.6-99.8 21.9-40.1 73.7-73.6 117-47.7 28.7 17.9 35 54.7 28.2 86.5-4.3 23.3-18.2 44.9-30.3 65.2-3.1 5.5-11.2 4.4-11.2-2.2l.3-56c-1.5-1.4-2.1-3.9-1.3-5.9 4.6-14.2 6.4-31.5 0-44.8-17.5-28.5-56.5 3.8-67.1 24.8-12.8 21.8-19.8 57 5.4 71.3zm-6.4 9.8c-45.2-30.6-12.3-104.2 29.1-123 44.9-20.3 62.7 23.8 50.8 61.3.4.8.6 1.6.6 2.6l-.2 40.1c14.2-22.3 24.1-49.7 21.1-75.7-3.1-42.3-42.4-63.8-80.1-45.1-52.7 23.3-90.2 116.1-33.1 153.1 5.6-1.9 10.4-6.7 12.2-12.3z" fill="#2a2927" fill-rule="evenodd"/></g></g></svg>