<svg id="Layer_1" enable-background="new 0 0 512 512" height="512" viewBox="0 0 512 512" width="512" xmlns="http://www.w3.org/2000/svg"><g clip-rule="evenodd" fill-rule="evenodd"><g><path d="m136.155 8.037 128.171 74v148l-128.171 73.999-128.172-73.999v-148z" fill="#e3a76f"/><path d="m136.155 156.036v-147.999l128.171 74z" fill="#c48958"/><path d="m136.155 304.036v-147.999l-128.172-74v148z" fill="#f2d1a5"/><path d="m136.155 156.037v147.999l128.171-73.999v-148z" fill="#e3a76f"/></g><path d="m264.767 155.963h198.468c22.43 0 40.782 18.351 40.782 40.781v266.437c0 22.43-18.351 40.781-40.782 40.781h-198.468c-22.431 0-40.782-18.351-40.782-40.781v-266.437c0-22.43 18.351-40.781 40.782-40.781z" fill="#d5e7ff"/><path d="m364.001 155.963h99.234c22.43 0 40.782 18.351 40.782 40.781v266.437c0 22.43-18.351 40.781-40.782 40.781h-99.234z" fill="#acceff" stroke="#76e2f8" stroke-miterlimit="2.613" stroke-width=".216"/><path d="m272.74 203.54h182.521c5.474 0 9.952 4.479 9.952 9.952v48.436c0 5.474-4.478 9.953-9.952 9.953h-182.521c-5.474 0-9.952-4.479-9.952-9.953v-48.436c0-5.474 4.478-9.952 9.952-9.952z" fill="#effdd1"/><path d="m364.001 203.54h91.26c5.474 0 9.952 4.479 9.952 9.952v48.436c0 5.474-4.478 9.953-9.952 9.953h-91.26z" fill="#c9efb5"/><path d="m272.616 147.91h190.594c13.425 0 25.625 5.487 34.464 14.326s14.326 21.039 14.326 34.464v266.493c0 26.85-21.94 48.79-48.79 48.79h-198.51c-26.85 0-48.79-21.94-48.79-48.79v-196.232l-75.833 43.782c-2.585 1.486-5.655 1.359-8.047-.063l-127.999-73.9c-2.561-1.472-3.995-4.15-3.998-6.906h-.033v-147.927c0-3.231 1.916-6.015 4.674-7.277l127.466-73.593c2.585-1.486 5.655-1.359 8.047.063l127.999 73.9c2.551 1.466 3.984 4.13 3.997 6.875zm-128.508 12.597v129.513l71.802-41.455v-51.865c0-23.789 17.376-44.223 40.773-48.128l-.345-52.861zm-15.999 129.513v-129.513l-112.109-64.726v129.513zm-104.162-208.082 112.162 64.757 112.162-64.757-112.162-64.757zm322.928 380.719h34.159c4.418 0 8-3.582 8-8s-3.582-8-8-8h-34.159c-4.418 0-8 3.582-8 8s3.582 8 8 8zm83.166 0h34.159c4.418 0 8-3.582 8-8s-3.582-8-8-8h-34.159c-4.418 0-8 3.582-8 8s3.582 8 8 8zm-166.331 0h34.159c4.418 0 8-3.582 8-8s-3.582-8-8-8h-34.159c-4.418 0-8 3.582-8 8s3.581 8 8 8zm83.165-63.023h34.159c4.418 0 8-3.582 8-8s-3.582-8-8-8h-34.159c-4.418 0-8 3.582-8 8s3.582 8 8 8zm83.166 0h34.159c4.418 0 8-3.582 8-8s-3.582-8-8-8h-34.159c-4.418 0-8 3.582-8 8s3.582 8 8 8zm-166.331 0h34.159c4.418 0 8-3.582 8-8s-3.582-8-8-8h-34.159c-4.418 0-8 3.582-8 8s3.581 8 8 8zm83.165-63.023h34.159c4.418 0 8-3.582 8-8s-3.582-8-8-8h-34.159c-4.418 0-8 3.582-8 8s3.582 8 8 8zm83.166 0h34.159c4.418 0 8-3.582 8-8s-3.582-8-8-8h-34.159c-4.418 0-8 3.582-8 8s3.582 8 8 8zm-166.331 0h34.159c4.418 0 8-3.582 8-8s-3.582-8-8-8h-34.159c-4.418 0-8 3.582-8 8s3.581 8 8 8zm8.928-141.114c-9.859 0-17.897 8.037-17.897 17.896v48.163c0 9.859 8.037 17.897 17.897 17.897h182.635c9.86 0 17.896-8.037 17.896-17.897v-48.163c0-9.859-8.037-17.896-17.896-17.896zm182.634 16h-182.634c-1.027 0-1.897.87-1.897 1.897v48.163c0 1.027.869 1.897 1.897 1.897h182.635c1.027 0 1.896-.87 1.896-1.897v-48.163c0-1.027-.869-1.897-1.897-1.897zm7.938-47.587h-198.51c-18.018 0-32.79 14.772-32.79 32.79v266.493c0 18.018 14.772 32.79 32.79 32.79h198.51c18.018 0 32.79-14.772 32.79-32.79v-266.493c0-9.009-3.692-17.205-9.639-23.152-5.946-5.947-14.143-9.638-23.151-9.638z"/></g></svg>