<?xml version="1.0"?>
<svg xmlns="http://www.w3.org/2000/svg" id="Icons" viewBox="0 0 60 60"><path d="M41,55s-5-1-5-6V48H24v1c0,5-5,6-5,6v1H41Z" fill="#b1cbdd"/><path d="M59,43v4a2.006,2.006,0,0,1-2,2H3a2.006,2.006,0,0,1-2-2V43l1-1H58Z" fill="#cce2ed"/><path d="M59,3V43H1V3A2.006,2.006,0,0,1,3,1H57A2.006,2.006,0,0,1,59,3Z" fill="#3b7ac8"/><path d="M19,55H41a3,3,0,0,1,3,3v0a1,1,0,0,1-1,1H17a1,1,0,0,1-1-1v0a3,3,0,0,1,3-3Z" fill="#cce2ed"/><rect fill="#30649d" height="34" rx="1" width="50" x="5" y="5"/><path d="M30,22V39H6a1,1,0,0,1-1-1V22Z" fill="#275987"/><path d="M55,6V22H30V5H54A1,1,0,0,1,55,6Z" fill="#275987"/><path d="M21.33,11.5a1,1,0,0,0-1.73,1,3,3,0,1,1-5.2,0,1,1,0,1,0-1.73-1,5,5,0,1,0,8.66,0Z" fill="#fbdd4d"/><path d="M17,13a1,1,0,0,0,1-1V10a1,1,0,0,0-2,0v2A1,1,0,0,0,17,13Z" fill="#fbdd4d"/><path d="M17,36a1,1,0,0,1-.894-1.447L17.382,32H15a1,1,0,0,1-.895-1.447l2-4a1,1,0,0,1,1.79.894L16.618,30H19a1,1,0,0,1,.895,1.447l-2,4A1,1,0,0,1,17,36Z" fill="#76e4c1"/><path d="M46.964,32.134,45,31l1.964-1.134a1,1,0,0,0-1-1.732L44,29.268V27a1,1,0,0,0-2,0v2.268l-1.964-1.134a1,1,0,0,0-1,1.732L41,31l-1.964,1.134a1,1,0,1,0,1,1.732L42,32.732V35a1,1,0,0,0,2,0V32.732l1.964,1.134a1,1,0,0,0,1-1.732Z" fill="#4e97ff"/><path d="M43,16a1,1,0,0,1-1-1V9a1,1,0,0,1,2,0v6A1,1,0,0,1,43,16Z" fill="#e1eeff"/><circle cx="43" cy="16" fill="#e1eeff" r="2"/></svg>
