<svg id="Bahan_copy_6" viewBox="0 0 64 64" xmlns="http://www.w3.org/2000/svg" xmlns:xlink="http://www.w3.org/1999/xlink" data-name="Bahan copy 6"><linearGradient id="linear-gradient" gradientUnits="userSpaceOnUse" x1="4" x2="60" y1="32" y2="32"><stop offset="0" stop-color="#ffa68d"/><stop offset="1" stop-color="#fd3a84"/></linearGradient><path d="m47.50391 20.80469h9.49609a3.00328 3.00328 0 0 0 3-3v-7.52735a3.00328 3.00328 0 0 0 -3-3h-9.49609a3.00328 3.00328 0 0 0 -3 3v2.76266h-6.50391a3.00328 3.00328 0 0 0 -3 3v16.15629h-8.4375v-7.58887a5.01467 5.01467 0 0 0 -1.5815-3.64842l-5.16748-4.84277a4.98214 4.98214 0 0 0 -3.41895-1.35156h-9.3765a3.18065 3.18065 0 0 0 -3.01807 3.31443v27.01563a3.18065 3.18065 0 0 0 3.01807 3.31445h16.52636a3.18065 3.18065 0 0 0 3.01807-3.31445v-10.89844c.84376.004 7.82151-.0029 8.43748 0v15.0039a3.00328 3.00328 0 0 0 3 3h6.50391v1.52246a3.00328 3.00328 0 0 0 3 3h9.49611a3.00328 3.00328 0 0 0 3-3v-7.52734a3.00328 3.00328 0 0 0 -3-3h-9.49609a3.00328 3.00328 0 0 0 -3 3v4.00489h-6.50391a1.001 1.001 0 0 1 -1-1v-15.00391h7.50391v1.56738a3.00328 3.00328 0 0 0 3 3h9.49609a3.00328 3.00328 0 0 0 3-3v-7.52734a3.00328 3.00328 0 0 0 -3-3h-9.49609a3.00328 3.00328 0 0 0 -3 3v3.96h-7.50391v-16.15633a1.001 1.001 0 0 1 1-1h6.50391v2.76465a3.00328 3.00328 0 0 0 3 3.00004zm-23.89014 1.61331a2.99474 2.99474 0 0 1 .77319 1.22558h-5.99243a1.001 1.001 0 0 1 -1-1v-5.69958a2.98523 2.98523 0 0 1 1.05127.63123zm-.06934 23.99121h-16.52636a1.19648 1.19648 0 0 1 -1.01807-1.31448v-27.01563a1.19648 1.19648 0 0 1 1.01807-1.31445h8.37646v5.8789a3.00328 3.00328 0 0 0 3 3h6.168v19.45118a1.19648 1.19648 0 0 1 -1.0181 1.31445zm22.95948-.21387a1.001 1.001 0 0 1 1-1h9.49609a1.001 1.001 0 0 1 1 1v7.52735a1.001 1.001 0 0 1 -1 1h-9.49609a1.001 1.001 0 0 1 -1-1zm0-17.959a1.001 1.001 0 0 1 1-1h9.49609a1.001 1.001 0 0 1 1 1v7.52734a1.001 1.001 0 0 1 -1 1h-9.49609a1.001 1.001 0 0 1 -1-1zm0-17.959a1.001 1.001 0 0 1 1-1h9.49609a1.001 1.001 0 0 1 1 1v7.52735a1.001 1.001 0 0 1 -1 1h-9.49609a1.001 1.001 0 0 1 -1-1zm2.45509 3.06055h6.58594a1.00019 1.00019 0 0 0 -.00006-2h-6.58588a1.00019 1.00019 0 0 0 0 2zm0 3.40625h6.58594a1.00019 1.00019 0 0 0 -.00006-2h-6.58588a1.00019 1.00019 0 0 0 0 2zm0 14.55274h6.58594a1.00019 1.00019 0 0 0 -.00006-2h-6.58588a1.00019 1.00019 0 0 0 0 2zm0 3.40625h6.58594a1.00019 1.00019 0 0 0 -.00006-2h-6.58588a1.00019 1.00019 0 0 0 0 2zm0 14.55273h6.58594a1.00019 1.00019 0 0 0 -.00006-2h-6.58588a1.00019 1.00019 0 0 0 0 2zm0 3.40625h6.58594a1.00019 1.00019 0 0 0 -.00006-2h-6.58588a1.00019 1.00019 0 0 0 0 2zm-27.419-22.55566h-12.51412a1.00019 1.00019 0 0 0 .00006 2h12.51406a1.00019 1.00019 0 0 0 0-2zm0 5.33007h-12.51412a1.00019 1.00019 0 0 0 .00006 2h12.51406a1.00019 1.00019 0 0 0 0-2zm0 5.21778h-12.51412a1.00019 1.00019 0 0 0 .00006 2h12.51406a1.00019 1.00019 0 0 0 0-2z" fill="url(#linear-gradient)"/></svg>