<svg id="Layer_1" height="512" viewBox="0 0 256 256" width="512" xmlns="http://www.w3.org/2000/svg"><g><g><g><g><path d="m242.516 180.718h.212c5.673 0 10.272-4.599 10.272-10.272v-.082c0 5.719-4.694 10.354-10.484 10.354z" fill="#e0ebfc"/></g><g><path d="m194.173 161.405c-11.92 0-26.458 0-38.356 0l-3.399 44.176h45.153z" fill="#e0ebfc"/></g><g><path d="m197.572 207.581h-45.153c-.557 0-1.089-.232-1.468-.641-.378-.409-.569-.957-.526-1.512l3.398-44.176c.08-1.042.949-1.847 1.994-1.847h38.355c1.045 0 1.914.805 1.994 1.847l3.399 44.176c.043.555-.148 1.104-.526 1.512-.378.409-.91.641-1.467.641zm-42.993-4h40.833l-3.091-40.176h-34.651z" fill="#3762cc"/></g><g><path d="m208.497 211.103h-67.004c-3.05 0-5.522-2.472-5.522-5.522 0-3.05 2.472-5.522 5.522-5.522h67.004c3.05 0 5.522 2.472 5.522 5.522 0 3.05-2.472 5.522-5.522 5.522z" fill="#e0ebfc"/></g><g><path d="m208.497 213.103h-67.004c-4.147 0-7.522-3.375-7.522-7.522s3.375-7.522 7.522-7.522h67.004c4.147 0 7.522 3.375 7.522 7.522s-3.374 7.522-7.522 7.522zm-67.004-11.044c-1.942 0-3.522 1.58-3.522 3.522s1.58 3.522 3.522 3.522h67.004c1.942 0 3.522-1.58 3.522-3.522s-1.58-3.522-3.522-3.522z" fill="#3762cc"/></g><g><path d="m253 170.365v-13.115h-156.01v13.115c0 5.718 4.694 10.354 10.484 10.354h135.041c5.791-.001 10.485-4.636 10.485-10.354z" fill="#e0ebfc"/></g><g><path d="m242.728 182.718h-.212c-1.104 0-2-.896-2-2s.896-2 2-2c4.679 0 8.484-3.748 8.484-8.354 0-1.104.896-2 2-2s2 .896 2 2c0 6.849-5.506 12.354-12.272 12.354z" fill="#3762cc"/></g><g><path d="m242.516 182.718h-135.041c-6.884 0-12.484-5.542-12.484-12.354v-13.114c0-1.104.896-2 2-2h156.009c1.104 0 2 .896 2 2v13.115c0 6.811-5.601 12.353-12.484 12.353zm-143.526-23.468v11.115c0 4.606 3.806 8.354 8.484 8.354h135.041c4.679 0 8.484-3.748 8.484-8.354v-11.115z" fill="#3762cc"/></g><g><path d="m96.99 170.365v.082c0 5.673 4.599 10.272 10.272 10.272h.212c-5.79-.001-10.484-4.636-10.484-10.354z" fill="#a4c9ff"/></g><g><path d="m242.581 67.171h-135.172c-5.754 0-10.419 4.665-10.419 10.419v79.66h156.01v-79.66c0-5.754-4.665-10.419-10.419-10.419z" fill="#a4c9ff"/></g><g><path d="m181.564 175.274h-13.139c-3.469 0-6.29-2.822-6.29-6.29s2.821-6.29 6.29-6.29h13.139c3.469 0 6.29 2.821 6.29 6.29s-2.821 6.29-6.29 6.29zm-13.138-8.58c-1.263 0-2.29 1.027-2.29 2.29s1.027 2.29 2.29 2.29h13.139c1.263 0 2.29-1.027 2.29-2.29s-1.027-2.29-2.29-2.29z" fill="#3762cc"/></g><g><path d="m253 159.25h-156.01c-1.104 0-2-.896-2-2v-79.66c0-6.848 5.571-12.418 12.419-12.418h135.172c6.848 0 12.419 5.571 12.419 12.418v79.66c0 1.104-.896 2-2 2zm-154.01-4h152.01v-77.66c0-4.642-3.776-8.418-8.419-8.418h-135.172c-4.643 0-8.419 3.776-8.419 8.418z" fill="#3762cc"/></g></g></g><g><path d="m90.827 211.103h-81.664c-3.404 0-6.163-2.759-6.163-6.163v-179.161c0-3.404 2.759-6.163 6.163-6.163h81.664c3.404 0 6.163 2.759 6.163 6.163v179.161c0 3.404-2.759 6.163-6.163 6.163z" fill="#4671c6"/></g><g><path d="m90.827 213.103h-81.664c-4.501 0-8.163-3.662-8.163-8.163v-179.162c0-4.501 3.662-8.163 8.163-8.163h81.664c4.501 0 8.163 3.662 8.163 8.163v179.162c0 4.501-3.662 8.163-8.163 8.163zm-81.664-191.488c-2.296 0-4.163 1.868-4.163 4.163v179.162c0 2.295 1.867 4.163 4.163 4.163h81.664c2.296 0 4.163-1.868 4.163-4.163v-179.162c0-2.295-1.867-4.163-4.163-4.163z" fill="#3762cc"/></g><g><path d="m82.794 73.031h-65.598c-1.702 0-3.082-1.38-3.082-3.082v-23.422c0-1.702 1.38-3.082 3.082-3.082h65.598c1.702 0 3.082 1.38 3.082 3.082v23.422c0 1.702-1.38 3.082-3.082 3.082z" fill="#e0ebfc"/></g><g><path d="m82.794 97.684h-65.598c-1.702 0-3.082-1.38-3.082-3.082v-5.136c0-1.702 1.38-3.082 3.082-3.082h65.598c1.702 0 3.082 1.38 3.082 3.082v5.136c0 1.702-1.38 3.082-3.082 3.082z" fill="#e0ebfc"/></g><g><path d="m76.401 60.238h-50.645c-1.104 0-2-.896-2-2s.896-2 2-2h50.646c1.104 0 2 .896 2 2s-.896 2-2.001 2z" fill="#3762cc"/></g><g><path d="m102.839 224.545h-64.599c-2.837 0-5.136-2.299-5.136-5.136v-64.599c0-2.837 2.3-5.136 5.136-5.136h64.599c2.837 0 5.136 2.299 5.136 5.136v64.599c0 2.837-2.299 5.136-5.136 5.136z" fill="#6bdddd"/></g><g><path d="m102.839 226.545h-64.599c-3.935 0-7.136-3.201-7.136-7.136v-64.599c0-3.935 3.201-7.136 7.136-7.136h64.599c3.935 0 7.136 3.201 7.136 7.136v64.599c0 3.935-3.202 7.136-7.136 7.136zm-64.599-74.871c-1.729 0-3.136 1.407-3.136 3.136v64.599c0 1.729 1.406 3.136 3.136 3.136h64.599c1.729 0 3.136-1.407 3.136-3.136v-64.599c0-1.729-1.406-3.136-3.136-3.136z" fill="#3762cc"/></g><g><path d="m70.663 161.514h-.248c-1.948 0-3.527-1.579-3.527-3.527v-16.626c0-1.948 1.579-3.527 3.527-3.527h.248c1.948 0 3.527 1.579 3.527 3.527v16.626c0 1.948-1.579 3.527-3.527 3.527z" fill="#e0ebfc"/></g><g><path d="m88.203 161.514h-.248c-1.948 0-3.527-1.579-3.527-3.527v-16.626c0-1.948 1.579-3.527 3.527-3.527h.248c1.948 0 3.527 1.579 3.527 3.527v16.626c0 1.948-1.579 3.527-3.527 3.527z" fill="#e0ebfc"/></g><g><path d="m70.663 236.385h-.248c-1.948 0-3.527-1.579-3.527-3.527v-16.626c0-1.948 1.579-3.527 3.527-3.527h.248c1.948 0 3.527 1.579 3.527 3.527v16.626c0 1.948-1.579 3.527-3.527 3.527z" fill="#e0ebfc"/></g><g><path d="m88.203 236.385h-.248c-1.948 0-3.527-1.579-3.527-3.527v-16.626c0-1.948 1.579-3.527 3.527-3.527h.248c1.948 0 3.527 1.579 3.527 3.527v16.626c0 1.948-1.579 3.527-3.527 3.527z" fill="#e0ebfc"/></g><g><path d="m96.135 169.694v-.248c0-1.948 1.579-3.527 3.527-3.527h16.626c1.948 0 3.527 1.579 3.527 3.527v.248c0 1.948-1.579 3.527-3.527 3.527h-16.626c-1.948-.001-3.527-1.58-3.527-3.527z" fill="#e0ebfc"/></g><g><path d="m96.135 187.234v-.248c0-1.948 1.579-3.527 3.527-3.527h16.626c1.948 0 3.527 1.579 3.527 3.527v.248c0 1.948-1.579 3.527-3.527 3.527h-16.626c-1.948-.001-3.527-1.58-3.527-3.527z" fill="#e0ebfc"/></g><g><path d="m96.135 204.774v-.248c0-1.948 1.579-3.527 3.527-3.527h16.626c1.948 0 3.527 1.579 3.527 3.527v.248c0 1.948-1.579 3.527-3.527 3.527h-16.626c-1.948-.001-3.527-1.58-3.527-3.527z" fill="#e0ebfc"/></g><g><path d="m53.123 161.514h-.248c-1.948 0-3.527-1.579-3.527-3.527v-16.626c0-1.948 1.579-3.527 3.527-3.527h.248c1.948 0 3.527 1.579 3.527 3.527v16.626c0 1.948-1.579 3.527-3.527 3.527z" fill="#e0ebfc"/></g><g><path d="m53.123 236.385h-.248c-1.948 0-3.527-1.579-3.527-3.527v-16.626c0-1.948 1.579-3.527 3.527-3.527h.248c1.948 0 3.527 1.579 3.527 3.527v16.626c0 1.948-1.579 3.527-3.527 3.527z" fill="#e0ebfc"/></g><g><path d="m21.265 169.694v-.248c0-1.948 1.579-3.527 3.527-3.527h16.626c1.948 0 3.527 1.579 3.527 3.527v.248c0 1.948-1.579 3.527-3.527 3.527h-16.627c-1.947-.001-3.526-1.58-3.526-3.527z" fill="#e0ebfc"/></g><g><path d="m21.265 187.234v-.248c0-1.948 1.579-3.527 3.527-3.527h16.626c1.948 0 3.527 1.579 3.527 3.527v.248c0 1.948-1.579 3.527-3.527 3.527h-16.627c-1.947-.001-3.526-1.58-3.526-3.527z" fill="#e0ebfc"/></g><g><path d="m21.265 204.774v-.248c0-1.948 1.579-3.527 3.527-3.527h16.626c1.948 0 3.527 1.579 3.527 3.527v.248c0 1.948-1.579 3.527-3.527 3.527h-16.627c-1.947-.001-3.526-1.58-3.526-3.527z" fill="#e0ebfc"/></g><g><path d="m70.663 163.514h-.247c-3.048 0-5.527-2.479-5.527-5.526v-16.626c0-3.047 2.479-5.526 5.527-5.526h.247c3.048 0 5.527 2.479 5.527 5.526v16.626c0 3.047-2.479 5.526-5.527 5.526zm-.247-23.679c-.842 0-1.527.685-1.527 1.526v16.626c0 .842.686 1.526 1.527 1.526h.247c.842 0 1.527-.685 1.527-1.526v-16.626c0-.842-.686-1.526-1.527-1.526z" fill="#3762cc"/></g><g><path d="m88.203 163.514h-.247c-3.048 0-5.527-2.479-5.527-5.526v-16.626c0-3.047 2.479-5.526 5.527-5.526h.247c3.048 0 5.527 2.479 5.527 5.526v16.626c0 3.047-2.479 5.526-5.527 5.526zm-.247-23.679c-.842 0-1.527.685-1.527 1.526v16.626c0 .842.686 1.526 1.527 1.526h.247c.842 0 1.527-.685 1.527-1.526v-16.626c0-.842-.686-1.526-1.527-1.526z" fill="#3762cc"/></g><g><path d="m70.663 238.385h-.247c-3.048 0-5.527-2.479-5.527-5.527v-16.625c0-3.047 2.479-5.527 5.527-5.527h.247c3.048 0 5.527 2.479 5.527 5.527v16.625c0 3.047-2.479 5.527-5.527 5.527zm-.247-23.679c-.842 0-1.527.685-1.527 1.527v16.625c0 .842.686 1.527 1.527 1.527h.247c.842 0 1.527-.685 1.527-1.527v-16.625c0-.842-.686-1.527-1.527-1.527z" fill="#3762cc"/></g><g><path d="m88.203 238.385h-.247c-3.048 0-5.527-2.479-5.527-5.527v-16.625c0-3.047 2.479-5.527 5.527-5.527h.247c3.048 0 5.527 2.479 5.527 5.527v16.625c0 3.047-2.479 5.527-5.527 5.527zm-.247-23.679c-.842 0-1.527.685-1.527 1.527v16.625c0 .842.686 1.527 1.527 1.527h.247c.842 0 1.527-.685 1.527-1.527v-16.625c0-.842-.686-1.527-1.527-1.527z" fill="#3762cc"/></g><g><path d="m116.288 175.22h-16.626c-3.047 0-5.526-2.479-5.526-5.527v-.248c0-3.047 2.479-5.526 5.526-5.526h16.626c3.047 0 5.526 2.479 5.526 5.526v.248c0 3.048-2.479 5.527-5.526 5.527zm-16.626-7.301c-.842 0-1.526.685-1.526 1.526v.248c0 .842.685 1.527 1.526 1.527h16.626c.842 0 1.526-.685 1.526-1.527v-.248c0-.842-.685-1.526-1.526-1.526z" fill="#3762cc"/></g><g><path d="m116.288 192.76h-16.626c-3.047 0-5.526-2.479-5.526-5.527v-.248c0-3.047 2.479-5.526 5.526-5.526h16.626c3.047 0 5.526 2.479 5.526 5.526v.248c0 3.048-2.479 5.527-5.526 5.527zm-16.626-7.301c-.842 0-1.526.685-1.526 1.526v.248c0 .842.685 1.527 1.526 1.527h16.626c.842 0 1.526-.685 1.526-1.527v-.248c0-.842-.685-1.526-1.526-1.526z" fill="#3762cc"/></g><g><path d="m116.288 210.3h-16.626c-3.047 0-5.526-2.479-5.526-5.527v-.248c0-3.047 2.479-5.526 5.526-5.526h16.626c3.047 0 5.526 2.479 5.526 5.526v.248c0 3.048-2.479 5.527-5.526 5.527zm-16.626-7.3c-.842 0-1.526.685-1.526 1.526v.248c0 .842.685 1.527 1.526 1.527h16.626c.842 0 1.526-.685 1.526-1.527v-.248c0-.842-.685-1.526-1.526-1.526z" fill="#3762cc"/></g><g><path d="m53.123 163.514h-.247c-3.048 0-5.527-2.479-5.527-5.526v-16.626c0-3.047 2.479-5.526 5.527-5.526h.247c3.048 0 5.527 2.479 5.527 5.526v16.626c0 3.047-2.479 5.526-5.527 5.526zm-.247-23.679c-.842 0-1.527.685-1.527 1.526v16.626c0 .842.686 1.526 1.527 1.526h.247c.842 0 1.527-.685 1.527-1.526v-16.626c0-.842-.686-1.526-1.527-1.526z" fill="#3762cc"/></g><g><path d="m53.123 238.385h-.247c-3.048 0-5.527-2.479-5.527-5.527v-16.625c0-3.047 2.479-5.527 5.527-5.527h.247c3.048 0 5.527 2.479 5.527 5.527v16.625c0 3.047-2.479 5.527-5.527 5.527zm-.247-23.679c-.842 0-1.527.685-1.527 1.527v16.625c0 .842.686 1.527 1.527 1.527h.247c.842 0 1.527-.685 1.527-1.527v-16.625c0-.842-.686-1.527-1.527-1.527z" fill="#3762cc"/></g><g><path d="m41.417 175.22h-16.626c-3.047 0-5.526-2.479-5.526-5.527v-.248c0-3.047 2.479-5.526 5.526-5.526h16.626c3.047 0 5.526 2.479 5.526 5.526v.248c0 3.048-2.479 5.527-5.526 5.527zm-16.626-7.301c-.842 0-1.526.685-1.526 1.526v.248c0 .842.685 1.527 1.526 1.527h16.626c.842 0 1.526-.685 1.526-1.527v-.248c0-.842-.685-1.526-1.526-1.526z" fill="#3762cc"/></g><g><path d="m41.417 192.76h-16.626c-3.047 0-5.526-2.479-5.526-5.527v-.248c0-3.047 2.479-5.526 5.526-5.526h16.626c3.047 0 5.526 2.479 5.526 5.526v.248c0 3.048-2.479 5.527-5.526 5.527zm-16.626-7.301c-.842 0-1.526.685-1.526 1.526v.248c0 .842.685 1.527 1.526 1.527h16.626c.842 0 1.526-.685 1.526-1.527v-.248c0-.842-.685-1.526-1.526-1.526z" fill="#3762cc"/></g><g><path d="m41.417 210.3h-16.626c-3.047 0-5.526-2.479-5.526-5.527v-.248c0-3.047 2.479-5.526 5.526-5.526h16.626c3.047 0 5.526 2.479 5.526 5.526v.248c0 3.048-2.479 5.527-5.526 5.527zm-16.626-7.3c-.842 0-1.526.685-1.526 1.526v.248c0 .842.685 1.527 1.526 1.527h16.626c.842 0 1.526-.685 1.526-1.527v-.248c0-.842-.685-1.526-1.526-1.526z" fill="#3762cc"/></g><g><path d="m53.649 200.919v-27.619c0-1.702 1.38-3.082 3.082-3.082h27.619c1.702 0 3.082 1.38 3.082 3.082v27.619c0 1.702-1.38 3.082-3.082 3.082h-27.62c-1.702 0-3.081-1.38-3.081-3.082z" fill="#e0ebfc"/></g><g><path d="m82.794 75.031h-65.598c-2.802 0-5.082-2.28-5.082-5.082v-23.422c0-2.802 2.28-5.082 5.082-5.082h65.598c2.802 0 5.082 2.28 5.082 5.082v23.422c0 2.802-2.28 5.082-5.082 5.082zm-65.598-29.586c-.597 0-1.082.485-1.082 1.082v23.422c0 .597.485 1.082 1.082 1.082h65.598c.597 0 1.082-.485 1.082-1.082v-23.422c0-.596-.485-1.082-1.082-1.082z" fill="#3762cc"/></g><g><path d="m82.794 99.684h-65.598c-2.802 0-5.082-2.28-5.082-5.082v-5.136c0-2.802 2.28-5.082 5.082-5.082h65.598c2.802 0 5.082 2.28 5.082 5.082v5.136c0 2.802-2.28 5.082-5.082 5.082zm-65.598-11.3c-.597 0-1.082.485-1.082 1.082v5.136c0 .596.485 1.082 1.082 1.082h65.598c.597 0 1.082-.485 1.082-1.082v-5.136c0-.596-.485-1.082-1.082-1.082z" fill="#3762cc"/></g><g><g><circle cx="174.859" cy="66.759" fill="#e0ebfc" r="13.113"/></g><g><g><g><path d="m131.62 76.684 10.23.57c.599 1.881 1.355 3.692 2.252 5.419l-6.836 7.642c-.905 1.011-.862 2.553.098 3.512l10.426 10.426c.959.959 2.501 1.002 3.512.098l7.642-6.836c1.727.897 3.538 1.653 5.419 2.252l.57 10.23c.075 1.355 1.196 2.414 2.553 2.414h14.745c1.357 0 2.477-1.06 2.553-2.414l.57-10.23c1.881-.599 3.692-1.355 5.419-2.252l7.642 6.836c1.011.905 2.553.862 3.512-.098l10.426-10.426c.959-.959 1.002-2.501.098-3.512l-6.836-7.642c.897-1.727 1.653-3.538 2.252-5.419l10.23-.57c1.355-.075 2.414-1.196 2.414-2.553v-14.745c0-1.357-1.06-2.477-2.414-2.553l-10.23-.57c-.599-1.881-1.355-3.692-2.252-5.419l6.836-7.642c.905-1.011.862-2.553-.098-3.512l-10.426-10.426c-.959-.959-2.501-1.002-3.512-.098l-7.642 6.836c-1.727-.897-3.538-1.653-5.419-2.252l-.57-10.23c-.075-1.355-1.196-2.414-2.553-2.414h-14.745c-1.357 0-2.477 1.06-2.553 2.414l-.57 10.23c-1.881.599-3.692 1.355-5.419 2.252l-7.642-6.836c-1.011-.905-2.553-.862-3.512.098l-10.426 10.426c-.959.959-1.002 2.501-.098 3.512l6.836 7.642c-.897 1.727-1.653 3.538-2.252 5.419l-10.23.57c-1.355.075-2.414 1.196-2.414 2.553v14.745c0 1.357 1.059 2.478 2.414 2.553zm43.239-28.856c10.455 0 18.931 8.476 18.931 18.931s-8.476 18.931-18.931 18.931-18.931-8.476-18.931-18.931 8.475-18.931 18.931-18.931z" fill="#f9a7a7"/></g></g><g><g><path d="m182.231 114.412h-14.745c-2.417 0-4.416-1.891-4.55-4.304l-.495-8.883c-1.076-.389-2.136-.829-3.172-1.317l-6.634 5.934c-1.799 1.609-4.551 1.535-6.26-.174l-10.425-10.427c-1.709-1.708-1.786-4.458-.176-6.259l5.935-6.634c-.488-1.036-.929-2.096-1.317-3.172l-8.883-.495c-2.413-.134-4.304-2.133-4.304-4.55v-14.745c0-2.417 1.891-4.415 4.304-4.55l8.883-.494c.389-1.076.829-2.136 1.317-3.172l-5.934-6.634c-1.611-1.803-1.534-4.552.175-6.261l10.426-10.426c1.709-1.709 4.461-1.784 6.26-.174l6.634 5.934c1.036-.488 2.097-.929 3.172-1.318l.495-8.883c.134-2.413 2.133-4.303 4.55-4.303h14.745c2.415 0 4.414 1.89 4.55 4.302l.494 8.884c1.076.389 2.136.829 3.172 1.318l6.635-5.934c1.801-1.611 4.549-1.535 6.26.174l10.426 10.426c1.708 1.709 1.785 4.458.175 6.26l-5.935 6.634c.488 1.034.929 2.095 1.318 3.172l8.883.494c2.413.135 4.303 2.133 4.303 4.55v14.745c0 2.417-1.891 4.416-4.303 4.55l-8.883.495c-.39 1.077-.83 2.138-1.318 3.172l5.934 6.634c1.611 1.801 1.535 4.551-.173 6.26l-10.428 10.426c-1.71 1.71-4.458 1.786-6.26.175l-6.634-5.934c-1.035.488-2.096.929-3.172 1.318l-.494 8.883c-.136 2.413-2.136 4.303-4.551 4.303zm-23.287-18.896c.314 0 .631.074.922.225 1.635.849 3.353 1.563 5.104 2.121.79.252 1.344.966 1.39 1.794l.57 10.23c.017.295.261.526.556.526h14.745c.295 0 .539-.231.556-.527l.569-10.229c.046-.829.6-1.542 1.39-1.794 1.754-.558 3.471-1.272 5.104-2.121.736-.384 1.635-.271 2.255.284l7.643 6.836c.221.197.557.188.764-.021l10.428-10.426c.208-.208.218-.545.021-.765l-6.835-7.642c-.555-.62-.668-1.518-.284-2.256.848-1.631 1.561-3.348 2.121-5.104.252-.791.966-1.343 1.794-1.39l10.23-.57c.295-.016.525-.26.525-.556v-14.745c0-.295-.23-.54-.525-.556l-10.23-.569c-.828-.046-1.542-.599-1.794-1.39-.561-1.756-1.273-3.474-2.121-5.104-.384-.738-.271-1.636.284-2.256l6.836-7.642c.196-.22.187-.556-.022-.765l-10.426-10.426c-.209-.209-.545-.219-.764-.021l-7.644 6.836c-.62.555-1.519.667-2.255.284-1.636-.85-3.353-1.563-5.104-2.121-.79-.252-1.344-.966-1.39-1.794l-.569-10.23c-.017-.294-.261-.525-.556-.525h-14.745c-.295 0-.539.23-.556.525l-.57 10.231c-.046.829-.6 1.542-1.39 1.794-1.751.558-3.468 1.271-5.104 2.121-.737.382-1.635.27-2.255-.284l-7.642-6.836c-.223-.198-.558-.187-.766.021l-10.426 10.426c-.209.209-.219.545-.021.766l6.835 7.642c.555.62.668 1.518.285 2.255-.85 1.636-1.563 3.354-2.122 5.105-.252.791-.966 1.343-1.794 1.39l-10.229.569c-.295.016-.526.26-.526.556v14.745c0 .295.231.54.526.556l10.229.57c.828.046 1.542.599 1.794 1.39.559 1.751 1.272 3.469 2.122 5.105.383.738.27 1.635-.285 2.255l-6.836 7.642c-.196.22-.187.555.022.764l10.426 10.427c.209.208.546.218.766.021l7.642-6.835c.374-.339.851-.512 1.332-.512zm15.914-7.826c-11.541 0-20.931-9.39-20.931-20.931s9.39-20.931 20.931-20.931 20.931 9.39 20.931 20.931-9.39 20.931-20.931 20.931zm0-37.862c-9.336 0-16.931 7.595-16.931 16.931s7.595 16.931 16.931 16.931 16.931-7.595 16.931-16.931-7.595-16.931-16.931-16.931z" fill="#3762cc"/></g></g><g><path d="m174.859 90.99c13.383 0 24.231-10.849 24.231-24.232s-10.849-24.232-24.231-24.232-24.231 10.849-24.231 24.232 10.848 24.232 24.231 24.232zm0-37.344c7.231 0 13.113 5.882 13.113 13.112s-5.882 13.112-13.113 13.112-13.113-5.882-13.113-13.112 5.882-13.112 13.113-13.112z" fill="#f9cfcf"/></g><g><path d="m174.858 92.99c-14.464 0-26.231-11.768-26.231-26.231s11.768-26.231 26.231-26.231 26.231 11.768 26.231 26.231-11.767 26.231-26.231 26.231zm0-48.463c-12.259 0-22.231 9.973-22.231 22.231s9.973 22.232 22.231 22.232 22.231-9.973 22.231-22.231-9.972-22.232-22.231-22.232zm0 37.345c-8.333 0-15.112-6.78-15.112-15.113s6.779-15.112 15.112-15.112 15.113 6.779 15.113 15.112-6.78 15.113-15.113 15.113zm0-26.226c-6.127 0-11.112 4.985-11.112 11.112s4.985 11.113 11.112 11.113c6.128 0 11.113-4.985 11.113-11.113s-4.985-11.112-11.113-11.112z" fill="#3762cc"/></g></g></g><g><path d="m84.349 206.001h-27.619c-2.803 0-5.082-2.28-5.082-5.082v-27.619c0-2.802 2.279-5.082 5.082-5.082h27.618c2.802 0 5.082 2.28 5.082 5.082v27.619c.001 2.802-2.28 5.082-5.081 5.082zm-27.619-33.782c-.597 0-1.082.485-1.082 1.082v27.619c0 .596.485 1.082 1.082 1.082h27.618c.597 0 1.082-.485 1.082-1.082v-27.62c0-.596-.485-1.082-1.082-1.082h-27.618z" fill="#3762cc"/></g></g></svg>