<svg xmlns="http://www.w3.org/2000/svg" height="511pt" version="1.1" viewBox="0 -17 511.99738 511" width="511pt">
<g id="surface1">
<path d="M 504.46875 396.921875 C 504.46875 437.316406 471.722656 470.0625 431.328125 470.0625 C 390.933594 470.0625 358.191406 437.316406 358.191406 396.921875 C 358.191406 356.527344 390.933594 323.78125 431.328125 323.78125 C 471.722656 323.78125 504.46875 356.527344 504.46875 396.921875 Z M 504.46875 396.921875 " style=" stroke:none;fill-rule:nonzero;fill:rgb(94.901961%,94.901961%,94.901961%);fill-opacity:1;" />
<path d="M 431.382812 323.78125 C 422.230469 323.78125 413.476562 325.476562 405.402344 328.546875 C 432.964844 339.027344 452.558594 365.679688 452.558594 396.921875 C 452.558594 428.160156 432.964844 454.8125 405.402344 465.292969 C 413.476562 468.363281 422.230469 470.058594 431.382812 470.058594 C 471.777344 470.058594 504.523438 437.316406 504.523438 396.921875 C 504.523438 356.527344 471.777344 323.78125 431.382812 323.78125 Z M 431.382812 323.78125 " style=" stroke:none;fill-rule:nonzero;fill:rgb(85.882353%,85.098039%,81.960784%);fill-opacity:1;" />
<path d="M 438.113281 413.933594 L 424.546875 413.933594 C 402.9375 413.933594 384.84375 428.941406 380.09375 449.097656 C 393.289062 462.058594 411.371094 470.058594 431.332031 470.058594 C 451.289062 470.058594 469.371094 462.058594 482.566406 449.097656 C 477.8125 428.941406 459.722656 413.933594 438.113281 413.933594 Z M 438.113281 413.933594 " style=" stroke:none;fill-rule:nonzero;fill:rgb(9.803922%,26.666667%,31.764706%);fill-opacity:1;" />
<path d="M 461.78125 383.480469 C 461.78125 400.296875 448.148438 413.933594 431.328125 413.933594 C 414.511719 413.933594 400.875 400.296875 400.875 383.480469 C 400.875 366.660156 414.511719 353.027344 431.328125 353.027344 C 448.148438 353.027344 461.78125 366.660156 461.78125 383.480469 Z M 461.78125 383.480469 " style=" stroke:none;fill-rule:nonzero;fill:rgb(23.529412%,33.72549%,40%);fill-opacity:1;" />
<path d="M 328.089844 81.171875 C 328.089844 121.566406 295.34375 154.308594 254.949219 154.308594 C 214.558594 154.308594 181.8125 121.566406 181.8125 81.171875 C 181.8125 40.777344 214.558594 8.03125 254.949219 8.03125 C 295.34375 8.03125 328.089844 40.777344 328.089844 81.171875 Z M 328.089844 81.171875 " style=" stroke:none;fill-rule:nonzero;fill:rgb(94.901961%,94.901961%,94.901961%);fill-opacity:1;" />
<path d="M 254.949219 8.03125 C 245.796875 8.03125 237.046875 9.726562 228.96875 12.796875 C 256.53125 23.277344 276.125 49.929688 276.125 81.171875 C 276.125 112.410156 256.53125 139.0625 228.96875 149.542969 C 237.046875 152.613281 245.796875 154.308594 254.949219 154.308594 C 295.34375 154.308594 328.089844 121.5625 328.089844 81.171875 C 328.089844 40.777344 295.34375 8.03125 254.949219 8.03125 Z M 254.949219 8.03125 " style=" stroke:none;fill-rule:nonzero;fill:rgb(85.882353%,85.098039%,81.960784%);fill-opacity:1;" />
<path d="M 261.734375 98.183594 L 248.167969 98.183594 C 226.558594 98.183594 208.464844 113.1875 203.714844 133.347656 C 216.910156 146.308594 234.992188 154.308594 254.949219 154.308594 C 274.910156 154.308594 292.992188 146.308594 306.1875 133.347656 C 301.433594 113.191406 283.34375 98.183594 261.734375 98.183594 Z M 261.734375 98.183594 " style=" stroke:none;fill-rule:nonzero;fill:rgb(84.705882%,24.313725%,22.745098%);fill-opacity:1;" />
<path d="M 285.402344 67.730469 C 285.402344 84.550781 271.769531 98.183594 254.949219 98.183594 C 238.132812 98.183594 224.5 84.550781 224.5 67.730469 C 224.5 50.910156 238.132812 37.277344 254.949219 37.277344 C 271.769531 37.277344 285.402344 50.910156 285.402344 67.730469 Z M 285.402344 67.730469 " style=" stroke:none;fill-rule:nonzero;fill:rgb(93.333333%,33.72549%,27.45098%);fill-opacity:1;" />
<path d="M 328.089844 396.921875 C 328.089844 437.316406 295.34375 470.0625 254.949219 470.0625 C 214.558594 470.0625 181.8125 437.316406 181.8125 396.921875 C 181.8125 356.527344 214.558594 323.78125 254.949219 323.78125 C 295.34375 323.78125 328.089844 356.527344 328.089844 396.921875 Z M 328.089844 396.921875 " style=" stroke:none;fill-rule:nonzero;fill:rgb(94.901961%,94.901961%,94.901961%);fill-opacity:1;" />
<path d="M 254.949219 323.78125 C 245.796875 323.78125 237.046875 325.476562 228.96875 328.546875 C 256.53125 339.027344 276.125 365.679688 276.125 396.921875 C 276.125 428.160156 256.53125 454.8125 228.96875 465.292969 C 237.046875 468.363281 245.796875 470.058594 254.949219 470.058594 C 295.34375 470.058594 328.089844 437.316406 328.089844 396.921875 C 328.089844 356.527344 295.34375 323.78125 254.949219 323.78125 Z M 254.949219 323.78125 " style=" stroke:none;fill-rule:nonzero;fill:rgb(85.882353%,85.098039%,81.960784%);fill-opacity:1;" />
<path d="M 261.734375 413.933594 L 248.167969 413.933594 C 226.558594 413.933594 208.464844 428.941406 203.714844 449.097656 C 216.910156 462.058594 234.992188 470.058594 254.949219 470.058594 C 274.910156 470.058594 292.992188 462.058594 306.1875 449.097656 C 301.433594 428.941406 283.34375 413.933594 261.734375 413.933594 Z M 261.734375 413.933594 " style=" stroke:none;fill-rule:nonzero;fill:rgb(9.803922%,26.666667%,31.764706%);fill-opacity:1;" />
<path d="M 285.402344 383.480469 C 285.402344 400.296875 271.769531 413.933594 254.949219 413.933594 C 238.132812 413.933594 224.5 400.296875 224.5 383.480469 C 224.5 366.660156 238.132812 353.027344 254.949219 353.027344 C 271.769531 353.027344 285.402344 366.660156 285.402344 383.480469 Z M 285.402344 383.480469 " style=" stroke:none;fill-rule:nonzero;fill:rgb(23.529412%,33.72549%,40%);fill-opacity:1;" />
<path d="M 151.710938 396.921875 C 151.710938 437.316406 118.964844 470.0625 78.570312 470.0625 C 38.179688 470.0625 5.433594 437.316406 5.433594 396.921875 C 5.433594 356.527344 38.179688 323.78125 78.570312 323.78125 C 118.964844 323.78125 151.710938 356.527344 151.710938 396.921875 Z M 151.710938 396.921875 " style=" stroke:none;fill-rule:nonzero;fill:rgb(94.901961%,94.901961%,94.901961%);fill-opacity:1;" />
<path d="M 78.570312 323.78125 C 69.417969 323.78125 60.664062 325.476562 52.589844 328.546875 C 80.152344 339.027344 99.746094 365.679688 99.746094 396.921875 C 99.746094 428.160156 80.152344 454.8125 52.589844 465.292969 C 60.664062 468.363281 69.417969 470.058594 78.570312 470.058594 C 118.964844 470.058594 151.710938 437.316406 151.710938 396.921875 C 151.710938 356.527344 118.964844 323.78125 78.570312 323.78125 Z M 78.570312 323.78125 " style=" stroke:none;fill-rule:nonzero;fill:rgb(85.882353%,85.098039%,81.960784%);fill-opacity:1;" />
<path d="M 85.355469 413.933594 L 71.789062 413.933594 C 50.179688 413.933594 32.085938 428.941406 27.335938 449.097656 C 40.53125 462.058594 58.613281 470.058594 78.574219 470.058594 C 98.53125 470.058594 116.613281 462.058594 129.808594 449.097656 C 125.054688 428.941406 106.964844 413.933594 85.355469 413.933594 Z M 85.355469 413.933594 " style=" stroke:none;fill-rule:nonzero;fill:rgb(9.803922%,26.666667%,31.764706%);fill-opacity:1;" />
<path d="M 109.023438 383.480469 C 109.023438 400.296875 95.390625 413.933594 78.570312 413.933594 C 61.753906 413.933594 48.117188 400.296875 48.117188 383.480469 C 48.117188 366.660156 61.753906 353.027344 78.570312 353.027344 C 95.390625 353.027344 109.023438 366.660156 109.023438 383.480469 Z M 109.023438 383.480469 " style=" stroke:none;fill-rule:nonzero;fill:rgb(23.529412%,33.72549%,40%);fill-opacity:1;" />
<path d="M 438.195312 316.5625 L 438.195312 259.089844 C 438.195312 246.339844 427.824219 235.96875 415.074219 235.96875 L 261.816406 235.96875 L 261.816406 161.535156 C 262.234375 161.5 262.652344 161.476562 263.070312 161.433594 C 263.414062 161.398438 263.753906 161.347656 264.097656 161.308594 C 265.105469 161.195312 266.117188 161.074219 267.117188 160.925781 C 267.339844 160.890625 267.558594 160.847656 267.78125 160.8125 C 268.90625 160.632812 270.027344 160.433594 271.144531 160.207031 C 271.222656 160.191406 271.304688 160.171875 271.386719 160.15625 C 286.414062 157.050781 300.269531 149.714844 311.464844 138.71875 C 311.582031 138.605469 311.683594 138.476562 311.792969 138.351562 C 326.5 123.730469 335.621094 103.496094 335.621094 81.167969 C 335.621094 36.6875 299.433594 0.5 254.949219 0.5 C 217.6875 0.5 185.46875 25.742188 176.597656 61.890625 C 175.609375 65.929688 178.078125 70.007812 182.121094 71 C 186.160156 71.988281 190.238281 69.519531 191.230469 65.476562 C 198.4375 36.085938 224.640625 15.5625 254.949219 15.5625 C 291.125 15.5625 320.558594 44.996094 320.558594 81.167969 C 320.558594 95.140625 316.152344 108.097656 308.679688 118.75 C 302.816406 107.714844 293.277344 99.1875 281.824219 94.546875 C 288.683594 87.671875 292.933594 78.1875 292.933594 67.730469 C 292.933594 46.785156 275.894531 29.746094 254.949219 29.746094 C 234.007812 29.746094 216.964844 46.785156 216.964844 67.730469 C 216.964844 78.1875 221.214844 87.671875 228.078125 94.546875 C 216.589844 99.199219 207.035156 107.757812 201.171875 118.835938 C 196.632812 112.339844 193.210938 104.9375 191.226562 96.863281 C 190.238281 92.824219 186.15625 90.351562 182.117188 91.34375 C 178.078125 92.335938 175.609375 96.414062 176.597656 100.453125 C 183.851562 130.015625 206.730469 152.277344 235.210938 159.410156 C 235.53125 159.488281 235.859375 159.5625 236.183594 159.636719 C 237.039062 159.839844 237.894531 160.035156 238.761719 160.210938 C 239.179688 160.292969 239.601562 160.371094 240.023438 160.453125 C 240.8125 160.597656 241.601562 160.734375 242.394531 160.859375 C 242.847656 160.929688 243.296875 160.996094 243.75 161.058594 C 244.542969 161.167969 245.339844 161.261719 246.140625 161.351562 C 246.34375 161.371094 246.546875 161.402344 246.753906 161.425781 L 246.753906 235.96875 L 94.828125 235.96875 C 82.078125 235.96875 71.707031 246.339844 71.707031 259.089844 L 71.707031 316.539062 C 37.398438 319.421875 8.535156 343.738281 0.21875 377.648438 C -0.773438 381.6875 1.699219 385.765625 5.738281 386.757812 C 9.78125 387.746094 13.855469 385.277344 14.847656 381.238281 C 21.949219 352.277344 47.492188 331.9375 77.234375 331.339844 C 77.871094 331.515625 78.542969 331.617188 79.238281 331.617188 C 79.882812 331.617188 80.503906 331.527344 81.101562 331.375 C 116.109375 332.710938 144.179688 361.59375 144.179688 396.921875 C 144.179688 410.894531 139.773438 423.847656 132.300781 434.5 C 126.4375 423.464844 116.898438 414.9375 105.445312 410.296875 C 112.304688 403.421875 116.554688 393.9375 116.554688 383.480469 C 116.554688 362.535156 99.515625 345.496094 78.570312 345.496094 C 57.625 345.496094 40.585938 362.535156 40.585938 383.480469 C 40.585938 393.9375 44.835938 403.421875 51.699219 410.296875 C 40.214844 414.949219 30.65625 423.507812 24.792969 434.585938 C 20.253906 428.09375 16.832031 420.695312 14.851562 412.621094 C 13.859375 408.582031 9.78125 406.117188 5.742188 407.101562 C 1.703125 408.09375 -0.769531 412.171875 0.222656 416.210938 C 7.179688 444.550781 28.492188 466.179688 55.332031 474.203125 C 55.375 474.214844 55.414062 474.222656 55.453125 474.234375 C 56.5625 474.566406 57.679688 474.867188 58.804688 475.148438 C 59.160156 475.242188 59.519531 475.320312 59.878906 475.402344 C 60.699219 475.597656 61.519531 475.78125 62.347656 475.949219 C 62.796875 476.042969 63.246094 476.125 63.699219 476.210938 C 64.453125 476.351562 65.207031 476.480469 65.96875 476.597656 C 66.449219 476.675781 66.929688 476.746094 67.410156 476.8125 C 68.167969 476.917969 68.929688 477.007812 69.695312 477.09375 C 70.167969 477.144531 70.636719 477.199219 71.109375 477.242188 C 71.941406 477.316406 72.777344 477.375 73.613281 477.421875 C 74.019531 477.449219 74.421875 477.480469 74.828125 477.5 C 76.070312 477.558594 77.316406 477.589844 78.570312 477.589844 C 79.933594 477.589844 81.292969 477.554688 82.648438 477.488281 C 82.972656 477.472656 83.292969 477.4375 83.617188 477.417969 C 84.652344 477.355469 85.683594 477.285156 86.710938 477.183594 C 86.992188 477.152344 87.269531 477.113281 87.550781 477.078125 C 88.625 476.960938 89.695312 476.832031 90.761719 476.671875 C 90.933594 476.644531 91.105469 476.609375 91.277344 476.582031 C 92.453125 476.394531 93.625 476.191406 94.785156 475.953125 C 94.828125 475.945312 94.867188 475.933594 94.90625 475.925781 C 109.972656 472.835938 123.867188 465.488281 135.085938 454.46875 C 135.203125 454.355469 135.300781 454.226562 135.40625 454.109375 C 150.117188 439.488281 159.242188 419.25 159.242188 396.921875 C 159.242188 355.207031 127.414062 320.785156 86.769531 316.664062 L 86.769531 259.089844 C 86.769531 254.648438 90.382812 251.03125 94.828125 251.03125 L 246.753906 251.03125 L 246.753906 316.675781 C 213.035156 320.070312 184.804688 344.179688 176.597656 377.648438 C 175.609375 381.6875 178.078125 385.765625 182.117188 386.757812 C 186.15625 387.746094 190.234375 385.277344 191.226562 381.238281 C 198.433594 351.84375 224.636719 331.3125 254.949219 331.3125 C 291.125 331.3125 320.558594 360.746094 320.558594 396.921875 C 320.558594 410.894531 316.152344 423.847656 308.679688 434.5 C 302.816406 423.464844 293.277344 414.9375 281.824219 410.296875 C 288.683594 403.421875 292.933594 393.9375 292.933594 383.480469 C 292.933594 362.539062 275.894531 345.496094 254.949219 345.496094 C 234.007812 345.496094 216.964844 362.539062 216.964844 383.480469 C 216.964844 393.9375 221.214844 403.421875 228.078125 410.296875 C 216.589844 414.949219 207.035156 423.507812 201.171875 434.585938 C 196.632812 428.09375 193.210938 420.695312 191.230469 412.621094 C 190.238281 408.582031 186.160156 406.117188 182.121094 407.101562 C 178.082031 408.09375 175.609375 412.171875 176.601562 416.210938 C 183.558594 444.550781 204.871094 466.179688 231.710938 474.203125 C 231.75 474.214844 231.792969 474.226562 231.832031 474.234375 C 232.941406 474.566406 234.054688 474.867188 235.179688 475.152344 C 235.539062 475.242188 235.898438 475.320312 236.257812 475.40625 C 237.078125 475.597656 237.898438 475.785156 238.726562 475.953125 C 239.175781 476.042969 239.625 476.128906 240.078125 476.210938 C 240.832031 476.351562 241.585938 476.480469 242.347656 476.601562 C 242.828125 476.675781 243.304688 476.746094 243.789062 476.816406 C 244.546875 476.917969 245.308594 477.011719 246.074219 477.09375 C 246.546875 477.144531 247.015625 477.199219 247.488281 477.242188 C 248.320312 477.320312 249.15625 477.375 249.992188 477.425781 C 250.398438 477.449219 250.800781 477.484375 251.207031 477.503906 C 252.449219 477.558594 253.695312 477.59375 254.949219 477.59375 C 256.3125 477.59375 257.671875 477.554688 259.023438 477.488281 C 259.351562 477.472656 259.671875 477.4375 259.996094 477.417969 C 261.03125 477.355469 262.0625 477.285156 263.089844 477.183594 C 263.371094 477.15625 263.648438 477.113281 263.925781 477.082031 C 265.003906 476.960938 266.074219 476.832031 267.140625 476.671875 C 267.3125 476.644531 267.484375 476.609375 267.65625 476.582031 C 268.832031 476.398438 270.003906 476.191406 271.164062 475.953125 C 271.207031 475.945312 271.246094 475.9375 271.285156 475.929688 C 286.351562 472.835938 300.246094 465.488281 311.464844 454.46875 C 311.582031 454.355469 311.679688 454.226562 311.789062 454.105469 C 326.496094 439.484375 335.621094 419.25 335.621094 396.921875 C 335.621094 354.753906 303.09375 320.058594 261.816406 316.5625 L 261.816406 251.03125 L 415.070312 251.03125 C 419.515625 251.03125 423.128906 254.648438 423.128906 259.089844 L 423.128906 316.675781 C 389.414062 320.070312 361.179688 344.179688 352.976562 377.648438 C 351.984375 381.6875 354.457031 385.765625 358.496094 386.757812 C 362.535156 387.75 366.613281 385.277344 367.605469 381.234375 C 374.609375 352.675781 399.546875 332.488281 428.757812 331.367188 C 429.367188 331.523438 430.003906 331.617188 430.660156 331.617188 C 431.347656 331.617188 432.011719 331.515625 432.644531 331.34375 C 468.210938 332.050781 496.933594 361.183594 496.933594 396.921875 C 496.933594 410.894531 492.53125 423.847656 485.058594 434.5 C 479.191406 423.464844 469.65625 414.9375 458.199219 410.296875 C 465.0625 403.421875 469.308594 393.9375 469.308594 383.480469 C 469.308594 362.539062 452.269531 345.496094 431.328125 345.496094 C 410.382812 345.496094 393.34375 362.539062 393.34375 383.480469 C 393.34375 393.9375 397.59375 403.421875 404.453125 410.296875 C 392.96875 414.949219 383.410156 423.507812 377.550781 434.585938 C 373.011719 428.09375 369.589844 420.695312 367.605469 412.621094 C 366.613281 408.582031 362.535156 406.113281 358.496094 407.101562 C 354.457031 408.09375 351.988281 412.171875 352.976562 416.210938 C 359.933594 444.550781 381.25 466.183594 408.09375 474.203125 C 408.121094 474.214844 408.152344 474.21875 408.183594 474.230469 C 409.300781 474.5625 410.425781 474.867188 411.5625 475.152344 C 411.914062 475.242188 412.269531 475.320312 412.625 475.402344 C 413.449219 475.597656 414.273438 475.785156 415.105469 475.953125 C 415.550781 476.042969 416 476.128906 416.449219 476.210938 C 417.203125 476.351562 417.964844 476.484375 418.726562 476.601562 C 419.203125 476.675781 419.683594 476.75 420.164062 476.816406 C 420.921875 476.917969 421.6875 477.011719 422.453125 477.09375 C 422.925781 477.144531 423.394531 477.199219 423.867188 477.242188 C 424.695312 477.320312 425.53125 477.375 426.371094 477.425781 C 426.773438 477.449219 427.175781 477.484375 427.582031 477.503906 C 428.824219 477.558594 430.070312 477.59375 431.328125 477.59375 C 432.691406 477.59375 434.046875 477.554688 435.402344 477.488281 C 435.726562 477.472656 436.046875 477.4375 436.371094 477.417969 C 437.40625 477.355469 438.441406 477.285156 439.464844 477.183594 C 439.746094 477.15625 440.023438 477.113281 440.304688 477.082031 C 441.378906 476.960938 442.449219 476.832031 443.515625 476.671875 C 443.6875 476.644531 443.859375 476.609375 444.03125 476.582031 C 445.207031 476.398438 446.378906 476.191406 447.542969 475.953125 C 447.582031 475.945312 447.621094 475.9375 447.660156 475.929688 C 462.730469 472.835938 476.621094 465.488281 487.839844 454.46875 C 487.957031 454.355469 488.058594 454.226562 488.164062 454.105469 C 502.875 439.484375 511.996094 419.25 511.996094 396.921875 C 512 354.753906 479.472656 320.058594 438.195312 316.5625 Z M 78.570312 360.558594 C 91.210938 360.558594 101.492188 370.84375 101.492188 383.480469 C 101.492188 396.117188 91.210938 406.402344 78.570312 406.402344 C 65.933594 406.402344 55.652344 396.117188 55.652344 383.480469 C 55.652344 370.84375 65.933594 360.558594 78.570312 360.558594 Z M 94.992188 460.449219 C 94.949219 460.460938 94.902344 460.46875 94.855469 460.480469 C 93.921875 460.722656 92.980469 460.9375 92.03125 461.136719 C 91.839844 461.175781 91.648438 461.214844 91.453125 461.25 C 90.648438 461.414062 89.832031 461.558594 89.015625 461.6875 C 88.738281 461.734375 88.460938 461.777344 88.179688 461.820312 C 87.433594 461.929688 86.679688 462.023438 85.925781 462.105469 C 85.605469 462.144531 85.28125 462.183594 84.960938 462.214844 C 84.207031 462.289062 83.445312 462.339844 82.683594 462.386719 C 82.375 462.40625 82.070312 462.433594 81.761719 462.449219 C 80.703125 462.5 79.640625 462.53125 78.570312 462.53125 C 77.601562 462.53125 76.636719 462.507812 75.675781 462.46875 C 75.371094 462.453125 75.066406 462.425781 74.757812 462.410156 C 74.109375 462.371094 73.457031 462.335938 72.808594 462.277344 C 72.445312 462.25 72.089844 462.203125 71.730469 462.164062 C 71.140625 462.101562 70.546875 462.046875 69.960938 461.96875 C 69.597656 461.921875 69.234375 461.859375 68.875 461.804688 C 68.289062 461.71875 67.707031 461.636719 67.128906 461.535156 C 66.785156 461.472656 66.445312 461.402344 66.105469 461.339844 C 65.507812 461.222656 64.90625 461.105469 64.3125 460.976562 C 64.007812 460.910156 63.707031 460.832031 63.40625 460.761719 C 62.765625 460.609375 62.128906 460.457031 61.5 460.289062 C 61.253906 460.222656 61.011719 460.148438 60.765625 460.082031 C 60.066406 459.886719 59.375 459.683594 58.683594 459.464844 C 58.515625 459.414062 58.347656 459.355469 58.179688 459.300781 C 57.398438 459.046875 56.621094 458.78125 55.847656 458.496094 C 55.78125 458.472656 55.714844 458.445312 55.648438 458.421875 C 48.476562 455.746094 41.792969 451.8125 35.875 446.726562 C 41.234375 431.660156 55.449219 421.46875 71.789062 421.46875 L 85.355469 421.46875 C 101.679688 421.46875 115.882812 431.644531 121.253906 446.6875 C 113.765625 453.117188 104.828125 457.902344 94.992188 460.449219 Z M 254.949219 360.558594 C 267.589844 360.558594 277.871094 370.84375 277.871094 383.480469 C 277.871094 396.117188 267.589844 406.402344 254.949219 406.402344 C 242.3125 406.402344 232.03125 396.117188 232.03125 383.480469 C 232.03125 370.84375 242.3125 360.558594 254.949219 360.558594 Z M 271.371094 460.449219 C 271.328125 460.460938 271.28125 460.46875 271.234375 460.480469 C 270.300781 460.71875 269.359375 460.9375 268.410156 461.136719 C 268.21875 461.175781 268.027344 461.214844 267.832031 461.25 C 267.027344 461.414062 266.214844 461.558594 265.398438 461.6875 C 265.117188 461.730469 264.839844 461.777344 264.558594 461.820312 C 263.8125 461.929688 263.0625 462.019531 262.308594 462.105469 C 261.984375 462.144531 261.664062 462.183594 261.339844 462.214844 C 260.585938 462.289062 259.828125 462.339844 259.066406 462.386719 C 258.757812 462.40625 258.453125 462.433594 258.144531 462.449219 C 257.085938 462.5 256.023438 462.53125 254.953125 462.53125 C 253.984375 462.53125 253.019531 462.507812 252.058594 462.46875 C 251.753906 462.453125 251.449219 462.425781 251.140625 462.410156 C 250.492188 462.371094 249.835938 462.335938 249.191406 462.277344 C 248.828125 462.25 248.472656 462.203125 248.113281 462.164062 C 247.523438 462.101562 246.929688 462.046875 246.34375 461.96875 C 245.976562 461.921875 245.617188 461.859375 245.253906 461.804688 C 244.671875 461.71875 244.089844 461.636719 243.511719 461.535156 C 243.167969 461.472656 242.828125 461.402344 242.488281 461.339844 C 241.886719 461.222656 241.289062 461.105469 240.691406 460.976562 C 240.390625 460.910156 240.089844 460.832031 239.789062 460.761719 C 239.148438 460.609375 238.511719 460.457031 237.882812 460.289062 C 237.636719 460.222656 237.390625 460.148438 237.148438 460.082031 C 236.449219 459.886719 235.757812 459.683594 235.066406 459.464844 C 234.898438 459.414062 234.730469 459.355469 234.5625 459.300781 C 233.78125 459.046875 233.003906 458.78125 232.230469 458.496094 C 232.164062 458.472656 232.097656 458.445312 232.03125 458.421875 C 224.859375 455.746094 218.175781 451.8125 212.257812 446.726562 C 217.617188 431.660156 231.832031 421.46875 248.171875 421.46875 L 261.738281 421.46875 C 278.0625 421.46875 292.265625 431.644531 297.636719 446.6875 C 290.148438 453.117188 281.210938 457.902344 271.371094 460.449219 Z M 254.949219 44.808594 C 267.589844 44.808594 277.871094 55.089844 277.871094 67.730469 C 277.871094 80.367188 267.589844 90.652344 254.949219 90.652344 C 242.3125 90.652344 232.03125 80.367188 232.03125 67.730469 C 232.03125 55.089844 242.3125 44.808594 254.949219 44.808594 Z M 261.3125 146.464844 C 260.601562 146.535156 259.882812 146.585938 259.164062 146.628906 C 258.8125 146.652344 258.46875 146.683594 258.117188 146.699219 C 257.167969 146.742188 256.210938 146.765625 255.246094 146.773438 C 255.148438 146.773438 255.050781 146.777344 254.949219 146.777344 C 253.972656 146.777344 253 146.757812 252.03125 146.714844 C 251.847656 146.707031 251.664062 146.6875 251.476562 146.679688 C 250.703125 146.640625 249.929688 146.59375 249.160156 146.527344 C 248.875 146.5 248.589844 146.464844 248.304688 146.433594 C 247.636719 146.367188 246.972656 146.300781 246.308594 146.214844 C 246 146.171875 245.691406 146.121094 245.382812 146.074219 C 244.746094 145.984375 244.109375 145.890625 243.480469 145.777344 C 243.175781 145.726562 242.875 145.664062 242.574219 145.605469 C 241.933594 145.484375 241.292969 145.359375 240.660156 145.21875 C 240.390625 145.160156 240.125 145.089844 239.855469 145.027344 C 239.183594 144.871094 238.511719 144.707031 237.847656 144.53125 C 237.632812 144.472656 237.417969 144.40625 237.199219 144.347656 C 236.472656 144.144531 235.75 143.933594 235.03125 143.703125 C 234.890625 143.660156 234.746094 143.613281 234.605469 143.566406 C 233.796875 143.300781 232.992188 143.027344 232.195312 142.730469 C 232.152344 142.714844 232.105469 142.699219 232.0625 142.683594 C 224.878906 140.011719 218.179688 136.070312 212.253906 130.972656 C 217.613281 115.910156 231.828125 105.714844 248.164062 105.714844 L 261.734375 105.714844 C 278.058594 105.714844 292.257812 115.890625 297.632812 130.9375 C 290.152344 137.363281 281.21875 142.148438 271.394531 144.691406 C 271.324219 144.710938 271.257812 144.726562 271.1875 144.746094 C 270.277344 144.976562 269.363281 145.1875 268.4375 145.382812 C 268.222656 145.425781 268.007812 145.46875 267.796875 145.511719 C 267.011719 145.667969 266.226562 145.804688 265.433594 145.933594 C 265.132812 145.980469 264.828125 146.03125 264.527344 146.074219 C 263.808594 146.179688 263.085938 146.269531 262.363281 146.351562 C 262.011719 146.386719 261.664062 146.429688 261.3125 146.464844 Z M 431.328125 360.558594 C 443.96875 360.558594 454.25 370.84375 454.25 383.480469 C 454.25 396.117188 443.96875 406.402344 431.328125 406.402344 C 418.691406 406.402344 408.410156 396.117188 408.410156 383.480469 C 408.410156 370.84375 418.691406 360.558594 431.328125 360.558594 Z M 447.75 460.449219 C 447.703125 460.460938 447.660156 460.46875 447.613281 460.480469 C 446.679688 460.71875 445.738281 460.9375 444.789062 461.136719 C 444.597656 461.175781 444.402344 461.214844 444.210938 461.25 C 443.40625 461.414062 442.59375 461.558594 441.777344 461.6875 C 441.496094 461.730469 441.214844 461.777344 440.9375 461.820312 C 440.191406 461.929688 439.4375 462.019531 438.6875 462.105469 C 438.363281 462.144531 438.042969 462.183594 437.71875 462.214844 C 436.964844 462.289062 436.207031 462.339844 435.445312 462.386719 C 435.136719 462.40625 434.832031 462.433594 434.523438 462.449219 C 433.464844 462.5 432.402344 462.53125 431.332031 462.53125 C 430.363281 462.53125 429.398438 462.507812 428.4375 462.46875 C 428.132812 462.453125 427.828125 462.425781 427.519531 462.410156 C 426.867188 462.371094 426.214844 462.335938 425.566406 462.277344 C 425.207031 462.25 424.851562 462.203125 424.492188 462.164062 C 423.898438 462.101562 423.308594 462.046875 422.71875 461.96875 C 422.355469 461.921875 421.996094 461.859375 421.632812 461.804688 C 421.050781 461.71875 420.464844 461.636719 419.886719 461.535156 C 419.546875 461.472656 419.207031 461.402344 418.867188 461.339844 C 418.265625 461.222656 417.667969 461.105469 417.070312 460.976562 C 416.769531 460.910156 416.472656 460.832031 416.171875 460.761719 C 415.53125 460.613281 414.890625 460.457031 414.257812 460.285156 C 414.015625 460.222656 413.773438 460.152344 413.53125 460.085938 C 412.832031 459.886719 412.136719 459.683594 411.445312 459.464844 C 411.277344 459.414062 411.113281 459.355469 410.949219 459.300781 C 410.160156 459.046875 409.378906 458.777344 408.605469 458.492188 C 408.542969 458.46875 408.480469 458.445312 408.417969 458.425781 C 401.246094 455.75 394.554688 451.8125 388.636719 446.722656 C 393.996094 431.660156 408.210938 421.46875 424.550781 421.46875 L 438.117188 421.46875 C 454.441406 421.46875 468.644531 431.644531 474.015625 446.6875 C 466.527344 453.117188 457.589844 457.902344 447.75 460.449219 Z M 447.75 460.449219 " style=" stroke:none;fill-rule:nonzero;fill:rgb(0%,0%,0%);fill-opacity:1;" />
</g>
</svg>