<svg id="Layer_1" enable-background="new 0 0 512 512" viewBox="0 0 512 512" xmlns="http://www.w3.org/2000/svg"><g clip-rule="evenodd" fill-rule="evenodd"><g><path d="m74.236 363.81 32.665 121.908c7.894-6.565 14.951-11.857 21.529-15.985 7.714-5.144 15.549-8.693 23.921-10.409 8.876-1.932 17.715-1.573 27.71.715.01.003.021.005.032.007l66.302 15.2c15.097 3.461 29.286 2.124 42.704-5.622l165.806-95.725c14.795-8.542 19.909-27.634 11.368-42.432-8.54-14.796-27.636-19.913-42.431-11.371l-115.468 66.663c.087-.289.171-.581.251-.875 4.957-18.21-5.92-37.224-24.131-42.181l-115.754-31.506c-15.363-2.034-29.312 1.686-41.615 11.11z" fill="#ffd6bd"/><path d="m270.522 394.8c15.666 4.257 31.88-3.156 39.285-16.882-.076 2.642-.46 5.312-1.182 7.965-4.964 18.236-23.947 29.106-42.18 24.13-22.531-6.15-45.095-12.083-67.659-18.129-4.2-1.125-6.715-5.482-5.59-9.681 1.125-4.2 5.481-6.715 9.681-5.589 22.519 6.035 45.015 12.038 67.645 18.186z" fill="#f9c6aa"/><path d="m82.58 337.988 39.93 149.02c.974 3.636-1.203 7.406-4.837 8.379l-27.542 7.38c-3.634.974-7.404-1.202-8.379-4.838l-39.93-149.02c-.974-3.636 1.203-7.406 4.837-8.379l27.542-7.38c3.634-.975 7.405 1.201 8.379 4.838z" fill="#64b5f6"/></g><g><path d="m453.321 54.185c-101.544-60.244-166.754-60.246-268.297 0v115.783c0 38.956 16.745 71.618 48.378 94.354l85.77 61.644 85.767-61.644c31.634-22.737 48.382-55.397 48.382-94.354z" fill="#3cbe52"/><path d="m425.322 70.381c-80.017-44.444-132.282-44.445-212.3-.001v99.587c0 29.937 12.41 54.146 36.72 71.618l69.429 49.9 69.426-49.899c24.311-17.473 36.724-41.68 36.724-71.619v-99.586z" fill="#72d561"/><path d="m361.636 96.739c6.277-6.277 16.454-6.277 22.73 0s6.276 16.454 0 22.73l-77.386 77.386c-7.109 7.109-18.853 5.992-24.558-2.18l-33.355-41.975c-5.514-6.936-4.361-17.029 2.574-22.542 6.935-5.514 17.028-4.362 22.542 2.574l22.786 28.673z" fill="#eff4f7"/></g></g></svg>