<svg id="Layer_1" enable-background="new 0 0 512 512" viewBox="0 0 512 512" xmlns="http://www.w3.org/2000/svg" xmlns:xlink="http://www.w3.org/1999/xlink"><linearGradient id="lg1"><stop offset="0" stop-color="#60b7ff"/><stop offset="1" stop-color="#0268b4"/></linearGradient><linearGradient id="SVGID_1_" gradientUnits="userSpaceOnUse" x1="103.721" x2="346.145" xlink:href="#lg1" y1="156.807" y2="375.315"/><linearGradient id="SVGID_00000163059673863647429220000010851866006158780817_" gradientUnits="userSpaceOnUse" x1="204.145" x2="204.145" xlink:href="#lg1" y1="157.451" y2="143.761"/><linearGradient id="SVGID_00000032644008162364669900000008704015400390891702_" gradientUnits="userSpaceOnUse" x1="204.145" x2="204.145" xlink:href="#lg1" y1="138.881" y2="125.191"/><linearGradient id="SVGID_00000176743796050034247850000013047960853896811157_" gradientUnits="userSpaceOnUse" x1="204.145" x2="204.145" xlink:href="#lg1" y1="120.311" y2="106.62"/><linearGradient id="SVGID_00000082329556634638128390000012718743932230362014_" gradientUnits="userSpaceOnUse" x1="204.145" x2="204.145" xlink:href="#lg1" y1="101.741" y2="88.05"/><linearGradient id="lg2"><stop offset="0" stop-color="#024c67" stop-opacity="0"/><stop offset=".2656" stop-color="#034664" stop-opacity=".266"/><stop offset=".6092" stop-color="#06365b" stop-opacity=".609"/><stop offset=".9942" stop-color="#0b1b4c" stop-opacity=".994"/><stop offset="1" stop-color="#0b1b4c"/></linearGradient><linearGradient id="SVGID_00000025402937336851285420000002712361771189765006_" gradientUnits="userSpaceOnUse" x1="173.236" x2="152.786" xlink:href="#lg2" y1="107.47" y2="64.935"/><linearGradient id="SVGID_00000069364302278575936830000003117995437210942337_" gradientTransform="matrix(-1 0 0 1 1576 0)" gradientUnits="userSpaceOnUse" x1="1340.945" x2="1320.495" xlink:href="#lg2" y1="107.47" y2="64.935"/><linearGradient id="SVGID_00000149367747009702088750000011797622078291166130_" gradientUnits="userSpaceOnUse" x1="349.746" x2="401.922" xlink:href="#lg2" y1="202.504" y2="202.504"/><linearGradient id="SVGID_00000085247450582636715330000016364522938007665795_" gradientUnits="userSpaceOnUse" x1="204.145" x2="204.145" xlink:href="#lg2" y1="354.52" y2="409.847"/><linearGradient id="lg3"><stop offset="0" stop-color="#f5fbff"/><stop offset="1" stop-color="#dbd5ef"/></linearGradient><linearGradient id="SVGID_00000120519768139608155640000000511213794727161231_" gradientUnits="userSpaceOnUse" x1="204.145" x2="204.145" xlink:href="#lg3" y1="8.762" y2="144.549"/><linearGradient id="SVGID_00000029028447269485225990000011242953726179331740_" gradientUnits="userSpaceOnUse" x1="200.104" x2="204.466" xlink:href="#lg3" y1="9.201" y2="131.9"/><linearGradient id="lg4"><stop offset="0" stop-color="#dbd5ef" stop-opacity="0"/><stop offset=".2853" stop-color="#d9d2ee" stop-opacity=".285"/><stop offset=".4739" stop-color="#d4c9e9" stop-opacity=".474"/><stop offset=".6346" stop-color="#cbbae2" stop-opacity=".635"/><stop offset=".7795" stop-color="#bfa5d7" stop-opacity=".78"/><stop offset=".9126" stop-color="#af8aca" stop-opacity=".913"/><stop offset="1" stop-color="#a274bf"/></linearGradient><linearGradient id="SVGID_00000060720982069050099660000012533226127755296415_" gradientUnits="userSpaceOnUse" x1="204.145" x2="204.145" xlink:href="#lg4" y1="96.56" y2="-2.579"/><linearGradient id="SVGID_00000163061983554250495220000006501997185346416571_" gradientUnits="userSpaceOnUse" x1="387.568" x2="410.355" xlink:href="#lg4" y1="98.805" y2="98.805"/><linearGradient id="SVGID_00000173139636316927393290000004880858820467721380_" gradientUnits="userSpaceOnUse" x1="339.425" x2="339.425" xlink:href="#lg4" y1="102.013" y2="148.417"/><linearGradient id="SVGID_00000024001849636998508880000003914239894542867878_" gradientUnits="userSpaceOnUse" x1="68.866" x2="68.866" xlink:href="#lg4" y1="102.013" y2="148.417"/><linearGradient id="lg5"><stop offset="0" stop-color="#5a5a5a"/><stop offset="1" stop-color="#444"/></linearGradient><linearGradient id="SVGID_00000096060156716151491860000007247790664002597298_" gradientUnits="userSpaceOnUse" x1="165.299" x2="234.653" xlink:href="#lg5" y1="223.336" y2="362.044"/><linearGradient id="lg6"><stop offset="0" stop-color="#433f43" stop-opacity="0"/><stop offset=".3444" stop-color="#403c40" stop-opacity=".344"/><stop offset=".6223" stop-color="#363336" stop-opacity=".622"/><stop offset=".8763" stop-color="#252425" stop-opacity=".876"/><stop offset="1" stop-color="#1a1a1a"/></linearGradient><linearGradient id="SVGID_00000088853072414093190360000010012549056617528473_" gradientUnits="userSpaceOnUse" x1="311.765" x2="251.883" xlink:href="#lg6" y1="337.667" y2="332.677"/><linearGradient id="SVGID_00000130636011690419372140000013461117162789939865_" gradientUnits="userSpaceOnUse" x1="150.779" x2="89.371" xlink:href="#lg6" y1="295.402" y2="295.402"/><linearGradient id="SVGID_00000067923841034586330730000017225840390139320193_" gradientUnits="userSpaceOnUse" x1="204.145" x2="204.145" xlink:href="#lg6" y1="246.512" y2="194.2"/><linearGradient id="lg7"><stop offset="0" stop-color="#fea613"/><stop offset="1" stop-color="#c4573a"/></linearGradient><linearGradient id="SVGID_00000049221315939217520520000017446943201554405801_" gradientUnits="userSpaceOnUse" x1="65.629" x2="240.93" xlink:href="#lg7" y1="287.003" y2="427.528"/><linearGradient id="lg8"><stop offset="0" stop-color="#c4573a" stop-opacity="0"/><stop offset=".235" stop-color="#be5539" stop-opacity=".235"/><stop offset=".539" stop-color="#ae4e35" stop-opacity=".539"/><stop offset=".8794" stop-color="#934330" stop-opacity=".879"/><stop offset="1" stop-color="#883f2e"/></linearGradient><linearGradient id="SVGID_00000034068034994568494220000011984448480705025465_" gradientUnits="userSpaceOnUse" x1="222.801" x2="256.897" xlink:href="#lg8" y1="364.797" y2="364.797"/><linearGradient id="SVGID_00000076604837448039871130000007218049278331055755_" gradientUnits="userSpaceOnUse" x1="95.693" x2="167.553" xlink:href="#lg8" y1="346.393" y2="435.286"/><linearGradient id="SVGID_00000005266603728382094040000002420100054305750163_" gradientUnits="userSpaceOnUse" x1="190.936" x2="202.031" xlink:href="#lg8" y1="317.921" y2="364.68"/><linearGradient id="SVGID_00000072263497740163135470000008176232333358073016_" gradientUnits="userSpaceOnUse" x1="101.089" x2="96.831" xlink:href="#lg8" y1="408.608" y2="430.61"/><linearGradient id="SVGID_00000055709308809774505900000009603504343506928796_" gradientTransform="matrix(-1 0 0 1 -754.03 0)" gradientUnits="userSpaceOnUse" x1="-960.059" x2="-964.317" xlink:href="#lg8" y1="408.608" y2="430.61"/><linearGradient id="SVGID_00000146496639357970597230000010527514189407035276_" gradientUnits="userSpaceOnUse" x1="152.89" x2="155.551" xlink:href="#lg7" y1="288.935" y2="324.421"/><linearGradient id="SVGID_00000038402026461654890780000003561797552602119577_" gradientUnits="userSpaceOnUse" x1="123.003" x2="124.954" xlink:href="#lg8" y1="290.769" y2="298.931"/><linearGradient id="lg9"><stop offset="0" stop-color="#fef0ae"/><stop offset="1" stop-color="#fac600"/></linearGradient><linearGradient id="SVGID_00000032622179392418807730000011890839671708434583_" gradientUnits="userSpaceOnUse" x1="135.93" x2="149.77" xlink:href="#lg9" y1="282.647" y2="316.358"/><linearGradient id="lg10"><stop offset="0" stop-color="#fe9738" stop-opacity="0"/><stop offset="1" stop-color="#fe9738"/></linearGradient><linearGradient id="SVGID_00000080188394861315695420000014607380263179871678_" gradientUnits="userSpaceOnUse" x1="113.056" x2="113.056" xlink:href="#lg10" y1="303.173" y2="310.942"/><linearGradient id="SVGID_00000024718281737818784340000013364475811260642968_" gradientUnits="userSpaceOnUse" x1="102.326" x2="107.696" xlink:href="#lg10" y1="324.72" y2="324.72"/><linearGradient id="SVGID_00000138535317562362906330000006020626871799606155_" gradientUnits="userSpaceOnUse" x1="97.339" x2="96.275" xlink:href="#lg10" y1="336.224" y2="342.257"/><linearGradient id="SVGID_00000159469794288757299320000011175586755194070155_" gradientUnits="userSpaceOnUse" x1="71.782" x2="96.477" xlink:href="#lg3" y1="375.92" y2="418.451"/><linearGradient id="SVGID_00000027567448412293151860000009052936677723640988_" gradientUnits="userSpaceOnUse" x1="84.245" x2="82.358" xlink:href="#lg4" y1="402.172" y2="410.403"/><linearGradient id="SVGID_00000057862468141536204350000007697524420621665667_" gradientUnits="userSpaceOnUse" x1="100.277" x2="106.705" xlink:href="#lg4" y1="400.175" y2="400.175"/><linearGradient id="SVGID_00000003095184346598313400000012343228398944115373_" gradientUnits="userSpaceOnUse" x1="134.492" x2="309.793" xlink:href="#lg7" y1="357.793" y2="498.318"/><linearGradient id="SVGID_00000182513888435607582040000003495003682127924353_" gradientUnits="userSpaceOnUse" x1="291.664" x2="325.76" xlink:href="#lg8" y1="435.586" y2="435.586"/><linearGradient id="SVGID_00000176007466207961337320000015569623154924597175_" gradientUnits="userSpaceOnUse" x1="164.556" x2="236.415" xlink:href="#lg8" y1="417.183" y2="506.076"/><linearGradient id="SVGID_00000177471739266461690610000007667550072452834484_" gradientUnits="userSpaceOnUse" x1="169.952" x2="165.693" xlink:href="#lg8" y1="479.398" y2="501.399"/><linearGradient id="SVGID_00000023965593647981302020000015499251233104217499_" gradientTransform="matrix(-1 0 0 1 -754.03 0)" gradientUnits="userSpaceOnUse" x1="-1028.921" x2="-1033.179" xlink:href="#lg8" y1="479.398" y2="501.399"/><linearGradient id="SVGID_00000022543153710832293730000006892658065661430680_" gradientUnits="userSpaceOnUse" x1="221.752" x2="224.413" xlink:href="#lg7" y1="359.724" y2="395.21"/><linearGradient id="SVGID_00000166643067592299787620000017999391847988526480_" gradientUnits="userSpaceOnUse" x1="191.865" x2="193.817" xlink:href="#lg8" y1="361.559" y2="369.72"/><linearGradient id="SVGID_00000077302611470896959020000007121028040309878434_" gradientUnits="userSpaceOnUse" x1="204.793" x2="218.632" xlink:href="#lg9" y1="353.436" y2="387.148"/><linearGradient id="SVGID_00000095334117849762214040000004048266055292027037_" gradientUnits="userSpaceOnUse" x1="181.919" x2="181.919" xlink:href="#lg10" y1="373.963" y2="381.732"/><linearGradient id="SVGID_00000121994040159425074100000003127506675383662244_" gradientUnits="userSpaceOnUse" x1="171.188" x2="176.558" xlink:href="#lg10" y1="395.51" y2="395.51"/><linearGradient id="SVGID_00000061429800332593318680000006296380029147908271_" gradientUnits="userSpaceOnUse" x1="166.202" x2="165.137" xlink:href="#lg10" y1="407.014" y2="413.046"/><linearGradient id="SVGID_00000031885990847952657570000003944310638521928887_" gradientUnits="userSpaceOnUse" x1="140.644" x2="165.339" xlink:href="#lg3" y1="446.71" y2="489.241"/><linearGradient id="SVGID_00000074405273283979844270000003414994933536505502_" gradientUnits="userSpaceOnUse" x1="153.107" x2="151.221" xlink:href="#lg4" y1="472.961" y2="481.193"/><linearGradient id="SVGID_00000039824638182671565790000005999054252066695861_" gradientUnits="userSpaceOnUse" x1="169.139" x2="175.567" xlink:href="#lg4" y1="470.965" y2="470.965"/><linearGradient id="SVGID_00000170241846561651450530000002997136253765727373_" gradientUnits="userSpaceOnUse" x1="234.043" x2="575.814" y1="251.357" y2="503.537"><stop offset="0" stop-color="#b3dafe"/><stop offset="1" stop-color="#01d0fb"/></linearGradient><linearGradient id="lg11"><stop offset="0" stop-color="#08a9f1" stop-opacity="0"/><stop offset="1" stop-color="#08a9f1"/></linearGradient><linearGradient id="SVGID_00000087409768274791664480000017901417859264274102_" gradientUnits="userSpaceOnUse" x1="488.63" x2="511.165" xlink:href="#lg11" y1="367.81" y2="367.81"/><linearGradient id="SVGID_00000110458093924817222190000016126633862395626128_" gradientUnits="userSpaceOnUse" x1="454.268" x2="424.405" xlink:href="#lg11" y1="262.422" y2="257.721"/><linearGradient id="SVGID_00000161601724227732029840000004341215012986405290_" gradientUnits="userSpaceOnUse" x1="479.644" x2="418.258" xlink:href="#lg11" y1="380.956" y2="339.893"/><linearGradient id="SVGID_00000178169864666358962400000002529425925946743477_" gradientUnits="userSpaceOnUse" x1="391.867" x2="391.867" xlink:href="#lg11" y1="489.579" y2="511.77"/><linearGradient id="SVGID_00000163770660055759042550000012329914507459260578_" gradientUnits="userSpaceOnUse" x1="330.805" x2="499.832" xlink:href="#lg3" y1="305.846" y2="474.873"/><linearGradient id="SVGID_00000115508241741628272730000015623412080474479494_" gradientUnits="userSpaceOnUse" x1="444.88" x2="415.497" xlink:href="#lg4" y1="291.673" y2="239.437"/><linearGradient id="SVGID_00000014626388660331106330000014883817967404462509_" gradientUnits="userSpaceOnUse" x1="472.039" x2="490.777" xlink:href="#lg4" y1="366.908" y2="366.908"/><linearGradient id="SVGID_00000170963101753170795820000010601995850645168311_" gradientUnits="userSpaceOnUse" x1="391.867" x2="391.867" xlink:href="#lg4" y1="471.232" y2="494.492"/><linearGradient id="SVGID_00000170969732843050496160000017908640868195937168_" gradientUnits="userSpaceOnUse" x1="391.867" x2="391.867" xlink:href="#lg4" y1="263.754" y2="250.423"/><linearGradient id="SVGID_00000041262161533653684520000006154085697603846831_" gradientUnits="userSpaceOnUse" x1="377.932" x2="362.999" xlink:href="#lg4" y1="252.565" y2="252.565"/><linearGradient id="SVGID_00000013189778980966101540000015079761677524463495_" gradientUnits="userSpaceOnUse" x1="391.867" x2="391.867" xlink:href="#lg5" y1="265.275" y2="272.741"/><linearGradient id="SVGID_00000182500538175702720320000001669724961322871184_" gradientUnits="userSpaceOnUse" x1="391.867" x2="391.867" xlink:href="#lg6" y1="266.105" y2="271.911"/><linearGradient id="SVGID_00000062151307636395092500000015153722017890127006_" gradientUnits="userSpaceOnUse" x1="391.867" x2="391.867" xlink:href="#lg6" y1="259.33" y2="249.652"/><linearGradient id="SVGID_00000163058104974798710010000016273644469445331359_" gradientUnits="userSpaceOnUse" x1="417.635" x2="427.589" xlink:href="#lg6" y1="256.37" y2="260.38"/><linearGradient id="SVGID_00000088109722543575207110000013505341055375945871_" gradientUnits="userSpaceOnUse" x1="391.868" x2="391.868" xlink:href="#lg9" y1="221.678" y2="250.352"/><linearGradient id="SVGID_00000049222398855355056780000010982261146812629940_" gradientUnits="userSpaceOnUse" x1="391.868" x2="391.868" xlink:href="#lg9" y1="246.288" y2="218.017"/><linearGradient id="SVGID_00000179637399472139746460000017659644685386022539_" gradientUnits="userSpaceOnUse" x1="391.868" x2="391.868" xlink:href="#lg10" y1="242.693" y2="251.689"/><linearGradient id="SVGID_00000103980762584595409180000000724871243993029549_" gradientUnits="userSpaceOnUse" x1="416.768" x2="435.571" xlink:href="#lg10" y1="232.886" y2="235.098"/><linearGradient id="SVGID_00000022520964772077313870000003240992222865492369_" gradientUnits="userSpaceOnUse" x1="415.575" x2="416.405" xlink:href="#lg4" y1="203.672" y2="326.03"/><linearGradient id="SVGID_00000001644237054678836760000006912038509822138268_" gradientUnits="userSpaceOnUse" x1="304.647" x2="347.888" xlink:href="#lg4" y1="275.706" y2="318.946"/><linearGradient id="SVGID_00000052819089848317378540000010238488282706860174_" gradientUnits="userSpaceOnUse" x1="329.533" x2="329.533" xlink:href="#lg4" y1="300.799" y2="285.844"/><linearGradient id="SVGID_00000090280336496843385640000009994128440040598428_" gradientUnits="userSpaceOnUse" x1="338.036" x2="312.735" xlink:href="#lg4" y1="300.592" y2="300.592"/><linearGradient id="lg12"><stop offset="0" stop-color="#bbec6c"/><stop offset=".1974" stop-color="#b5e665"/><stop offset=".4799" stop-color="#a5d552"/><stop offset=".8118" stop-color="#8abb33"/><stop offset="1" stop-color="#78a91f"/></linearGradient><linearGradient id="SVGID_00000021096521759854641240000016037563969318247301_" gradientUnits="userSpaceOnUse" x1="337.645" x2="341.466" xlink:href="#lg12" y1="286.669" y2="306.567"/><linearGradient id="lg13"><stop offset="0" stop-color="#334c0f" stop-opacity="0"/><stop offset=".3197" stop-color="#344c12" stop-opacity=".32"/><stop offset=".5654" stop-color="#374a1c" stop-opacity=".565"/><stop offset=".7856" stop-color="#3c482c" stop-opacity=".786"/><stop offset=".9909" stop-color="#444443" stop-opacity=".991"/><stop offset="1" stop-color="#444"/></linearGradient><linearGradient id="SVGID_00000091005819447850832190000010810278780934346128_" gradientUnits="userSpaceOnUse" x1="342.344" x2="346.04" xlink:href="#lg13" y1="295.273" y2="298.969"/><linearGradient id="SVGID_00000114075260037288481240000013261027173340778652_" gradientUnits="userSpaceOnUse" x1="415.575" x2="416.405" xlink:href="#lg4" y1="241.416" y2="363.774"/><linearGradient id="SVGID_00000007427981841291815170000011248640704505026457_" gradientUnits="userSpaceOnUse" x1="304.647" x2="347.888" xlink:href="#lg4" y1="313.45" y2="356.69"/><linearGradient id="SVGID_00000161606200726921236250000012555790096700281020_" gradientUnits="userSpaceOnUse" x1="329.533" x2="329.533" xlink:href="#lg4" y1="338.543" y2="323.589"/><linearGradient id="SVGID_00000118378422378071388060000006999949400591755432_" gradientUnits="userSpaceOnUse" x1="338.036" x2="312.735" xlink:href="#lg4" y1="338.336" y2="338.336"/><linearGradient id="SVGID_00000058553724658032623100000014784671374943136949_" gradientUnits="userSpaceOnUse" x1="337.645" x2="341.466" xlink:href="#lg12" y1="324.413" y2="344.311"/><linearGradient id="SVGID_00000078007074328252904340000016119635128540323258_" gradientUnits="userSpaceOnUse" x1="342.344" x2="346.04" xlink:href="#lg13" y1="333.017" y2="336.713"/><linearGradient id="SVGID_00000007405850321581386880000013946509165264578471_" gradientUnits="userSpaceOnUse" x1="415.575" x2="416.405" xlink:href="#lg4" y1="279.161" y2="401.518"/><linearGradient id="SVGID_00000031907176283674535140000001110928250890973577_" gradientUnits="userSpaceOnUse" x1="304.647" x2="347.888" xlink:href="#lg4" y1="351.194" y2="394.434"/><linearGradient id="SVGID_00000142153857953539026700000008841991604372729249_" gradientUnits="userSpaceOnUse" x1="329.533" x2="329.533" xlink:href="#lg4" y1="376.287" y2="361.333"/><linearGradient id="SVGID_00000081610561468812759550000003458482788203963815_" gradientUnits="userSpaceOnUse" x1="338.036" x2="312.735" xlink:href="#lg4" y1="376.08" y2="376.08"/><linearGradient id="SVGID_00000104664004143909523960000008618074497280394643_" gradientUnits="userSpaceOnUse" x1="337.645" x2="341.466" xlink:href="#lg12" y1="362.157" y2="382.056"/><linearGradient id="SVGID_00000147911581692458142260000012334301987812483736_" gradientUnits="userSpaceOnUse" x1="342.344" x2="346.04" xlink:href="#lg13" y1="370.761" y2="374.457"/><linearGradient id="SVGID_00000024684339244788544760000004957321424544301465_" gradientUnits="userSpaceOnUse" x1="415.575" x2="416.405" xlink:href="#lg4" y1="316.943" y2="439.3"/><linearGradient id="SVGID_00000073692738633521004390000013877087404820434068_" gradientUnits="userSpaceOnUse" x1="304.647" x2="347.888" xlink:href="#lg4" y1="388.976" y2="432.217"/><linearGradient id="SVGID_00000068676839682972718490000000527668540702126771_" gradientUnits="userSpaceOnUse" x1="329.533" x2="329.533" xlink:href="#lg4" y1="414.07" y2="399.115"/><linearGradient id="SVGID_00000062174920239247368150000005956083078236531330_" gradientUnits="userSpaceOnUse" x1="338.036" x2="312.735" xlink:href="#lg4" y1="413.862" y2="413.862"/><linearGradient id="SVGID_00000133517713076430914890000008207244354354362764_" gradientUnits="userSpaceOnUse" x1="415.575" x2="416.405" xlink:href="#lg4" y1="354.725" y2="477.082"/><linearGradient id="SVGID_00000104685294648031034650000012178115901155196577_" gradientUnits="userSpaceOnUse" x1="304.647" x2="347.888" xlink:href="#lg4" y1="426.758" y2="469.999"/><linearGradient id="SVGID_00000179624138705986476430000013526218785803487889_" gradientUnits="userSpaceOnUse" x1="329.533" x2="329.533" xlink:href="#lg4" y1="451.852" y2="436.897"/><linearGradient id="SVGID_00000111875049741512648340000008209332260956142219_" gradientUnits="userSpaceOnUse" x1="338.036" x2="312.735" xlink:href="#lg4" y1="451.644" y2="451.644"/><g><g><g><g><path d="m391.959 102.441v283.523c0 7.751-6.284 14.035-14.043 14.035h-57.799l-115.972-31.834-115.972 31.834h-57.798c-7.759 0-14.043-6.284-14.043-14.035v-283.523l187.813-97.432z" fill="url(#SVGID_1_)"/><g><path d="m249.244 156.314h-90.198c-3.035 0-5.495-2.46-5.495-5.495 0-3.035 2.46-5.495 5.495-5.495h90.198c3.035 0 5.495 2.46 5.495 5.495.001 3.035-2.46 5.495-5.495 5.495z" fill="url(#SVGID_00000163059673863647429220000010851866006158780817_)"/><path d="m249.244 137.744h-90.198c-3.035 0-5.495-2.46-5.495-5.495 0-3.035 2.46-5.495 5.495-5.495h90.198c3.035 0 5.495 2.46 5.495 5.495.001 3.035-2.46 5.495-5.495 5.495z" fill="url(#SVGID_00000032644008162364669900000008704015400390891702_)"/><path d="m249.244 119.174h-90.198c-3.035 0-5.495-2.46-5.495-5.495 0-3.035 2.46-5.495 5.495-5.495h90.198c3.035 0 5.495 2.46 5.495 5.495.001 3.035-2.46 5.495-5.495 5.495z" fill="url(#SVGID_00000176743796050034247850000013047960853896811157_)"/><path d="m249.244 100.604h-90.198c-3.035 0-5.495-2.46-5.495-5.495 0-3.035 2.46-5.495 5.495-5.495h90.198c3.035 0 5.495 2.46 5.495 5.495.001 3.035-2.46 5.495-5.495 5.495z" fill="url(#SVGID_00000082329556634638128390000012718743932230362014_)"/></g><path d="m16.332 102.439v138.646h375.626v-138.646l-187.813-97.43z" fill="url(#SVGID_00000025402937336851285420000002712361771189765006_)"/><path d="m391.958 102.439v138.646h-375.626v-138.646l187.813-97.43z" fill="url(#SVGID_00000069364302278575936830000003117995437210942337_)"/><path d="m391.959 102.441v283.523c0 7.751-6.284 14.035-14.043 14.035h-57.799l-115.972-31.834v-363.156z" fill="url(#SVGID_00000149367747009702088750000011797622078291166130_)"/><path d="m391.959 287.711v98.253c0 7.751-6.284 14.035-14.043 14.035h-57.799l-115.972-31.834-115.972 31.834h-57.798c-7.759 0-14.043-6.284-14.043-14.035v-98.253z" fill="url(#SVGID_00000085247450582636715330000016364522938007665795_)"/></g><g><path d="m200.553.876-196.344 101.855c-2.586 1.342-4.209 4.012-4.209 6.925v26.43c0 5.85 6.201 9.619 11.394 6.925l189.159-98.128c2.253-1.169 4.933-1.169 7.185 0l189.159 98.128c5.193 2.694 11.394-1.075 11.394-6.925v-26.43c0-2.913-1.623-5.584-4.209-6.925l-196.344-101.855c-2.253-1.168-4.933-1.168-7.185 0z" fill="url(#SVGID_00000120519768139608155640000000511213794727161231_)"/><path d="m200.553.876-196.344 101.855c-2.586 1.342-4.209 4.012-4.209 6.925v26.43c0 5.85 6.201 9.619 11.394 6.925l189.159-98.128c2.253-1.169 4.933-1.169 7.185 0l189.159 98.128c5.193 2.694 11.394-1.075 11.394-6.925v-26.43c0-2.913-1.623-5.584-4.209-6.925l-196.344-101.855c-2.253-1.168-4.933-1.168-7.185 0z" fill="url(#SVGID_00000029028447269485225990000011242953726179331740_)"/><path d="m200.553 20.508-200.553 104.038v11.54c0 5.85 6.201 9.619 11.394 6.925l189.159-98.128c2.252-1.168 4.933-1.168 7.185 0l189.159 98.128c5.193 2.694 11.394-1.075 11.394-6.925v-11.54l-200.553-104.038c-2.253-1.168-4.933-1.168-7.185 0z" fill="url(#SVGID_00000060720982069050099660000012533226127755296415_)"/><path d="m404.082 102.731-94.495-49.02v44.008l87.31 45.293c5.193 2.694 11.394-1.075 11.394-6.925v-26.43c0-2.914-1.624-5.584-4.209-6.926z" fill="url(#SVGID_00000163061983554250495220000006501997185346416571_)"/><g><path d="m396.896 143.012c5.193 2.694 11.394-1.075 11.394-6.925v-26.43c0-2.913-1.623-5.584-4.209-6.925l-48.689-25.258h-84.832z" fill="url(#SVGID_00000173139636316927393290000004880858820467721380_)"/><path d="m11.394 143.012 126.337-65.538h-84.833l-48.689 25.257c-2.586 1.342-4.209 4.012-4.209 6.925v26.43c0 5.851 6.201 9.62 11.394 6.926z" fill="url(#SVGID_00000024001849636998508880000003914239894542867878_)"/></g></g></g><g><path d="m320.117 205.55v194.448h-231.944v-194.448c0-8.15 6.603-14.745 14.745-14.745h202.455c8.142 0 14.744 6.595 14.744 14.745z" fill="url(#SVGID_00000096060156716151491860000007247790664002597298_)"/><path d="m282.755 329.324-31.465-31.465v69.537h31.465z" fill="url(#SVGID_00000088853072414093190360000010012549056617528473_)"/><path d="m209.903 190.805v209.193h-121.73v-194.448c0-8.15 6.603-14.745 14.745-14.745z" fill="url(#SVGID_00000130636011690419372140000013461117162789939865_)"/><path d="m305.369 190.802h-202.448c-8.143 0-14.745 6.601-14.745 14.745v79.622h231.937v-79.622c.001-8.144-6.6-14.745-14.744-14.745z" fill="url(#SVGID_00000067923841034586330730000017225840390139320193_)"/></g></g><g><g><g><path d="m254.128 304.52v105.89c0 4.296-2.957 8.029-7.138 9.015l-91.305 21.539c-1.399.328-2.852.328-4.251 0l-91.305-21.539c-4.181-.986-7.138-4.719-7.138-9.015v-105.89c0-2.584 1.07-4.958 2.827-6.66h195.472v-.01c1.767 1.702 2.838 4.081 2.838 6.67z" fill="url(#SVGID_00000049221315939217520520000017446943201554405801_)"/><path d="m251.29 297.859h-56.523v133.885l52.222-12.32c4.181-.986 7.138-4.719 7.138-9.015v-105.889c0-2.589-1.07-4.968-2.837-6.67z" fill="url(#SVGID_00000034068034994568494220000011984448480705025465_)"/><path d="m153.559 297.859v143.349c-.712 0-1.424-.08-2.126-.244l-91.305-21.539c-4.181-.986-7.138-4.719-7.138-9.015v-105.89c0-2.584 1.07-4.958 2.827-6.66h97.742z" fill="url(#SVGID_00000076604837448039871130000007218049278331055755_)"/><path d="m254.125 304.518v105.889c0 4.299-2.952 8.033-7.132 9.019l-91.309 21.535c-.697.164-1.407.243-2.123.243v-143.345h97.731c1.768 1.696 2.833 4.069 2.833 6.659z" fill="url(#SVGID_00000005266603728382094040000002420100054305750163_)"/><path d="m153.559 375.923v65.285c-.712 0-1.424-.08-2.126-.244l-91.305-21.539c-4.181-.986-7.138-4.719-7.138-9.015v-56.982l90.304 21.3c3.375.797 6.82 1.195 10.265 1.195z" fill="url(#SVGID_00000072263497740163135470000008176232333358073016_)"/><path d="m153.559 375.923v65.285c.712 0 1.424-.08 2.126-.244l91.305-21.539c4.181-.986 7.138-4.719 7.138-9.015v-56.982l-90.304 21.3c-3.376.797-6.82 1.195-10.265 1.195z" fill="url(#SVGID_00000055709308809774505900000009603504343506928796_)"/><path d="m251.29 297.859-92.38 21.793c-3.519.831-7.183.831-10.703 0l-92.38-21.793c1.17-1.125 2.633-1.961 4.296-2.355l91.31-21.539c1.399-.329 2.852-.329 4.251 0l34.094 8.044v4.107h17.418l39.798 9.388c1.663.394 3.127 1.23 4.296 2.355z" fill="url(#SVGID_00000146496639357970597230000010527514189407035276_)"/><path d="m189.778 282.009v4.107l-91.867 21.674-42.083-9.931c1.17-1.125 2.633-1.961 4.296-2.355l91.31-21.539c1.399-.329 2.852-.329 4.251 0z" fill="url(#SVGID_00000038402026461654890780000003561797552602119577_)"/></g><g><path d="m189.778 282.004-98.646 23.274c-1.129.266-1.926 1.274-1.926 2.433l-.006 30.941c0 .674.464 1.26 1.12 1.415l14.516 3.422c.912.215 1.787-.477 1.787-1.415v-30.428c0-1.058.728-1.977 1.757-2.22l98.815-23.312z" fill="url(#SVGID_00000032622179392418807730000011890839671708434583_)"/><path d="m136.136 302.882-27.757 6.546c-.408.095-.767.304-1.055.577l-17.348-4.092c.314-.304.707-.528 1.155-.637l27.578-6.506z" fill="url(#SVGID_00000080188394861315695420000014607380263179871678_)"/><path d="m89.976 305.913 17.343 4.092c-.433.418-.697 1.006-.697 1.643v30.425c0 .941-.876 1.633-1.787 1.414l-14.516-3.42c-.657-.154-1.12-.742-1.12-1.414l.005-30.943c0-.702.294-1.344.772-1.797z" fill="url(#SVGID_00000024718281737818784340000013364475811260642968_)"/><path d="m89.202 323.755-.002 14.898c0 .672.463 1.259 1.12 1.414l14.516 3.42c.911.219 1.787-.473 1.787-1.414v-18.318z" fill="url(#SVGID_00000138535317562362906330000006020626871799606155_)"/></g><g><path d="m64.003 406.147 40.023 9.442c1.326.313 2.596-.693 2.596-2.055v-21.981c0-.979-.673-1.83-1.627-2.055l-40.023-9.44c-1.326-.313-2.596.693-2.596 2.055v21.979c0 .98.674 1.831 1.627 2.055z" fill="url(#SVGID_00000159469794288757299320000011175586755194070155_)"/><path d="m62.376 388.344v15.748c0 .979.673 1.83 1.627 2.055l40.023 9.442c1.326.313 2.596-.693 2.596-2.055v-14.752z" fill="url(#SVGID_00000027567448412293151860000009052936677723640988_)"/><path d="m104.996 389.499-20.325-4.794v26.319l19.355 4.566c1.326.313 2.596-.693 2.596-2.055v-21.981c0-.98-.673-1.831-1.626-2.055z" fill="url(#SVGID_00000057862468141536204350000007697524420621665667_)"/></g></g><g><g><path d="m322.99 375.309v105.89c0 4.296-2.957 8.029-7.138 9.015l-91.305 21.539c-1.399.329-2.852.329-4.251 0l-91.305-21.539c-4.181-.986-7.138-4.719-7.138-9.015v-105.89c0-2.584 1.07-4.958 2.827-6.66h195.473v-.01c1.767 1.702 2.837 4.081 2.837 6.67z" fill="url(#SVGID_00000003095184346598313400000012343228398944115373_)"/><path d="m320.153 368.649h-56.523v133.885l52.222-12.32c4.181-.986 7.138-4.719 7.138-9.015v-105.89c0-2.589-1.07-4.968-2.837-6.67z" fill="url(#SVGID_00000182513888435607582040000003495003682127924353_)"/><path d="m222.421 368.649v143.349c-.712 0-1.424-.08-2.126-.244l-91.305-21.539c-4.181-.986-7.138-4.719-7.138-9.015v-105.89c0-2.584 1.07-4.958 2.827-6.66h97.742z" fill="url(#SVGID_00000176007466207961337320000015569623154924597175_)"/><path d="m222.421 446.712v65.285c-.712 0-1.424-.08-2.126-.244l-91.305-21.539c-4.181-.986-7.138-4.719-7.138-9.015v-56.982l90.304 21.3c3.376.797 6.821 1.195 10.265 1.195z" fill="url(#SVGID_00000177471739266461690610000007667550072452834484_)"/><path d="m222.421 446.712v65.285c.712 0 1.424-.08 2.126-.244l91.305-21.539c4.181-.986 7.138-4.719 7.138-9.015v-56.982l-90.304 21.3c-3.375.797-6.82 1.195-10.265 1.195z" fill="url(#SVGID_00000023965593647981302020000015499251233104217499_)"/><path d="m320.153 368.649-92.38 21.793c-3.519.831-7.183.831-10.703 0l-92.38-21.793c1.17-1.125 2.633-1.961 4.296-2.355l91.31-21.539c1.399-.329 2.852-.329 4.251 0l34.094 8.044v4.107h17.418l39.798 9.388c1.662.393 3.126 1.23 4.296 2.355z" fill="url(#SVGID_00000022543153710832293730000006892658065661430680_)"/><path d="m258.641 352.799v4.107l-91.867 21.674-42.083-9.931c1.17-1.125 2.633-1.961 4.296-2.355l91.31-21.539c1.399-.329 2.852-.329 4.251 0z" fill="url(#SVGID_00000166643067592299787620000017999391847988526480_)"/></g><g><path d="m258.641 352.794-98.646 23.274c-1.129.266-1.926 1.274-1.926 2.433l-.007 30.941c0 .674.464 1.26 1.12 1.415l14.516 3.422c.912.215 1.787-.477 1.787-1.415v-30.428c0-1.058.727-1.977 1.757-2.22l98.815-23.311z" fill="url(#SVGID_00000077302611470896959020000007121028040309878434_)"/><path d="m204.999 373.671-27.757 6.546c-.408.095-.767.304-1.055.577l-17.348-4.092c.314-.304.707-.528 1.155-.637l27.578-6.506z" fill="url(#SVGID_00000095334117849762214040000004048266055292027037_)"/><path d="m158.838 376.703 17.343 4.092c-.433.418-.697 1.006-.697 1.643v30.425c0 .941-.876 1.633-1.787 1.414l-14.516-3.42c-.657-.154-1.12-.742-1.12-1.414l.005-30.943c.001-.702.294-1.344.772-1.797z" fill="url(#SVGID_00000121994040159425074100000003127506675383662244_)"/><path d="m158.064 394.545-.002 14.898c0 .672.463 1.259 1.12 1.414l14.516 3.42c.911.219 1.787-.473 1.787-1.414v-18.318z" fill="url(#SVGID_00000061429800332593318680000006296380029147908271_)"/></g><g><path d="m132.865 476.937 40.023 9.442c1.326.313 2.596-.693 2.596-2.055v-21.981c0-.979-.673-1.83-1.627-2.055l-40.023-9.44c-1.326-.313-2.596.693-2.596 2.055v21.979c.001.979.674 1.83 1.627 2.055z" fill="url(#SVGID_00000031885990847952657570000003944310638521928887_)"/><path d="m131.239 459.134v15.748c0 .979.673 1.83 1.627 2.055l40.023 9.442c1.326.313 2.596-.693 2.596-2.055v-14.752z" fill="url(#SVGID_00000074405273283979844270000003414994933536505502_)"/><path d="m173.858 460.288-20.325-4.794v26.319l19.355 4.566c1.326.313 2.596-.693 2.596-2.055v-21.981c.001-.979-.673-1.83-1.626-2.055z" fill="url(#SVGID_00000039824638182671565790000005999054252066695861_)"/></g></g></g><g><g><path d="m500.941 512h-218.147c-6.108 0-11.059-4.951-11.059-11.059v-266.263c0-6.108 4.951-11.059 11.059-11.059h218.147c6.108 0 11.059 4.951 11.059 11.059v266.262c0 6.109-4.951 11.06-11.059 11.06z" fill="url(#SVGID_00000170241846561651450530000002997136253765727373_)"/></g><path d="m500.941 223.619h-107.708v288.381h107.708c6.108 0 11.059-4.951 11.059-11.059v-266.263c0-6.108-4.951-11.059-11.059-11.059z" fill="url(#SVGID_00000087409768274791664480000017901417859264274102_)"/><path d="m500.941 223.619h-107.708v75.483h118.767v-64.423c0-6.109-4.951-11.06-11.059-11.06z" fill="url(#SVGID_00000110458093924817222190000016126633862395626128_)"/><path d="m500.941 512c6.108 0 11.059-4.951 11.059-11.059v-235.846l-23.508-23.508h-30.14v270.413z" fill="url(#SVGID_00000161601724227732029840000004341215012986405290_)"/><path d="m271.735 322.329v178.612c0 6.108 4.951 11.059 11.059 11.059h218.147c6.108 0 11.059-4.951 11.059-11.059v-178.612z" fill="url(#SVGID_00000178169864666358962400000002529425925946743477_)"/><g><path d="m483.025 494.534h-182.315c-4.4 0-7.968-3.567-7.968-7.968v-239.316c0-4.4 3.567-7.968 7.968-7.968h182.316c4.4 0 7.968 3.567 7.968 7.968v239.316c-.001 4.4-3.568 7.968-7.969 7.968z" fill="url(#SVGID_00000163770660055759042550000012329914507459260578_)"/></g><path d="m483.025 239.283h-59.067v13.559c0 7.859-6.371 14.23-14.23 14.23h-49.389l-1.007 1.007 131.661 131.661v-152.49c0-4.4-3.567-7.967-7.968-7.967z" fill="url(#SVGID_00000115508241741628272730000015623412080474479494_)"/><path d="m483.025 239.283h-50.389v255.251h50.389c4.4 0 7.968-3.567 7.968-7.968v-239.316c0-4.4-3.567-7.967-7.968-7.967z" fill="url(#SVGID_00000014626388660331106330000014883817967404462509_)"/><path d="m292.742 428.095v58.471c0 4.4 3.567 7.968 7.968 7.968h182.316c4.4 0 7.968-3.567 7.968-7.968v-58.471z" fill="url(#SVGID_00000170963101753170795820000010601995850645168311_)"/><path d="m359.776 238.058h64.182v29.015h-64.182z" fill="url(#SVGID_00000170969732843050496160000017908640868195937168_)"/><path d="m359.776 238.058h64.182v29.015h-64.182z" fill="url(#SVGID_00000041262161533653684520000006154085697603846831_)"/><g><path d="m412.26 273.026h-40.786c-9.458 0-17.153-7.694-17.153-17.152v-22.061h75.091v22.061c.001 9.457-7.694 17.152-17.152 17.152zm-49.211-30.486v13.333c0 4.646 3.78 8.425 8.425 8.425h40.786c4.646 0 8.425-3.779 8.425-8.425v-13.333z" fill="url(#SVGID_00000013189778980966101540000015079761677524463495_)"/></g><g><path d="m412.26 273.026h-40.786c-9.458 0-17.153-7.694-17.153-17.152v-22.061h75.091v22.061c.001 9.457-7.694 17.152-17.152 17.152zm-49.211-30.486v13.333c0 4.646 3.78 8.425 8.425 8.425h40.786c4.646 0 8.425-3.779 8.425-8.425v-13.333z" fill="url(#SVGID_00000182500538175702720320000001669724961322871184_)"/></g><g><path d="m412.26 273.026h-40.786c-9.458 0-17.153-7.694-17.153-17.152v-22.061h75.091v22.061c.001 9.457-7.694 17.152-17.152 17.152zm-49.211-30.486v13.333c0 4.646 3.78 8.425 8.425 8.425h40.786c4.646 0 8.425-3.779 8.425-8.425v-13.333z" fill="url(#SVGID_00000062151307636395092500000015153722017890127006_)"/></g><path d="m391.205 242.54h29.48v13.333c0 4.646-3.779 8.425-8.425 8.425h-21.056v8.727h21.056c9.458 0 17.152-7.694 17.152-17.152v-22.061h-38.208v8.728z" fill="url(#SVGID_00000163058104974798710010000016273644469445331359_)"/><g><g><path d="m434.859 232.102c0 5.299-1.03 10.101-2.706 13.57-1.664 3.469-3.974 5.621-6.522 5.621h-67.527c-5.097 0-9.228-8.593-9.228-19.192 0-4.538.762-8.769 2.06-12.092 1.297-3.33 3.13-5.753 5.266-6.69l2.41-1.057c.794-.349 1.659-.35 2.454-.004 20.312 8.908 41.292 8.908 61.604 0 .795-.346 1.66-.345 2.454.004l2.41 1.057c4.27 1.867 7.325 9.707 7.325 18.783z" fill="url(#SVGID_00000088109722543575207110000013505341055375945871_)"/></g><g><path d="m416.102 234.115c0 2.987-.581 5.694-1.525 7.65-.938 1.956-2.24 3.169-3.677 3.169h-38.065c-2.873 0-5.202-4.844-5.202-10.818 0-2.558.43-4.943 1.161-6.816.731-1.877 1.764-3.243 2.968-3.771l1.358-.596c.448-.197.935-.197 1.384-.002 11.45 5.021 23.276 5.021 34.726 0 .448-.195.936-.194 1.384.002l1.358.596c2.408 1.051 4.13 5.47 4.13 10.586z" fill="url(#SVGID_00000049222398855355056780000010982261146812629940_)"/></g><path d="m348.876 232.102c0 10.599 4.131 19.192 9.228 19.192h67.527c2.548 0 4.858-2.152 6.522-5.621 1.676-3.469 2.706-8.271 2.706-13.57 0-1.196-.054-2.369-.156-3.511h-85.669c-.102 1.141-.158 2.314-.158 3.51z" fill="url(#SVGID_00000179637399472139746460000017659644685386022539_)"/><path d="m427.534 213.32-2.41-1.057c-.794-.349-1.659-.35-2.454-.004-11.295 4.954-22.797 7.148-34.276 6.592v32.442h37.237c2.548 0 4.858-2.152 6.522-5.621 1.676-3.469 2.706-8.271 2.706-13.57 0-9.076-3.055-16.916-7.325-18.782z" fill="url(#SVGID_00000103980762584595409180000000724871243993029549_)"/></g><g><g><g><path d="m463.949 304.325h-95.433c-2.062 0-3.733-1.671-3.733-3.733 0-2.062 1.671-3.733 3.733-3.733h95.433c2.062 0 3.733 1.671 3.733 3.733 0 2.061-1.672 3.733-3.733 3.733z" fill="url(#SVGID_00000022520964772077313870000003240992222865492369_)"/></g></g><g><path d="m339.28 314.072h-19.494c-2.062 0-3.733-1.671-3.733-3.733v-19.494c0-2.062 1.671-3.733 3.733-3.733h19.494c2.062 0 3.733 1.671 3.733 3.733v19.494c0 2.062-1.671 3.733-3.733 3.733z" fill="url(#SVGID_00000001644237054678836760000006912038509822138268_)"/><path d="m339.28 314.072h-19.494c-2.062 0-3.733-1.671-3.733-3.733v-19.494c0-2.062 1.671-3.733 3.733-3.733h19.494c2.062 0 3.733 1.671 3.733 3.733v19.494c0 2.062-1.671 3.733-3.733 3.733z" fill="url(#SVGID_00000052819089848317378540000010238488282706860174_)"/><path d="m339.28 314.072h-19.494c-2.062 0-3.733-1.671-3.733-3.733v-19.494c0-2.062 1.671-3.733 3.733-3.733h19.494c2.062 0 3.733 1.671 3.733 3.733v19.494c0 2.062-1.671 3.733-3.733 3.733z" fill="url(#SVGID_00000090280336496843385640000009994128440040598428_)"/></g><g><g><path d="m332.37 309.885c-1.735 0-3.366-.676-4.593-1.903l-7.191-7.191c-1.704-1.705-1.704-4.467 0-6.172 1.704-1.703 4.467-1.703 6.171 0l5.613 5.613 18.019-18.019c1.704-1.703 4.467-1.703 6.171 0 1.704 1.705 1.704 4.467 0 6.172l-19.598 19.598c-1.226 1.226-2.857 1.902-4.592 1.902z" fill="url(#SVGID_00000021096521759854641240000016037563969318247301_)"/></g><g><path d="m332.37 309.885c-1.735 0-3.366-.676-4.593-1.903l-7.191-7.191c-1.704-1.705-1.704-4.467 0-6.172 1.704-1.703 4.467-1.703 6.171 0l5.613 5.613 18.019-18.019c1.704-1.703 4.467-1.703 6.171 0 1.704 1.705 1.704 4.467 0 6.172l-19.598 19.598c-1.226 1.226-2.857 1.902-4.592 1.902z" fill="url(#SVGID_00000091005819447850832190000010810278780934346128_)"/></g></g></g><g><g><g><path d="m463.949 342.069h-95.433c-2.062 0-3.733-1.671-3.733-3.733 0-2.062 1.671-3.733 3.733-3.733h95.433c2.062 0 3.733 1.671 3.733 3.733 0 2.062-1.672 3.733-3.733 3.733z" fill="url(#SVGID_00000114075260037288481240000013261027173340778652_)"/></g></g><g><path d="m339.28 351.816h-19.494c-2.062 0-3.733-1.671-3.733-3.733v-19.494c0-2.062 1.671-3.733 3.733-3.733h19.494c2.062 0 3.733 1.671 3.733 3.733v19.494c0 2.062-1.671 3.733-3.733 3.733z" fill="url(#SVGID_00000007427981841291815170000011248640704505026457_)"/><path d="m339.28 351.816h-19.494c-2.062 0-3.733-1.671-3.733-3.733v-19.494c0-2.062 1.671-3.733 3.733-3.733h19.494c2.062 0 3.733 1.671 3.733 3.733v19.494c0 2.062-1.671 3.733-3.733 3.733z" fill="url(#SVGID_00000161606200726921236250000012555790096700281020_)"/><path d="m339.28 351.816h-19.494c-2.062 0-3.733-1.671-3.733-3.733v-19.494c0-2.062 1.671-3.733 3.733-3.733h19.494c2.062 0 3.733 1.671 3.733 3.733v19.494c0 2.062-1.671 3.733-3.733 3.733z" fill="url(#SVGID_00000118378422378071388060000006999949400591755432_)"/></g><g><g><path d="m332.37 347.629c-1.735 0-3.366-.676-4.593-1.903l-7.191-7.191c-1.704-1.705-1.704-4.467 0-6.172 1.704-1.703 4.467-1.703 6.171 0l5.613 5.613 18.019-18.019c1.704-1.703 4.467-1.703 6.171 0 1.704 1.705 1.704 4.467 0 6.172l-19.598 19.598c-1.226 1.226-2.857 1.902-4.592 1.902z" fill="url(#SVGID_00000058553724658032623100000014784671374943136949_)"/></g><g><path d="m332.37 347.629c-1.735 0-3.366-.676-4.593-1.903l-7.191-7.191c-1.704-1.705-1.704-4.467 0-6.172 1.704-1.703 4.467-1.703 6.171 0l5.613 5.613 18.019-18.019c1.704-1.703 4.467-1.703 6.171 0 1.704 1.705 1.704 4.467 0 6.172l-19.598 19.598c-1.226 1.226-2.857 1.902-4.592 1.902z" fill="url(#SVGID_00000078007074328252904340000016119635128540323258_)"/></g></g></g><g><g><g><path d="m463.949 379.813h-95.433c-2.062 0-3.733-1.671-3.733-3.733 0-2.062 1.671-3.733 3.733-3.733h95.433c2.062 0 3.733 1.671 3.733 3.733 0 2.062-1.672 3.733-3.733 3.733z" fill="url(#SVGID_00000007405850321581386880000013946509165264578471_)"/></g></g><g><path d="m339.28 389.56h-19.494c-2.062 0-3.733-1.671-3.733-3.733v-19.494c0-2.062 1.671-3.733 3.733-3.733h19.494c2.062 0 3.733 1.671 3.733 3.733v19.494c0 2.062-1.671 3.733-3.733 3.733z" fill="url(#SVGID_00000031907176283674535140000001110928250890973577_)"/><path d="m339.28 389.56h-19.494c-2.062 0-3.733-1.671-3.733-3.733v-19.494c0-2.062 1.671-3.733 3.733-3.733h19.494c2.062 0 3.733 1.671 3.733 3.733v19.494c0 2.062-1.671 3.733-3.733 3.733z" fill="url(#SVGID_00000142153857953539026700000008841991604372729249_)"/><path d="m339.28 389.56h-19.494c-2.062 0-3.733-1.671-3.733-3.733v-19.494c0-2.062 1.671-3.733 3.733-3.733h19.494c2.062 0 3.733 1.671 3.733 3.733v19.494c0 2.062-1.671 3.733-3.733 3.733z" fill="url(#SVGID_00000081610561468812759550000003458482788203963815_)"/></g><g><g><path d="m332.37 385.373c-1.735 0-3.366-.676-4.593-1.903l-7.191-7.191c-1.704-1.705-1.704-4.467 0-6.172 1.704-1.703 4.467-1.703 6.171 0l5.613 5.613 18.019-18.019c1.704-1.703 4.467-1.703 6.171 0 1.704 1.705 1.704 4.467 0 6.172l-19.598 19.598c-1.226 1.226-2.857 1.902-4.592 1.902z" fill="url(#SVGID_00000104664004143909523960000008618074497280394643_)"/></g><g><path d="m332.37 385.373c-1.735 0-3.366-.676-4.593-1.903l-7.191-7.191c-1.704-1.705-1.704-4.467 0-6.172 1.704-1.703 4.467-1.703 6.171 0l5.613 5.613 18.019-18.019c1.704-1.703 4.467-1.703 6.171 0 1.704 1.705 1.704 4.467 0 6.172l-19.598 19.598c-1.226 1.226-2.857 1.902-4.592 1.902z" fill="url(#SVGID_00000147911581692458142260000012334301987812483736_)"/></g></g></g><g><g><g><path d="m463.949 417.595h-95.433c-2.062 0-3.733-1.671-3.733-3.733 0-2.062 1.671-3.733 3.733-3.733h95.433c2.062 0 3.733 1.671 3.733 3.733 0 2.062-1.672 3.733-3.733 3.733z" fill="url(#SVGID_00000024684339244788544760000004957321424544301465_)"/></g></g><g><path d="m339.28 427.342h-19.494c-2.062 0-3.733-1.671-3.733-3.733v-19.494c0-2.062 1.671-3.733 3.733-3.733h19.494c2.062 0 3.733 1.671 3.733 3.733v19.494c0 2.062-1.671 3.733-3.733 3.733z" fill="url(#SVGID_00000073692738633521004390000013877087404820434068_)"/><path d="m339.28 427.342h-19.494c-2.062 0-3.733-1.671-3.733-3.733v-19.494c0-2.062 1.671-3.733 3.733-3.733h19.494c2.062 0 3.733 1.671 3.733 3.733v19.494c0 2.062-1.671 3.733-3.733 3.733z" fill="url(#SVGID_00000068676839682972718490000000527668540702126771_)"/><path d="m339.28 427.342h-19.494c-2.062 0-3.733-1.671-3.733-3.733v-19.494c0-2.062 1.671-3.733 3.733-3.733h19.494c2.062 0 3.733 1.671 3.733 3.733v19.494c0 2.062-1.671 3.733-3.733 3.733z" fill="url(#SVGID_00000062174920239247368150000005956083078236531330_)"/></g></g><g><g><g><path d="m463.949 455.377h-95.433c-2.062 0-3.733-1.671-3.733-3.733 0-2.062 1.671-3.733 3.733-3.733h95.433c2.062 0 3.733 1.671 3.733 3.733 0 2.062-1.672 3.733-3.733 3.733z" fill="url(#SVGID_00000133517713076430914890000008207244354354362764_)"/></g></g><g><path d="m339.28 465.124h-19.494c-2.062 0-3.733-1.671-3.733-3.733v-19.494c0-2.062 1.671-3.733 3.733-3.733h19.494c2.062 0 3.733 1.671 3.733 3.733v19.494c0 2.062-1.671 3.733-3.733 3.733z" fill="url(#SVGID_00000104685294648031034650000012178115901155196577_)"/><path d="m339.28 465.124h-19.494c-2.062 0-3.733-1.671-3.733-3.733v-19.494c0-2.062 1.671-3.733 3.733-3.733h19.494c2.062 0 3.733 1.671 3.733 3.733v19.494c0 2.062-1.671 3.733-3.733 3.733z" fill="url(#SVGID_00000179624138705986476430000013526218785803487889_)"/><path d="m339.28 465.124h-19.494c-2.062 0-3.733-1.671-3.733-3.733v-19.494c0-2.062 1.671-3.733 3.733-3.733h19.494c2.062 0 3.733 1.671 3.733 3.733v19.494c0 2.062-1.671 3.733-3.733 3.733z" fill="url(#SVGID_00000111875049741512648340000008209332260956142219_)"/></g></g></g></g><g/><g/><g/><g/><g/><g/><g/><g/><g/><g/><g/><g/><g/><g/><g/></svg>