<svg id="Capa_1" enable-background="new 0 0 512 512" height="512" viewBox="0 0 512 512" width="512" xmlns="http://www.w3.org/2000/svg"><g><g><g><g><g><g><g><path d="m251.626 432.804h-107.182c-3.626 0-6.565-2.939-6.565-6.565v-107.181c0-3.626 2.939-6.565 6.565-6.565h107.182c3.626 0 6.565 2.939 6.565 6.565v107.182c0 3.625-2.94 6.564-6.565 6.564z" fill="#ffc751"/><path d="m258.188 338.866v87.369c0 3.628-2.935 6.574-6.562 6.574h-91.239c48.455-8.932 86.987-46.169 97.801-93.943z" fill="#ffaf40"/><g><path d="m241.15 335.906v73.484c0 3.52-2.853 6.373-6.373 6.373h-73.484c-3.52 0-6.373-2.853-6.373-6.373v-73.484c0-3.52 2.853-6.373 6.373-6.373h73.484c3.52 0 6.373 2.853 6.373 6.373z" fill="#b55434"/><path d="m241.15 335.906v73.484c0 3.52-2.853 6.373-6.373 6.373h-44.342c24.286-15.152 40.446-42.11 40.446-72.842 0-4.554-.355-9.026-1.039-13.387h4.934c3.521-.001 6.374 2.852 6.374 6.372z" fill="#7f392c"/><path d="m229.843 329.533h-68.549c-3.519 0-6.373 2.853-6.373 6.373v2.124h51.932c5.297 0 9.529 4.448 9.219 9.735-.002.038-.005.075-.007.109-2.288 33.27-27.451 60.251-59.878 65.326v.002c1.162 1.555 3.016 2.56 5.107 2.56h29.142c24.286-15.152 40.446-42.11 40.446-72.842-.001-4.554-.355-9.026-1.039-13.387z" fill="#a1412b"/><g><path d="m241.145 335.908v10.213l-6.181 6.181-57.26 57.271-6.193 6.193h-10.213c-3.524 0-6.378-2.854-6.378-6.378v-10.225l69.634-69.634h10.225c3.512.002 6.366 2.855 6.366 6.379z" fill="#ff8f33"/></g><path d="m234.964 352.303-57.26 57.271c-6.978-3.847-12.755-9.613-16.603-16.591l57.271-57.271c6.979 3.859 12.745 9.624 16.592 16.591z" fill="#ffaf40"/></g></g><path d="m197.812 329.531h-34.372c-4.705 0-8.519-3.814-8.519-8.519 0-4.705 3.814-8.519 8.519-8.519h34.373c4.705 0 8.519 3.814 8.519 8.519-.001 4.705-3.815 8.519-8.52 8.519z" fill="#fff370"/></g></g><g><g><g><path d="m372.147 310.502v113.043c0 5.116-4.147 9.263-9.263 9.263h-139.56c-5.116 0-9.263-4.147-9.263-9.263v-113.043c0-5.116 4.147-9.263 9.263-9.263h139.56c5.117.001 9.263 4.147 9.263 9.263z" fill="#ff8f33"/><path d="m359.278 301.24c-1.488 67.652-56.796 122.041-124.807 122.041-6.95 0-13.768-.568-20.409-1.661v-111.118c0-5.116 4.147-9.263 9.263-9.263h135.953z" fill="#ffaf40"/><path d="m339.798 301.24c-1.482 56.898-48.074 102.567-105.327 102.567-6.984 0-13.808-.679-20.409-1.976v-91.328c0-5.116 4.147-9.263 9.263-9.263z" fill="#ffc751"/><g><g><g><path d="m214.062 329.588v35.059c0 6.38 5.171 11.551 11.551 11.551s11.551-5.171 11.551-11.551v-35.059c0-6.38-5.171-11.551-11.551-11.551-6.379 0-11.551 5.172-11.551 11.551z" fill="#fff370"/></g></g></g></g><g><g><path d="m357.933 411.72-11.3-16.682c-1.917-2.83-6.085-2.83-8.002 0l-11.3 16.682c-2.174 3.209.125 7.543 4.001 7.543h22.599c3.877 0 6.176-4.334 4.002-7.543z" fill="#79ff79"/><path d="m353.931 419.262h-8.96c1.237-2.629 1.928-5.567 1.928-8.665 0-6.539-3.074-12.357-7.853-16.093 2.054-2.281 5.799-2.107 7.587.532l11.299 16.682c2.175 3.21-.125 7.544-4.001 7.544z" fill="#29e088"/></g></g><path d="m313.125 301.24v34.624c0 5.116-4.15 9.263-9.263 9.263h-21.514c-4.709 0-8.602-3.517-9.183-8.071-.056-.389-.08-.787-.08-1.192v-34.624z" fill="#e0006b"/><path d="m302.278 311.744c0 14.116-11.443 25.559-25.559 25.559-1.207 0-2.393-.083-3.554-.247-.056-.389-.08-.787-.08-1.192v-34.624h26.942c1.445 3.204 2.251 6.758 2.251 10.504z" fill="#fe2582"/><g><g><path d="m289.042 301.24v15.455c0 4.408-3.57 7.979-7.979 7.979-4.404 0-7.979-3.57-7.979-7.979v-15.455z" fill="#fc70b2"/></g></g></g></g></g><path d="m412.301 462.936h-312.602c-3.847 0-6.966-3.119-6.966-6.966v-16.194c0-3.847 3.119-6.966 6.966-6.966h312.601c3.847 0 6.966 3.119 6.966 6.966v16.194c.001 3.847-3.118 6.966-6.965 6.966z" fill="#2b6d6c"/><g fill="#009887"><path d="m294.086 432.808c-6.582 0-11.917 5.336-11.917 11.917 0 6.582 5.336 11.917 11.917 11.917 6.582 0 11.917-5.336 11.917-11.917 0-6.581-5.336-11.917-11.917-11.917z"/><path d="m253.781 432.808h-77.257c-6.582 0-11.917 5.336-11.917 11.917 0 6.582 5.336 11.917 11.917 11.917h77.257c6.582 0 11.917-5.336 11.917-11.917 0-6.581-5.335-11.917-11.917-11.917z"/></g></g></g><g><g><g><g><g><g><g><path d="m264.744 217.791h-122.758c-4.153 0-7.519-3.366-7.519-7.519v-122.757c0-4.153 3.366-7.519 7.519-7.519h122.757c4.153 0 7.519 3.366 7.519 7.519v122.757c.001 4.153-3.366 7.519-7.518 7.519z" fill="#ffc751"/><path d="m272.259 110.201v100.065c0 4.155-3.361 7.529-7.516 7.529h-104.498c55.498-10.228 99.629-52.877 112.014-107.594z" fill="#ffaf40"/><g><path d="m252.745 106.811v84.162c0 4.031-3.267 7.299-7.299 7.299h-84.162c-4.031 0-7.299-3.267-7.299-7.299v-84.162c0-4.031 3.267-7.299 7.299-7.299h84.162c4.032 0 7.299 3.268 7.299 7.299z" fill="#b55434"/><path d="m252.745 106.811v84.162c0 4.031-3.267 7.299-7.299 7.299h-50.786c27.815-17.354 46.324-48.229 46.324-83.428 0-5.216-.406-10.337-1.19-15.332h5.652c4.032 0 7.299 3.268 7.299 7.299z" fill="#7f392c"/><path d="m239.795 99.512h-78.511c-4.031 0-7.299 3.268-7.299 7.299v2.433h59.479c6.066 0 10.914 5.094 10.559 11.15-.003.044-.005.085-.008.124-2.621 38.105-31.44 69.007-68.58 74.82v.002c1.331 1.781 3.455 2.932 5.849 2.932h33.376c27.815-17.354 46.324-48.229 46.324-83.428.001-5.216-.406-10.337-1.189-15.332z" fill="#a1412b"/><g><path d="m252.74 106.814v11.698l-7.079 7.079-65.581 65.594-7.093 7.093h-11.698c-4.036 0-7.304-3.269-7.304-7.304v-11.711l79.753-79.753h11.711c4.022-.001 7.291 3.268 7.291 7.304z" fill="#ff8f33"/></g><path d="m245.66 125.591-65.581 65.594c-7.992-4.406-14.609-11.01-19.015-19.002l65.594-65.594c7.993 4.419 14.596 11.022 19.002 19.002z" fill="#ffaf40"/></g></g><path d="m203.11 99.509h-39.368c-5.388 0-9.757-4.368-9.757-9.757 0-5.388 4.368-9.757 9.757-9.757h39.368c5.388 0 9.757 4.368 9.757 9.757 0 5.389-4.368 9.757-9.757 9.757z" fill="#fff370"/></g></g></g><g><g><g><g><path d="m370.014 217.791h-122.758c-4.153 0-7.519-3.366-7.519-7.519v-122.757c0-4.153 3.366-7.519 7.519-7.519h122.757c4.153 0 7.519 3.366 7.519 7.519v122.757c.001 4.153-3.366 7.519-7.518 7.519z" fill="#ffc751"/><path d="m377.529 110.201v100.065c0 4.155-3.361 7.529-7.516 7.529h-104.498c55.498-10.228 99.628-52.877 112.014-107.594z" fill="#ffaf40"/><g><path d="m358.015 106.811v84.162c0 4.031-3.267 7.299-7.299 7.299h-84.162c-4.031 0-7.299-3.267-7.299-7.299v-84.162c0-4.031 3.267-7.299 7.299-7.299h84.162c4.032 0 7.299 3.268 7.299 7.299z" fill="#b55434"/><path d="m358.015 106.811v84.162c0 4.031-3.267 7.299-7.299 7.299h-50.786c27.815-17.354 46.324-48.229 46.324-83.428 0-5.216-.406-10.337-1.19-15.332h5.652c4.032 0 7.299 3.268 7.299 7.299z" fill="#7f392c"/><path d="m345.065 99.512h-78.511c-4.031 0-7.299 3.268-7.299 7.299v2.433h59.479c6.066 0 10.914 5.094 10.559 11.15-.003.044-.005.085-.008.124-2.621 38.105-31.44 69.007-68.58 74.82v.002c1.331 1.781 3.455 2.932 5.849 2.932h33.376c27.815-17.354 46.324-48.229 46.324-83.428.001-5.216-.406-10.337-1.189-15.332z" fill="#a1412b"/><g><path d="m358.01 106.814v11.698l-7.079 7.079-65.581 65.594-7.093 7.093h-11.698c-4.036 0-7.304-3.269-7.304-7.304v-11.711l79.753-79.753h11.711c4.022-.001 7.291 3.268 7.291 7.304z" fill="#ff8f33"/></g><path d="m350.93 125.591-65.581 65.594c-7.992-4.406-14.609-11.01-19.015-19.002l65.594-65.594c7.993 4.419 14.596 11.022 19.002 19.002z" fill="#ffaf40"/></g></g><path d="m308.38 99.509h-39.368c-5.388 0-9.757-4.368-9.757-9.757 0-5.388 4.368-9.757 9.757-9.757h39.368c5.388 0 9.757 4.368 9.757 9.757 0 5.389-4.369 9.757-9.757 9.757z" fill="#fff370"/></g></g></g></g><path d="m412.301 247.923h-312.602c-3.847 0-6.966-3.119-6.966-6.966v-16.194c0-3.847 3.119-6.966 6.966-6.966h312.601c3.847 0 6.966 3.119 6.966 6.966v16.194c.001 3.847-3.118 6.966-6.965 6.966z" fill="#2b6d6c"/><path d="m232.782 217.796h-77.257c-6.582 0-11.917 5.336-11.917 11.917 0 6.582 5.336 11.917 11.917 11.917h77.257c6.582 0 11.917-5.336 11.917-11.917.001-6.582-5.335-11.917-11.917-11.917z" fill="#009887"/></g></g><g><g><g fill="#2b6d6c"><path d="m7.007 454.784h105.599v27.999h-105.599z" transform="matrix(.864 -.503 .503 .864 -227.84 93.824)"/><path d="m45.807 345.057h27.999v105.599h-27.999z" transform="matrix(.503 -.864 .864 .503 -314.075 249.267)"/><path d="m7.007 312.928h105.599v27.999h-105.599z" transform="matrix(.864 -.503 .503 .864 -156.434 74.542)"/><path d="m45.807 203.201h27.999v105.599h-27.999z" transform="matrix(.503 -.864 .864 .503 -191.501 178.816)"/><path d="m7.007 171.072h105.599v27.999h-105.599z" transform="matrix(.864 -.503 .503 .864 -85.029 55.26)"/><path d="m45.807 61.345h27.999v105.599h-27.999z" transform="matrix(.503 -.864 .864 .503 -68.927 108.365)"/><path d="m7.007 29.216h105.599v27.999h-105.599z" transform="matrix(.864 -.503 .503 .864 -13.624 35.978)"/></g><g><path d="m18.368 512h-8.368c-5.523 0-10-4.477-10-10v-492c0-5.523 4.477-10 10-10h8.368c5.523 0 10 4.477 10 10v492c0 5.523-4.477 10-10 10z" fill="#009887"/><path d="m28.368 179.832v-106.451c0-7.834-6.35-14.184-14.184-14.184-7.834 0-14.184 6.35-14.184 14.184v106.451c0 7.834 6.35 14.184 14.184 14.184 7.833 0 14.184-6.351 14.184-14.184z" fill="#1cc3af"/><path d="m109.613 512h-8.368c-5.523 0-10-4.477-10-10v-492c0-5.523 4.477-10 10-10h8.368c5.523 0 10 4.477 10 10v492c0 5.523-4.478 10-10 10z" fill="#009887"/><path d="m91.245 320.548v53.538c0 7.834 6.35 14.184 14.184 14.184 7.834 0 14.184-6.35 14.184-14.184v-53.538c0-7.834-6.35-14.184-14.184-14.184-7.834 0-14.184 6.351-14.184 14.184z" fill="#1cc3af"/></g></g><circle cx="14.184" cy="226.862" fill="#1cc3af" r="14.184"/></g><g><g><g fill="#2b6d6c"><path d="m399.394 454.784h105.599v27.999h-105.599z" transform="matrix(.864 -.503 .503 .864 -174.504 291.337)"/><path d="m438.194 345.057h27.999v105.599h-27.999z" transform="matrix(.503 -.864 .864 .503 -119.202 588.319)"/><path d="m399.394 312.928h105.599v27.999h-105.599z" transform="matrix(.864 -.503 .503 .864 -103.099 272.056)"/><path d="m438.194 203.201h27.999v105.599h-27.999z" transform="matrix(.503 -.864 .864 .503 3.373 517.868)"/><path d="m399.394 171.072h105.599v27.999h-105.599z" transform="matrix(.864 -.503 .503 .864 -31.694 252.774)"/><path d="m438.194 61.345h27.999v105.599h-27.999z" transform="matrix(.503 -.864 .864 .503 125.947 447.417)"/><path d="m399.394 29.216h105.599v27.999h-105.599z" transform="matrix(.864 -.503 .503 .864 39.711 233.492)"/></g><g><path d="m410.755 512h-8.368c-5.523 0-10-4.477-10-10v-492c0-5.523 4.477-10 10-10h8.368c5.523 0 10 4.477 10 10v492c0 5.523-4.477 10-10 10z" fill="#009887"/><path d="m420.755 179.832v-106.451c0-7.834-6.35-14.184-14.184-14.184-7.834 0-14.184 6.35-14.184 14.184v106.451c0 7.834 6.35 14.184 14.184 14.184 7.834 0 14.184-6.351 14.184-14.184z" fill="#1cc3af"/><path d="m502 512h-8.368c-5.523 0-10-4.477-10-10v-492c0-5.523 4.477-10 10-10h8.368c5.523 0 10 4.477 10 10v492c0 5.523-4.477 10-10 10z" fill="#009887"/><path d="m483.632 320.548v53.538c0 7.834 6.35 14.184 14.184 14.184 7.833 0 14.184-6.35 14.184-14.184v-53.538c0-7.834-6.35-14.184-14.184-14.184-7.833 0-14.184 6.351-14.184 14.184z" fill="#1cc3af"/></g></g><circle cx="406.571" cy="226.862" fill="#1cc3af" r="14.184"/></g></g></svg>