<svg clip-rule="evenodd" fill-rule="evenodd" stroke-linejoin="round" stroke-miterlimit="2" viewBox="0 0 510 510" xmlns="http://www.w3.org/2000/svg"><g><g><g><ellipse cx="345.947" cy="434.503" fill="#fe646f" rx="101.989" ry="32.347"/><path d="m340.947 402.194c1.656-.026 3.323-.039 5-.039 56.289 0 101.989 14.495 101.989 32.348s-45.7 32.347-101.989 32.347c-1.677 0-3.344-.013-5-.038 53.971-.828 96.989-14.988 96.989-32.309 0-17.322-43.018-31.481-96.989-32.309z" fill="#fd4755"/></g><g><path d="m393.509 276.328v141.421c0 1.326-.527 2.598-1.464 3.536-.938.937-2.21 1.464-3.536 1.464h-85.125c-1.326 0-2.598-.527-3.536-1.464-.937-.938-1.464-2.21-1.464-3.536v-141.421c-19.232 0-34.982-15.06-34.982-33.413v-100.239c0-18.385 16.409-28.645 34.982-33.413 32.189-8.283 63.877-7.75 95.125 0 18.636 4.612 34.982 15.028 34.982 33.413v100.239c0 18.353-15.75 33.413-34.982 33.413z" fill="#8ac9fe"/><path d="m345.947 11c20.267 0 36.707 11.577 36.707 38.213 0 26.637-16.44 48.253-36.707 48.253-20.268 0-36.708-21.616-36.708-48.253 0-26.636 16.44-38.213 36.708-38.213z" fill="#f6dccd"/></g><g><path d="m48.088 297.8v80.116c0 8.244 6.755 14.999 14.999 14.999h156.722c8.244 0 14.999-6.755 14.999-14.999v-80.116z" fill="#ecba78"/><path d="m48.088 297.8v80.116c0 8.244 6.755 14.999 14.999 14.999h11.912c-8.256 0-14.999-6.755-14.999-14.999v-80.116z" fill="#e3a76f"/><path d="m230.135 313.828c1.647-1.041 3.221-2.155 4.673-3.354 5.4-4.418 9.14-9.951 9.14-17.214v-36.572c0-4.237-3.462-7.687-7.687-7.687h-189.626c-4.225 0-7.687 3.45-7.687 7.687v36.572c0 7.251 3.741 12.784 9.14 17.214 1.453 1.199 3.027 2.313 4.673 3.354 31.209 19.744 146.396 19.599 177.374 0z" fill="#e3a76f"/><path d="m87.928 249.001h107.04v24.999c0 5.29-4.334 9.636-9.636 9.636h-87.767c-5.303 0-9.637-4.346-9.637-9.636z" fill="#c48958"/><path d="m60 249.001h-13.365c-4.225 0-7.687 3.45-7.687 7.687v36.572c0 7.251 3.741 12.784 9.14 17.214 1.453 1.199 3.027 2.313 4.673 3.354 2.058 1.295 4.491 2.518 7.239 3.644z" fill="#c48958"/><path d="m122.551 331.006c0 10.435 8.462 18.897 18.897 18.897s18.885-8.462 18.885-18.897c0-10.399-8.413-18.897-18.885-18.897-10.471 0-18.897 8.498-18.897 18.897z" fill="#837683"/><path d="m122.551 331.006c0 10.435 8.462 18.897 18.897 18.897 1.017 0 2.01-.085 2.978-.242-9.019-1.429-15.919-9.237-15.919-18.655 0-9.394 6.876-17.227 15.919-18.655-.968-.158-1.961-.242-2.978-.242-10.471 0-18.897 8.498-18.897 18.897z" fill="#685e68"/></g></g><path d="m39.573 318.026c-5.615-5.544-9.146-12.353-9.146-20.768v-36.586c0-8.643 7.054-15.678 15.696-15.678h46.784v-8.05c0-13.237 10.832-24.069 24.069-24.069h47.919c13.237 0 24.07 10.832 24.07 24.069v8.05h46.783c8.643 0 15.697 7.035 15.697 15.678v36.586c0 8.415-3.531 15.224-9.147 20.768v63.893c0 12.629-10.347 23.006-23.006 23.006h-156.713c-12.659 0-23.006-10.377-23.006-23.006zm39.836-57.032h-32.982v36.264c0 4.711 2.717 8.15 6.222 11.027.007.006.014.012.022.018 1.196.989 2.492 1.894 3.848 2.756 11.291 7.146 34.302 11.174 59.952 12.768 4.239-9.258 13.58-15.714 24.465-15.714 10.879 0 20.215 6.449 24.457 15.698 25.693-1.61 48.724-5.649 59.961-12.753 1.356-.862 2.651-1.766 3.847-2.755l.021-.018c3.505-2.877 6.223-6.316 6.223-11.027v-36.264h-32.983v17.004c0 9.7-7.93 17.63-17.63 17.63h-87.793c-9.7 0-17.63-7.93-17.63-17.63zm35.045 78.726c-23.59-1.594-45.05-5.466-58.881-11.264v53.463c0 3.846 3.151 7.006 7.006 7.006h156.713c3.855 0 7.006-3.16 7.006-7.006v-53.471c-13.801 5.768-35.266 9.647-58.878 11.255-2.219 12.621-13.223 22.195-26.484 22.195-13.256 0-24.257-9.566-26.482-22.178zm72.008-78.726h-91.053v17.004c0 .897.733 1.63 1.63 1.63h87.793c.897 0 1.63-.733 1.63-1.63zm-13.497-16v-8.05c0-4.438-3.632-8.069-8.07-8.069h-47.919c-4.438 0-8.069 3.631-8.069 8.069v8.05zm-42.922 90.011c0 6.021 4.872 10.893 10.893 10.893 6.02 0 10.893-4.872 10.893-10.893 0-5.998-4.862-10.892-10.893-10.892-6.032 0-10.893 4.894-10.893 10.892zm107.244 111.498h-17.992c-4.416 0-8-3.585-8-8 0-4.416 3.584-8 8-8h17.974c2.057-4.436 5.877-8.728 11.578-12.527 9.028-6.017 23.316-11.226 41.024-14.756 0-35.507 0-100.05 0-113.229v-2.388c-19.909-3.651-34.981-20.652-34.981-40.688v-100.239c0-22.078 18.687-35.435 40.99-41.162 8.591-2.21 17.147-3.818 25.67-4.852-12.371-9.905-20.823-27.27-20.823-47.449 0-16.047 5.279-27.434 13.284-34.933 8.062-7.554 19.124-11.28 31.423-11.28s23.361 3.726 31.423 11.28c8.005 7.499 13.284 18.886 13.284 34.933 0 20.227-8.492 37.628-20.913 47.52 8.596 1.051 17.16 2.648 25.692 4.764 22.401 5.544 41.058 19.078 41.058 41.179v100.239c0 20.036-15.072 37.037-34.981 40.688v115.617c17.708 3.53 31.996 8.739 41.024 14.756 5.701 3.799 9.521 8.091 11.578 12.527h17.974c4.416 0 8 3.584 8 8 0 4.415-3.584 8-8 8h-17.992c-2.28 4.88-6.696 9.601-13.375 13.685-16.617 10.162-48.936 17.632-86.772 18.564v16.248c0 4.415-3.585 8-8 8s-8-3.585-8-8v-16.248c-37.836-.932-70.155-8.402-86.772-18.564-6.679-4.084-11.095-8.805-13.375-13.685zm52.584-26.954c-12.998 2.782-23.693 6.493-30.923 10.954h8.646c4.416 0 8 3.584 8 8 0 4.415-3.584 8-8 8h-8.665c2.137 1.312 4.615 2.56 7.381 3.756 16.363 7.078 41.957 11.763 71.124 12.492v-16.051c0-4.415 3.585-8 8-8s8 3.585 8 8v16.051c29.167-.729 54.761-5.414 71.124-12.492 2.766-1.196 5.244-2.444 7.381-3.756h-8.665c-4.416 0-8-3.585-8-8 0-4.416 3.584-8 8-8h8.646c-7.23-4.461-17.925-8.172-30.923-10.956v7.202c0 4.418-3.582 8-8 8h-95.126c-4.418 0-8-3.582-8-8 0 0 0-2.643 0-7.2zm16-240.245v239.445h32.881v-112.381c0-4.415 3.584-8 8-8 4.415 0 8 3.585 8 8v112.381h30.245v-239.445c0-4.415 3.584-8 8-8 4.415 0 8 3.585 8 8v91.873c10.916-3.223 18.981-12.85 18.981-24.262v-100.239c0-14.686-14.017-21.964-28.903-25.648l-.004-.001c-29.961-7.43-60.343-7.958-91.206-.017l-.004.001c-14.86 3.816-28.971 10.955-28.971 25.665v100.239c0 11.413 8.065 21.039 18.981 24.262v-91.873c0-4.415 3.585-8 8-8 4.416 0 8 3.585 8 8zm39.563-156.304c-7.969 0-15.26 2.062-20.484 6.956-5.284 4.95-8.223 12.666-8.223 23.257 0 13.587 4.835 25.713 12.582 33.179 4.534 4.37 10.074 7.074 16.125 7.074s11.591-2.704 16.125-7.074c7.747-7.466 12.582-19.592 12.582-33.179 0-10.591-2.939-18.307-8.223-23.257-5.224-4.894-12.515-6.956-20.484-6.956z"/></g></svg>