<svg id="Layer_1" height="512" viewBox="0 0 64 64" width="512" xmlns="http://www.w3.org/2000/svg"><g><g><path d="m52.6 29.9v26c0 2.1-1.7 3.7-3.7 3.7h-41.8v-29.7c8.4-8.4 13.1-13.1 21.5-21.5h2.2z" fill="#c9d8ef"/><path d="m52.6 55.8c0 2.2-1.8 4-4 4h-41.5v-29.9c1.4-1.4 2.7-2.7 4-3.9 0 16.4 13.3 29.8 29.8 29.8z" fill="#b2cbea"/><path d="m43.3 59.7h-36.2v-25.5-4.3c8.5-8.4 13.2-13.1 21.7-21.5h2.1l9.7 9.6" style="fill:none;stroke:#2b3c65;stroke-linecap:round;stroke-linejoin:round;stroke-miterlimit:10;stroke-width:1.959"/><path d="m52.6 34.2-22.7-22.7-22.8 22.7c-1.4 1.4-3.7 1.4-5.1 0-1.4-1.4-1.4-3.7 0-5.1l22.8-22.7c2.8-2.8 7.3-2.8 10.2 0l22.7 22.7c1.4 1.4 1.4 3.7 0 5.1-1.4 1.4-3.7 1.4-5.1 0z" fill="#f27dad"/><g stroke="#2b3c65" stroke-linecap="round" stroke-linejoin="round" stroke-miterlimit="10" stroke-width="1.959"><path d="m38.2 19.7-8.3-8.3-22.8 22.8c-1.4 1.4-3.7 1.4-5.1 0-.7-.7-1-1.6-1-2.5s.4-1.8 1-2.5l22.8-22.8c2.8-2.8 7.3-2.8 10.1 0l9.8 9.8" fill="none"/><path d="m43.3 59.7h-36.2-6.1" fill="none"/><path d="m32.9 41.5v18.2h-14.2v-18.2c0-1.1.9-2 2-2h10.3c1 0 1.9.9 1.9 2z" fill="#45c8f5"/></g><path d="m63 33c0 5.5-7.3 18.7-11.1 25.3-1.1 1.8-3.7 1.8-4.8 0-3.9-6.6-11.2-19.8-11.2-25.3 0-7.5 6.1-13.5 13.5-13.5s13.6 6 13.6 13.5z" fill="#ffd880"/><path d="m63 33c0 5.5-7.2 18.7-11.1 25.3-1.1 1.8-3.7 1.8-4.8 0-.5-.8-1-1.8-1.6-2.8.9 0 1.7-.5 2.2-1.4 3.9-6.7 11.1-19.8 11.1-25.3 0-2.7-.8-5.2-2.1-7.3 3.8 2.5 6.3 6.7 6.3 11.5z" fill="#fecb4d"/><path d="m63 33c0 5.5-7.3 18.7-11.1 25.3-1.1 1.8-3.7 1.8-4.8 0-3.9-6.6-11.2-19.8-11.2-25.3 0-7.5 6.1-13.5 13.5-13.5s13.6 6 13.6 13.5z" style="fill:none;stroke:#2b3c65;stroke-linecap:round;stroke-linejoin:round;stroke-miterlimit:10;stroke-width:1.959"/><circle cx="49.5" cy="33" r="8.3" style="fill:#fff;stroke:#2b3c65;stroke-linecap:round;stroke-linejoin:round;stroke-miterlimit:10;stroke-width:1.959"/></g><path d="m21.7 49.1v1.3" style="fill:none;stroke:#2b3c65;stroke-linecap:round;stroke-linejoin:round;stroke-miterlimit:10;stroke-width:1.959"/></g></svg>