<svg id="Layer_1" enable-background="new 0 0 512 512" viewBox="0 0 512 512" xmlns="http://www.w3.org/2000/svg"><g clip-rule="evenodd" fill-rule="evenodd"><path d="m286.18 8.02 120.88 69.77v139.6l-120.88 69.81-120.9-69.81v-139.6z" fill="#ffd400"/><path d="m181.34 226.68-16.06-9.29v-139.6l16.06-9.25z" fill="#e6bf00"/><path d="m407.06 77.79v139.6l-120.88 69.81v-209.41z" fill="#ffbf18"/><path d="m286.18 8.02 120.88 69.77-120.88 69.8-120.9-69.8z" fill="#fea832"/><path d="m332.84 34.95 27.57 15.9-120.82 69.78v47.14l-27.71-15.98v-39.1-7.91l6.97-4.03z" fill="#ff4646"/><path d="m300.66 404.94 72.71-39.46c12.63-6.86 17.35-22.76 10.49-35.37-6.89-12.6-22.85-17.3-35.5-10.46l-78.78 42.78z" fill="#fbc894"/><path d="m288.79 451.93 152.18-82.57c12.66-6.86 17.35-22.79 10.49-35.4-6.89-12.6-22.85-17.3-35.48-10.43l-78.59 42.64c-1.26-9.75-7.99-18.4-17.93-21.61-29.99-9.61-60-19.25-89.98-28.89-24.03-7.72-47.56-5.52-69.72 6.51l-92.32 50.09 53.11 97.21 34.41-18.67c16.06-8.7 33.09-10.3 50.47-4.72l32.9 10.57c17.38 5.56 34.43 3.97 50.46-4.73z" fill="#fbbd80"/><path d="m33.26 368.31 76.39 132.27c1.87 3.24 6.07 4.37 9.34 2.5l33.97-19.52c3.24-1.87 4.37-6.04 2.5-9.31l-76.4-132.25c-1.89-3.27-6.1-4.39-9.34-2.53l-33.97 19.53c-3.26 1.87-4.39 6.04-2.49 9.31z" fill="#0593fc"/><path d="m191.31 358.23c11.92 3.82 23.84 7.63 35.75 11.48 25.46 8.16 50.91 16.34 76.36 24.52 13.7 4.39 28.5-3.19 32.92-16.83 4.39-13.65-3.19-28.42-16.89-32.84l-69.83-22.41z" fill="#fbbd80"/><path d="m33.26 368.28 76.39 132.3c1.87 3.24 6.07 4.37 9.34 2.5l9.58-5.52c-3.24 1.87-7.44.74-9.31-2.5l-76.39-132.3c-1.89-3.24-.77-7.41 2.5-9.28l24.38-14h-.03l-33.97 19.52c-3.26 1.87-4.39 6.04-2.49 9.28z" fill="#0584e3"/><path d="m420.6 256.52c5.49-1.43 10.68-3.6 15.46-6.4 1.15-.69 2.47-.71 3.65-.11l9.01 4.59c1.48.77 3.24.49 4.42-.69l9.14-9.14c1.18-1.18 1.46-2.94.69-4.42l-4.59-9.01c-.6-1.21-.58-2.5.11-3.65 2.8-4.81 4.97-10 6.43-15.49.33-1.29 1.24-2.22 2.5-2.64l9.61-3.13c1.59-.52 2.64-1.95 2.64-3.62v-12.91c0-1.7-1.04-3.13-2.64-3.65l-9.61-3.1c-1.26-.41-2.17-1.37-2.53-2.66-1.43-5.49-3.6-10.68-6.4-15.46-.69-1.15-.71-2.47-.11-3.65l4.59-9.01c.77-1.51.49-3.24-.69-4.42l-9.14-9.14c-1.18-1.18-2.94-1.46-4.42-.71l-9.01 4.61c-1.18.6-2.5.55-3.65-.11-4.78-2.8-9.97-4.97-15.46-6.43-1.29-.33-2.25-1.24-2.66-2.5l-3.13-9.61c-.52-1.59-1.95-2.64-3.62-2.64h-12.91c-1.7 0-3.13 1.04-3.62 2.64l-3.13 9.61c-.41 1.26-1.37 2.17-2.66 2.5-5.49 1.45-10.68 3.62-15.46 6.43-1.15.66-2.47.71-3.65.11l-9.01-4.61c-1.48-.74-3.24-.47-4.42.71l-9.14 9.14c-1.18 1.18-1.46 2.91-.69 4.42l4.59 9.01c.6 1.18.55 2.5-.11 3.65-2.8 4.78-4.97 9.97-6.43 15.46-.33 1.29-1.24 2.25-2.5 2.66l-9.61 3.1c-1.59.52-2.64 1.95-2.64 3.65v12.91c0 1.67 1.04 3.1 2.64 3.62l9.61 3.13c1.26.41 2.17 1.35 2.5 2.64 1.46 5.49 3.62 10.68 6.43 15.49.66 1.15.71 2.44.11 3.65l-4.59 9.01c-.77 1.48-.49 3.24.69 4.42l9.14 9.14c1.18 1.18 2.94 1.46 4.42.69l9.01-4.59c1.18-.6 2.5-.58 3.65.11 4.78 2.8 9.97 4.97 15.46 6.4 1.29.36 2.25 1.24 2.66 2.53l3.13 9.61c.49 1.59 1.92 2.61 3.62 2.61h12.91c1.67 0 3.1-1.02 3.62-2.61l3.13-9.61c.41-1.29 1.37-2.17 2.66-2.53z" fill="#2f5274"/><path d="m404.73 163c18.43 0 33.36 14.94 33.36 33.36s-14.94 33.36-33.36 33.36-33.36-14.94-33.36-33.36 14.93-33.36 33.36-33.36z" fill="#ebf5fc"/><path d="m408.41 121.42h-10.13c-1.7 0-3.13 1.04-3.62 2.64l-3.13 9.61c-.41 1.26-1.37 2.17-2.66 2.5-4.34 1.15-8.51 2.75-12.44 4.75l3.46 1.78c1.18.6 2.5.55 3.65-.11 4.78-2.8 9.97-4.97 15.46-6.43 1.29-.33 2.25-1.24 2.66-2.5l3.13-9.61c.49-1.58 1.91-2.63 3.62-2.63zm-43.42 18.84-4.26-2.17c-1.48-.74-3.24-.47-4.42.71l-9.14 9.14c-1.18 1.18-1.46 2.91-.69 4.42l4.59 9.01c.6 1.18.55 2.5-.11 3.65-2.8 4.78-4.97 9.97-6.43 15.46-.33 1.29-1.24 2.25-2.5 2.66l-9.61 3.1c-1.59.52-2.64 1.95-2.64 3.65v12.91c0 1.67 1.04 3.1 2.64 3.62l9.61 3.13c1.26.41 2.17 1.35 2.5 2.64 1.46 5.49 3.62 10.68 6.43 15.49.66 1.15.71 2.44.11 3.65l-4.59 9.01c-.77 1.48-.49 3.24.69 4.42l9.14 9.14c1.18 1.18 2.94 1.46 4.42.69l4.26-2.17-7.69-7.66c-1.18-1.18-1.46-2.94-.69-4.42l4.59-9.01c.6-1.21.55-2.5-.11-3.65-2.8-4.81-4.97-10-6.43-15.49-.33-1.29-1.24-2.22-2.5-2.64l-9.61-3.13c-1.59-.52-2.64-1.95-2.64-3.62v-12.91c0-1.7 1.04-3.13 2.64-3.65l9.61-3.1c1.26-.41 2.17-1.37 2.5-2.66 1.46-5.49 3.62-10.68 6.43-15.46.66-1.15.71-2.47.11-3.65l-4.59-9.01c-.77-1.51-.49-3.24.69-4.42zm11.43 111.51c3.93 2 8.1 3.62 12.44 4.75 1.29.36 2.25 1.24 2.66 2.53l3.13 9.61c.49 1.59 1.92 2.61 3.62 2.61h10.13c-1.7 0-3.13-1.02-3.62-2.61l-3.13-9.61c-.41-1.29-1.37-2.17-2.66-2.53-5.49-1.43-10.68-3.6-15.46-6.4-1.15-.69-2.47-.71-3.65-.11z" fill="#2a4a68"/><path d="m404.73 163c1.02 0 2 .05 2.99.14-17.02 1.51-30.34 15.82-30.34 33.23s13.32 31.72 30.34 33.23c-.99.08-1.98.14-2.99.14-18.42 0-33.36-14.94-33.36-33.36s14.93-33.38 33.36-33.38z" fill="#d4dde3"/></g><path d="m412.06 316.27-20.54 11.17c-.23-.47-.46-.94-.71-1.4-9.02-16.52-29.79-22.63-46.29-13.62l-36.56 19.85-76-24.43c-26.17-8.44-51.71-6.06-75.92 7.08l-63.28 34.4-6.64-11.52c-4.07-7.09-13.15-9.55-20.25-5.47l-33.92 19.53c-3.43 1.97-5.89 5.16-6.92 8.99s-.52 7.82 1.45 11.25c0 0 .01.01.01.02l76.37 132.39c2.74 4.73 7.73 7.38 12.86 7.38 2.51 0 5.05-.63 7.37-1.97l33.91-19.53c3.43-1.97 5.88-5.15 6.92-8.97s.52-7.81-1.45-11.26l-6.34-10.99 2.72-1.48c14.08-7.64 28.95-9.02 44.2-4.12l32.86 10.57c7.63 2.45 15.19 3.68 22.64 3.68 11.66 0 23.07-3 34.08-9l152.09-82.64c7.97-4.35 13.79-11.57 16.38-20.32 2.59-8.77 1.62-17.99-2.73-25.95-8.99-16.5-29.76-22.62-46.31-13.64zm-59.9 10.19c8.77-4.79 19.82-1.54 24.59 7.2.25.47.48.95.69 1.43l-35.35 19.22c-3.03-6.2-7.9-11.4-13.95-14.82zm-236.06 169.02-75.19-130.34 31.92-18.37 75.19 130.34zm329.65-144.15c-1.38 4.66-4.47 8.51-8.69 10.81l-152.08 82.63c-14.06 7.65-28.93 9.05-44.19 4.15l-32.86-10.57c-19.57-6.29-38.65-4.51-56.73 5.3l-3.07 1.68-47.39-82.15 62.92-34.21c20.21-10.97 41.53-12.96 63.39-5.91l89.93 28.91c6.67 2.15 11.55 8.05 12.44 15.04.03.21.07.41.12.61-.01.27-.02.54 0 .82.1 2.09-.2 4.29-.84 6.32-3.08 9.52-13.33 14.77-22.86 11.69-25.42-8.16-50.88-16.35-76.3-24.55-4.2-1.35-8.71.95-10.06 5.16-1.35 4.2.96 8.71 5.16 10.06 25.43 8.19 50.89 16.39 76.3 24.55 3.47 1.12 6.99 1.65 10.46 1.65 14.41 0 27.85-9.21 32.53-23.68.94-2.95 1.47-5.96 1.59-8.98l74.17-40.33c8.81-4.78 19.86-1.54 24.63 7.24 2.3 4.21 2.81 9.1 1.43 13.76zm33.62-172.65-7.5-2.46c-1.38-4.62-3.22-9.05-5.48-13.21l3.54-6.95c2.37-4.57 1.51-10.1-2.15-13.76l-9.13-9.13c-3.62-3.62-9.12-4.48-13.7-2.16l-7.01 3.56c-4.23-2.29-8.66-4.13-13.21-5.48l-2.42-7.47c-1.15-3.57-3.87-6.27-7.27-7.47v-36.28c0-2.86-1.52-5.49-4-6.92l-46.43-26.81c-.03-.02-.05-.03-.08-.04l-74.29-42.91c-2.47-1.43-5.52-1.43-7.99 0l-120.81 69.76c-2.47 1.43-4 4.07-4 6.92v139.49c0 2.86 1.52 5.5 4 6.92l120.81 69.73c1.24.71 2.62 1.07 4 1.07s2.76-.36 4-1.07l60.17-34.72.2.2c3.63 3.63 9.13 4.51 13.71 2.17l6.98-3.57c4.23 2.28 8.66 4.12 13.23 5.49l2.41 7.44c1.57 4.9 6.09 8.19 11.24 8.19h12.9c5.15 0 9.66-3.29 11.23-8.16l2.42-7.46c4.55-1.36 8.98-3.2 13.23-5.49l6.99 3.57c4.57 2.33 10.07 1.45 13.7-2.18l9.13-9.13c3.63-3.63 4.5-9.14 2.18-13.7l-3.56-7c2.27-4.19 4.1-8.62 5.47-13.21l7.53-2.45c4.85-1.61 8.1-6.12 8.1-11.21v-12.93c0-5.15-3.31-9.66-8.14-11.18zm-81.18-65.2c-5.16 0-9.67 3.28-11.23 8.13l-2.43 7.48c-4.55 1.35-8.98 3.19-13.21 5.48l-7.01-3.56c-4.58-2.33-10.08-1.47-13.7 2.15l-9.13 9.13c-3.66 3.66-4.52 9.19-2.18 13.7l3.57 7.01c-2.28 4.22-4.12 8.65-5.48 13.21l-7.45 2.44c-4.89 1.57-8.18 6.08-8.18 11.21v12.93c0 5.06 3.24 9.56 8.06 11.2l.1.03 7.47 2.42c1.36 4.55 3.2 8.98 5.48 13.21l-3.57 7.01c-1.73 3.4-1.68 7.33-.05 10.61l-45.02 25.98v-120.29c0-.24-.02-.48-.04-.72l104.86-60.53v21.77zm-178.19-4.05 2.98-1.73 109.9-63.43 11.56 6.67-108.76 62.78c-2.21 1.28-3.65 3.52-3.94 6.02-.04.28-.05.57-.06.85v.05 33.29l-11.68-6.74zm140.42-49.25 30.64 17.69-104.82 60.51-30.65-17.69zm-74.17-42.84 30.64 17.7-101.93 58.83-2.89 1.68-30.64-17.68zm-112.82 74.37 30.58 17.65v42.44c0 2.85 1.52 5.49 3.99 6.92l27.67 15.99c1.24.71 2.62 1.07 4 1.07s2.76-.36 4-1.07c2.47-1.43 4-4.07 4-6.92v-33.21l30.62 17.67c-.02.24-.04.48-.04.72v120.29l-104.82-60.5zm298.09 108.05-6.66 2.17c-3.85 1.22-6.77 4.28-7.82 8.22-1.25 4.76-3.13 9.29-5.53 13.4-2.07 3.45-2.23 7.69-.38 11.37l3.21 6.3-4.84 4.84-6.33-3.23c-3.6-1.8-7.81-1.66-11.24.35-4.27 2.47-8.8 4.35-13.47 5.59-3.93 1.03-6.93 3.84-8.23 7.76l-2.18 6.72h-6.82l-2.2-6.78c-1.29-3.87-4.29-6.67-8.21-7.69-4.68-1.24-9.21-3.12-13.45-5.58-3.46-2.03-7.68-2.16-11.33-.33l-6.26 3.2-4.84-4.84 3.24-6.36c1.8-3.61 1.66-7.8-.37-11.24-2.47-4.26-4.34-8.79-5.58-13.49-1.04-3.91-3.96-6.97-7.75-8.18l-6.72-2.18v-6.83l6.68-2.19c3.84-1.22 6.75-4.29 7.8-8.22 1.24-4.7 3.11-9.22 5.58-13.45 2.02-3.46 2.16-7.67.33-11.32l-3.21-6.3 4.82-4.82 6.26 3.18c3.53 1.82 7.72 1.74 11.22-.22.04-.02.09-.05.13-.07 4.24-2.49 8.76-4.36 13.42-5.57 3.88-1.01 6.95-3.9 8.25-7.79l2.17-6.69h6.84l2.19 6.75c1.28 3.83 4.35 6.72 8.24 7.74 4.65 1.21 9.17 3.08 13.41 5.57.04.02.09.05.13.07 3.5 1.96 7.69 2.05 11.22.22l6.26-3.18 4.82 4.82-3.24 6.35c-1.8 3.6-1.66 7.81.38 11.29 2.44 4.13 4.31 8.65 5.57 13.45 1.04 3.91 3.95 6.96 7.8 8.19l6.67 2.19v6.81zm-66.87-44.76c-22.8 0-41.36 18.54-41.36 41.33s18.55 41.33 41.36 41.33c22.79 0 41.33-18.54 41.33-41.33s-18.54-41.33-41.33-41.33zm0 66.68c-13.99 0-25.37-11.37-25.37-25.34s11.38-25.34 25.37-25.34c13.97 0 25.34 11.37 25.34 25.34s-11.37 25.34-25.34 25.34z"/></svg>