<svg height="512" viewBox="0 0 24 24" width="512" xmlns="http://www.w3.org/2000/svg"><g id="Layer_5" data-name="Layer 5"><path d="m2 23a1.0006 1.0006 0 0 1 -1-1v-12a1.0006 1.0006 0 0 1 1-1h13v13a1.0006 1.0006 0 0 1 -1 1z" fill="#e8dbc5"/><path d="m3.51 23h-1.51a1.0029 1.0029 0 0 1 -1-1v-12a1.0029 1.0029 0 0 1 1-1h1.51a1.2264 1.2264 0 0 0 -.51 1v12a1.2264 1.2264 0 0 0 .51 1z" fill="#d9cdb9"/><path d="m6.7627 13.001a.8105.8105 0 0 1 -.2295-.0342.737.737 0 0 1 -.5332-.7178v-3.249h4v3.249a.737.737 0 0 1 -.5332.7178.7985.7985 0 0 1 -.2285.0342.7283.7283 0 0 1 -.6123-.336.7626.7626 0 0 0 -1.25-.0029.7309.7309 0 0 1 -.6133.3389z" fill="#edf2ff"/><rect fill="#edf2ff" height="12" rx="2" width="12" x="11" y="1"/><path d="m17.5 7.5 1.79-1.79a1.0067 1.0067 0 0 1 1.42 0l2.29 2.29v3a1.9469 1.9469 0 0 1 -.5889 1.4092l-.0009.001z" fill="#a5ffd6"/><path d="m22.96 11.37a1.9223 1.9223 0 0 1 -.55 1.04l-4.91-4.91.8-.79z" fill="#95e6c1"/><path d="m14.22 13h-1.22a2.0059 2.0059 0 0 1 -2-2v-8a2.0059 2.0059 0 0 1 2-2h1.22a2.2472 2.2472 0 0 0 -1.22 2v8a2.2472 2.2472 0 0 0 1.22 2z" fill="#bed2e8"/><path d="m13 13a2.0027 2.0027 0 0 1 -2-2v-2l3.29-3.29a1.0067 1.0067 0 0 1 1.42 0l6.7 6.7a1.9481 1.9481 0 0 1 -1.41.59z" fill="#a5ffd6"/><path d="m14.22 13h-1.22a2.0059 2.0059 0 0 1 -2-2v-2l2-2v4a2.2472 2.2472 0 0 0 1.22 2z" fill="#95e6c1"/><rect fill="#edf2ff" height="8" rx="2" width="8" x="15" y="15"/><path d="m17.22 23h-.22a2.0059 2.0059 0 0 1 -2-2v-4a2.0059 2.0059 0 0 1 2-2h.22a2.2472 2.2472 0 0 0 -1.22 2v4a2.2472 2.2472 0 0 0 1.22 2z" fill="#bed2e8"/><path d="m20 19 1.29-1.29a1.0067 1.0067 0 0 1 1.42 0l.29.29v3a1.8725 1.8725 0 0 1 -.18.82z" fill="#a5ffd6"/><path d="m23 20.4v.6a1.86 1.86 0 0 1 -.18.82l-2.82-2.82.8-.8z" fill="#95e6c1"/><path d="m17 23a2.0027 2.0027 0 0 1 -2-2v-1l2.29-2.29a1.0067 1.0067 0 0 1 1.42 0l4.11 4.11a2 2 0 0 1 -1.82 1.18z" fill="#a5ffd6"/><path d="m17.22 23h-.22a2.0059 2.0059 0 0 1 -2-2v-1l1-1v2a2.2472 2.2472 0 0 0 1.22 2z" fill="#95e6c1"/></g><g id="Layer_9" fill="#231f20" data-name="Layer 9"><path d="m23 9.25a.25.25 0 0 0 .25-.25v-6a2.2531 2.2531 0 0 0 -2.25-2.25h-8a2.2531 2.2531 0 0 0 -2.25 2.25v5.75h-6.75a.25.25 0 0 0 0 .5h1.75v2.999a1 1 0 0 0 1.834.5518.5124.5124 0 0 1 .834.0029.98.98 0 0 0 .82.4473 1.0428 1.0428 0 0 0 .3008-.0449.9832.9832 0 0 0 .7109-.9571v-2.999h.5v1.75a2.2531 2.2531 0 0 0 2.2503 2.25h1.75v8.75a.7514.7514 0 0 1 -.75.75h-12a.7514.7514 0 0 1 -.75-.75v-12a.7514.7514 0 0 1 .75-.75h1a.25.25 0 0 0 0-.5h-1a1.2511 1.2511 0 0 0 -1.25 1.25v12a1.2511 1.2511 0 0 0 1.25 1.25h12a1.2345 1.2345 0 0 0 1.1856-.9316 2.2436 2.2436 0 0 0 1.8144.9316.25.25 0 0 0 0-.5 1.7522 1.7522 0 0 1 -1.75-1.75v-.8965l2.2168-2.2168a.7533.7533 0 0 1 1.0664 0l3.9786 3.9786a1.7443 1.7443 0 0 1 -1.5118.8847h-3a.25.25 0 0 0 0 .5h3a2.2531 2.2531 0 0 0 2.25-2.25v-4a2.2531 2.2531 0 0 0 -2.25-2.25h-4a2.2378 2.2378 0 0 0 -1.75.8536v-2.3536h5.75a2.2531 2.2531 0 0 0 2.25-2.25v-1a.25.25 0 0 0 -.5 0v1a1.7339 1.7339 0 0 1 -.3533 1.0432l-4.5432-4.5432 1.6133-1.6133a.7533.7533 0 0 1 1.0664 0l2.2168 2.2168v.8965a.25.25 0 0 0 .25.25zm-13.25 2.999a.5.5 0 0 1 -.918.2744 1.0344 1.0344 0 0 0 -1.666.003.5.5 0 0 1 -.916-.2774v-2.999h3.5zm10.6035 6.751 1.1133-1.1133a.7533.7533 0 0 1 1.0664 0l.2168.2168v2.8965a1.7463 1.7463 0 0 1 -.0377.3588zm-3.3535-3.75h4a1.7522 1.7522 0 0 1 1.75 1.75v.4426a1.2423 1.2423 0 0 0 -1.6367.0906l-1.1133 1.1133-1.1133-1.1133a1.2565 1.2565 0 0 0 -1.7734 0l-1.8633 1.8633v-2.3965a1.7522 1.7522 0 0 1 1.75-1.75zm-4-2.5a1.7522 1.7522 0 0 1 -1.75-1.75v-1.8965l3.2168-3.2168a.7533.7533 0 0 1 1.0664 0l6.51 6.51a1.7339 1.7339 0 0 1 -1.0432.3533zm7.8867-7.2168a1.2565 1.2565 0 0 0 -1.7734 0l-1.6133 1.6133-1.6133-1.6133a1.2565 1.2565 0 0 0 -1.7734 0l-2.8633 2.8633v-5.3965a1.7522 1.7522 0 0 1 1.75-1.75h8a1.7522 1.7522 0 0 1 1.75 1.75v4.3965z"/><path d="m9.25 17a.25.25 0 0 0 -.25-.25h-6a.25.25 0 0 0 0 .5h6a.25.25 0 0 0 .25-.25z"/><path d="m7 18.75h-4a.25.25 0 0 0 0 .5h4a.25.25 0 0 0 0-.5z"/><path d="m7 20.75h-4a.25.25 0 0 0 0 .5h4a.25.25 0 0 0 0-.5z"/></g></svg>