<svg id="Capa_1" enable-background="new 0 0 512 512" viewBox="0 0 512 512" xmlns="http://www.w3.org/2000/svg"><g><g><circle cx="256" cy="256" fill="#eaf6ff" r="194.25"/><path d="m256 61.75c-12.211 0-24.154 1.138-35.74 3.294 90.207 16.779 146.23 95.886 146.23 190.956s-56.022 174.177-146.23 190.956c11.586 2.155 23.53 3.294 35.74 3.294 107.281 0 194.25-86.969 194.25-194.25s-86.969-194.25-194.25-194.25z" fill="#d8ecfe"/><path d="m7.5 166.69v-132.057c0-14.668 11.891-26.558 26.558-26.558h141.775c14.668 0 26.558 11.891 26.558 26.558v132.057c0 14.668-11.891 26.558-26.558 26.558h-141.775c-14.667.001-26.558-11.89-26.558-26.558z" fill="#8379c1"/><path d="m175.833 8.074h-27.026c14.668 0 26.558 11.891 26.558 26.558v132.058c0 14.668-11.891 26.558-26.558 26.558h27.026c14.668 0 26.558-11.891 26.558-26.558v-132.057c.001-14.668-11.89-26.559-26.558-26.559z" fill="#6e61b6"/><g><path d="m100.053 122.041h9.785c12.404 0 22.459-10.055 22.459-22.459v-23.967c0-8.464-6.862-15.326-15.326-15.366h-24.051c-8.464.04-15.326 6.901-15.326 15.366v23.968c0 12.403 10.055 22.458 22.459 22.458z" fill="#f6a96c"/><path d="m128.801 122.041h-47.711c-20.312 0-36.778 16.466-36.778 36.778v34.43h121.268v-34.43c0-20.312-16.467-36.778-36.779-36.778z" fill="#f2fbff"/><path d="m165.58 187.28v5.97h-16.77c6.36 0 12.2-2.24 16.77-5.97z" fill="#eaf6ff"/></g><g><path d="m309.608 166.69v-132.057c0-14.668 11.891-26.558 26.558-26.558h141.775c14.668 0 26.558 11.891 26.558 26.558v132.057c0 14.668-11.891 26.558-26.558 26.558h-141.774c-14.668.001-26.559-11.89-26.559-26.558z" fill="#8379c1"/></g><path d="m477.942 8.074h-27.026c14.668 0 26.558 11.891 26.558 26.558v132.058c0 14.668-11.891 26.558-26.558 26.558h27.026c14.668 0 26.558-11.891 26.558-26.558v-132.057c0-14.668-11.891-26.559-26.558-26.559z" fill="#6e61b6"/><path d="m309.608 477.367v-132.057c0-14.668 11.891-26.558 26.558-26.558h141.775c14.668 0 26.558 11.891 26.558 26.558v132.058c0 14.668-11.891 26.558-26.558 26.558h-91.87l-18.991-16.335-20.66 16.335h-10.254c-14.667 0-26.558-11.891-26.558-26.559z" fill="#8379c1"/><path d="m504.5 345.31v132.06c0 14.66-11.89 26.56-26.56 26.56h-27.02c14.66 0 26.55-11.9 26.55-26.56v-132.06c0-14.67-11.89-26.56-26.55-26.56h27.02c14.67 0 26.56 11.89 26.56 26.56z" fill="#6e61b6"/><g><path d="m7.5 477.367v-132.057c0-14.668 11.891-26.558 26.558-26.558h141.775c14.668 0 26.558 11.891 26.558 26.558v132.058c0 14.668-11.891 26.558-26.558 26.558h-141.775c-14.667 0-26.558-11.891-26.558-26.559z" fill="#8379c1"/></g><path d="m175.833 318.751h-27.026c14.668 0 26.558 11.891 26.558 26.558v132.058c0 14.668-11.891 26.558-26.558 26.558h27.026c14.668 0 26.558-11.891 26.558-26.558v-132.057c.001-14.668-11.89-26.559-26.558-26.559z" fill="#6e61b6"/><g><path d="m402.161 432.718h9.785c12.404 0 22.459-10.055 22.459-22.459v-23.968c0-8.464-6.862-15.326-15.326-15.366h-24.051c-8.464.04-15.326 6.901-15.326 15.366v23.968c.001 12.404 10.056 22.459 22.459 22.459z" fill="#ffe5c2"/><path d="m430.909 432.718h-47.711c-20.312 0-36.778 16.466-36.778 36.778v34.43h121.267v-34.43c.001-20.312-16.466-36.778-36.778-36.778z" fill="#fee97d"/></g><g><path d="m411.946 122.041h-9.785c-12.404 0-22.459-10.055-22.459-22.459v-23.967c0-8.464 6.862-15.326 15.326-15.366h24.051c8.464.04 15.326 6.901 15.326 15.366v23.968c0 12.403-10.055 22.458-22.459 22.458z" fill="#d88a55"/><path d="m383.199 122.041h47.711c20.312 0 36.778 16.466 36.778 36.778v34.43h-121.268v-34.43c0-20.312 16.467-36.778 36.779-36.778z" fill="#fe76a8"/><path d="m467.69 187.28v5.97h-16.77c6.36 0 12.2-2.24 16.77-5.97z" fill="#fe5694"/></g><g><path d="m109.838 432.718h-9.785c-12.404 0-22.459-10.055-22.459-22.459v-23.968c0-8.464 6.862-15.326 15.326-15.366h24.051c8.464.04 15.326 6.901 15.326 15.366v23.968c0 12.404-10.055 22.459-22.459 22.459z" fill="#ffbd86"/><path d="m81.09 432.718h47.711c20.312 0 36.778 16.466 36.778 36.778v34.43h-121.267v-34.43c0-20.312 16.466-36.778 36.778-36.778z" fill="#3ec3a4"/><path d="m165.58 497.96v5.97h-16.77c6.36 0 12.2-2.24 16.77-5.97z" fill="#0bb494"/></g><g><path d="m467.69 497.96v5.97h-16.77c6.36 0 12.2-2.24 16.77-5.97z" fill="#fedf30"/></g><path d="m314.37 272.564-11.598-7.272c.594-3.006.912-6.111.912-9.292s-.318-6.286-.912-9.292l11.598-7.272c4.246-2.662 5.53-8.263 2.868-12.509l-8.393-13.385c-2.662-4.246-8.263-5.53-12.509-2.868l-11.602 7.275c-3.562-2.694-7.516-4.894-11.759-6.511v-13.69c0-5.012-4.063-9.074-9.074-9.074h-15.801c-5.012 0-9.074 4.063-9.074 9.074v13.69c-4.243 1.617-8.197 3.817-11.759 6.511l-11.602-7.275c-4.246-2.662-9.846-1.378-12.509 2.868l-8.393 13.385c-2.662 4.246-1.378 9.846 2.868 12.509l11.598 7.272c-.594 3.006-.912 6.112-.912 9.292s.318 6.286.912 9.292l-11.598 7.272c-4.246 2.662-5.53 8.263-2.868 12.509l8.393 13.385c2.662 4.246 8.263 5.53 12.509 2.867l11.602-7.275c3.562 2.694 7.516 4.894 11.759 6.511v13.689c0 5.012 4.063 9.075 9.074 9.075h15.8c5.012 0 9.074-4.063 9.074-9.075v-13.689c4.243-1.617 8.197-3.817 11.759-6.511l11.602 7.275c4.246 2.663 9.847 1.379 12.509-2.867l8.393-13.385c2.663-4.246 1.379-9.847-2.867-12.509zm-58.37.876c-9.632 0-17.44-7.808-17.44-17.44s7.808-17.44 17.44-17.44 17.44 7.808 17.44 17.44-7.808 17.44-17.44 17.44z" fill="#8d9ca8"/><path d="m314.37 272.564-11.598-7.272c.594-3.006.912-6.111.912-9.292s-.318-6.286-.912-9.292l11.598-7.272c4.246-2.662 5.53-8.263 2.868-12.509l-8.393-13.385c-2.662-4.246-8.263-5.53-12.509-2.868l-11.602 7.275c-3.562-2.694-7.516-4.894-11.759-6.511v-13.69c0-5.012-4.063-9.074-9.074-9.074h-15.801c-5.012 0-9.074 4.063-9.074 9.074v13.69c-4.243 1.617-8.197 3.817-11.759 6.511l-11.602-7.275c-4.246-2.662-9.846-1.378-12.509 2.868l-8.393 13.385c-2.662 4.246-1.378 9.846 2.868 12.509l11.598 7.272c-.594 3.006-.912 6.112-.912 9.292s.318 6.286.912 9.292l-11.598 7.272c-4.246 2.662-5.53 8.263-2.868 12.509l8.393 13.385c2.662 4.246 8.263 5.53 12.509 2.867l11.602-7.275c3.562 2.694 7.516 4.894 11.759 6.511v13.689c0 5.012 4.063 9.075 9.074 9.075h15.8c5.012 0 9.074-4.063 9.074-9.075v-13.689c4.243-1.617 8.197-3.817 11.759-6.511l11.602 7.275c4.246 2.663 9.847 1.379 12.509-2.867l8.393-13.385c2.663-4.246 1.379-9.847-2.867-12.509zm-58.37.876c-9.632 0-17.44-7.808-17.44-17.44s7.808-17.44 17.44-17.44 17.44 7.808 17.44 17.44-7.808 17.44-17.44 17.44z" fill="#8d9ca8"/><path d="m314.37 272.56-11.6-7.27c.6-3 .91-6.11.91-9.29s-.31-6.29-.91-9.29l11.6-7.27c4.25-2.67 5.53-8.27 2.87-12.51l-8.4-13.39c-2.66-4.24-8.26-5.53-12.5-2.87l-11.61 7.28c-3.56-2.7-7.51-4.9-11.76-6.51v-13.69c0-5.01-4.06-9.08-9.07-9.08h-15.8c-4.85 0-8.8 3.81-9.06 8.59 20.53 11.53 34.4 33.52 34.4 58.74s-13.87 47.21-34.4 58.74c.26 4.78 4.21 8.59 9.06 8.59h15.8c5.01 0 9.07-4.07 9.07-9.08v-13.69c4.25-1.61 8.2-3.81 11.76-6.51l11.61 7.28c4.24 2.66 9.84 1.37 12.5-2.87l8.4-13.39c2.66-4.24 1.38-9.84-2.87-12.51z" fill="#7a8c98"/></g><g><path d="m477.941 200.749c18.78 0 34.059-15.278 34.059-34.059v-132.057c0-18.78-15.278-34.059-34.059-34.059h-141.774c-18.78 0-34.059 15.278-34.059 34.059v24.921c-30.001-7.064-62.216-7.064-92.217 0v-24.921c0-18.78-15.278-34.059-34.059-34.059h-141.773c-18.781 0-34.059 15.279-34.059 34.059v14.631c0 4.143 3.357 7.5 7.5 7.5s7.5-3.357 7.5-7.5v-14.631c0-10.509 8.55-19.059 19.059-19.059h141.774c10.509 0 19.059 8.55 19.059 19.059v132.057c.077 11.705-10.411 20.225-21.812 19.059v-26.93c0-22.143-16.338-40.54-37.592-43.773 2.734-4.517 4.309-9.81 4.309-15.464v-23.968c0-12.55-10.225-22.808-22.826-22.865h-24.085c-12.567.058-22.791 10.315-22.791 22.865v23.968c0 5.654 1.576 10.947 4.309 15.464-21.254 3.233-37.593 21.631-37.593 43.773v26.93c-11.401 1.166-21.888-7.355-21.811-19.059v-82.123c0-4.143-3.357-7.5-7.5-7.5s-7.5 3.358-7.5 7.5v82.123c0 18.78 15.278 34.059 34.059 34.059h27.862c-5.087 17.886-7.671 36.423-7.671 55.251s2.584 37.365 7.671 55.251h-27.862c-18.781 0-34.059 15.278-34.059 34.059v132.058c0 18.78 15.278 34.059 34.059 34.059h141.774c18.78 0 34.059-15.278 34.059-34.059v-24.921c30.001 7.064 62.216 7.064 92.217 0v24.921c0 18.78 15.278 34.059 34.059 34.059h10.253c4.143 0 7.5-3.357 7.5-7.5v-34.43c0-16.145 13.134-29.278 29.278-29.278h9.783l-4.687 5.774c-2.61 3.216-2.119 7.939 1.097 10.55s7.94 2.118 10.55-1.097l7.113-8.764 7.114 8.764c2.622 3.23 7.355 3.695 10.55 1.097 3.216-2.611 3.707-7.334 1.097-10.55l-4.688-5.774h9.782c16.145 0 29.278 13.134 29.278 29.278v26.93h-78.528c-4.143 0-7.5 3.357-7.5 7.5s3.357 7.5 7.5 7.5h96.282c18.78 0 34.059-15.278 34.059-34.059v-132.058c0-18.78-15.278-34.059-34.059-34.059h-27.862c5.087-17.886 7.671-36.423 7.671-55.251s-2.584-37.365-7.671-55.251zm-141.774-185.175h141.774c10.509 0 19.059 8.55 19.059 19.059v132.057c.077 11.705-10.411 20.225-21.812 19.059v-26.93c0-22.143-16.338-40.54-37.592-43.773 2.734-4.517 4.309-9.81 4.309-15.464v-23.968c0-12.55-10.225-22.808-22.826-22.865h-24.085c-12.567.058-22.792 10.315-22.792 22.865v23.968c0 5.654 1.576 10.947 4.309 15.464-21.254 3.233-37.592 21.631-37.592 43.773v26.93c-11.401 1.166-21.889-7.355-21.812-19.059v-132.057c.001-10.509 8.551-19.059 19.06-19.059zm51.035 84.008v-23.968c0-4.317 3.526-7.846 7.826-7.865h24.017c4.334.02 7.86 3.548 7.86 7.865v23.968c0 8.248-6.711 14.959-14.959 14.959h-9.785c-8.248 0-14.959-6.711-14.959-14.959zm-116.899 118.863c3.55 1.354 6.883 3.199 9.906 5.485 2.484 1.878 5.87 2.026 8.509.372l11.602-7.274c.732-.463 1.709-.239 2.171.498l8.393 13.385c.462.735.238 1.71-.498 2.171l-11.598 7.271c-2.635 1.652-3.977 4.759-3.373 7.811 1.025 5.169 1.025 10.503 0 15.672-.604 3.052.738 6.158 3.373 7.811l11.598 7.271c.736.461.96 1.436.498 2.171l-8.392 13.384c-.463.737-1.437.961-2.172.5l-11.602-7.275c-2.639-1.655-6.024-1.507-8.509.372-3.023 2.286-6.356 4.132-9.906 5.485-2.907 1.108-4.828 3.896-4.828 7.008v13.689c0 .868-.707 1.574-1.575 1.574h-15.799c-.868 0-1.575-.706-1.575-1.574v-13.689c0-3.111-1.921-5.899-4.828-7.008-3.55-1.354-6.883-3.199-9.906-5.485-2.488-1.882-5.876-2.025-8.509-.372l-11.602 7.274c-.733.461-1.71.237-2.171-.498l-8.393-13.385c-.462-.735-.238-1.71.496-2.171l11.599-7.271c2.636-1.652 3.978-4.759 3.374-7.811-1.025-5.169-1.025-10.503 0-15.672.604-3.052-.738-6.158-3.374-7.811l-11.597-7.271c-.736-.462-.96-1.437-.498-2.172l8.392-13.384c.463-.736 1.437-.961 2.172-.5l11.602 7.275c2.638 1.655 6.024 1.507 8.509-.372 3.023-2.286 6.356-4.132 9.906-5.485 2.907-1.108 4.828-3.896 4.828-7.008v-13.689c0-.868.707-1.574 1.575-1.574h15.799c.868 0 1.575.706 1.575 1.574v13.689c0 3.113 1.921 5.901 4.828 7.009zm-185.208-142.831c0-4.317 3.526-7.846 7.825-7.865h24.017c4.334.02 7.86 3.548 7.86 7.865v23.968c0 8.248-6.711 14.959-14.959 14.959h-9.785c-8.248 0-14.958-6.711-14.958-14.959zm-33.283 83.205c0-16.145 13.134-29.278 29.278-29.278h47.711c16.145 0 29.278 13.134 29.278 29.278v26.93h-106.267zm17.438 97.181c0-18.881 2.802-37.439 8.316-55.251h45.948c-3.452 17.889-5.214 36.427-5.214 55.251s1.762 37.362 5.214 55.251h-45.948c-5.514-17.812-8.316-36.37-8.316-55.251zm-17.438 240.426v-26.93c0-16.145 13.134-29.278 29.278-29.278h16.355v13.571c0 4.143 3.357 7.5 7.5 7.5s7.5-3.357 7.5-7.5v-13.571h16.355c16.145 0 29.278 13.134 29.278 29.278v26.93zm33.283-86.167v-23.968c0-4.317 3.526-7.846 7.825-7.865h24.017c4.334.02 7.86 3.548 7.86 7.865v23.968c0 8.248-6.711 14.959-14.959 14.959h-9.785c-8.248 0-14.958-6.711-14.958-14.959zm90.738 86.167h-2.754v-26.93c0-22.143-16.338-40.54-37.592-43.773 2.734-4.517 4.309-9.81 4.309-15.464v-23.968c0-12.55-10.225-22.808-22.826-22.865h-24.084c-12.567.058-22.791 10.315-22.791 22.865v23.968c0 5.654 1.576 10.947 4.309 15.464-21.254 3.233-37.593 21.631-37.593 43.773v26.93c-11.401 1.166-21.888-7.355-21.811-19.059v-132.057c0-10.509 8.55-19.059 19.059-19.059h141.774c10.509 0 19.059 8.55 19.059 19.059v97.533 34.525c0 10.508-8.55 19.058-19.059 19.058zm0-185.175h-37.024c-3.646-17.827-5.509-36.379-5.509-55.251s1.863-37.424 5.509-55.251h37.024c18.78 0 34.059-15.278 34.059-34.059v-91.695c12.585-3.2 25.521-5.073 38.608-5.591v111.77c-9.276-.22-16.987 7.29-16.975 16.574v8.791c-1.513.749-2.99 1.567-4.428 2.451l-7.448-4.671c-7.741-4.853-17.992-2.504-22.849 5.238l-8.393 13.385c-4.854 7.743-2.505 17.992 5.238 22.849l7.449 4.67c-.372 3.689-.372 7.389 0 11.078l-7.451 4.671c-7.741 4.855-10.091 15.104-5.236 22.848l8.394 13.386c4.854 7.741 15.104 10.093 22.848 5.236l7.448-4.67c1.438.884 2.915 1.702 4.428 2.451v8.791c0 9.139 7.436 16.574 16.575 16.574h.399v111.77c-13.087-.518-26.024-2.391-38.608-5.591v-91.695c.001-18.781-15.278-34.059-34.058-34.059zm87.667 131.345v-111.77h.399c9.14 0 16.575-7.436 16.575-16.574v-8.791c1.513-.749 2.99-1.567 4.428-2.451l7.448 4.671c7.742 4.853 17.992 2.504 22.849-5.238l8.393-13.385c4.854-7.743 2.505-17.993-5.238-22.849l-7.449-4.67c.372-3.688.372-7.39 0-11.078l7.449-4.67c7.743-4.855 10.093-15.105 5.238-22.849l-8.394-13.386c-4.854-7.741-15.104-10.094-22.848-5.236l-7.448 4.67c-1.438-.884-2.915-1.702-4.428-2.451 1.318-12.258-2.413-25.321-16.975-25.365v-111.77c13.087.518 26.024 2.391 38.608 5.591v91.696c0 18.78 15.278 34.059 34.059 34.059h37.024c3.646 17.827 5.509 36.379 5.509 55.251s-1.863 37.424-5.509 55.251h-37.024c-18.78 0-34.059 15.278-34.059 34.059v91.696c-12.583 3.198-25.52 5.071-38.607 5.589zm123.702-32.337v-23.968c0-4.317 3.526-7.846 7.826-7.865h24.017c4.334.02 7.86 3.548 7.86 7.865v23.968c0 8.248-6.711 14.959-14.959 14.959h-9.785c-8.248 0-14.959-6.711-14.959-14.959zm109.798-64.949v132.058c.077 11.705-10.411 20.225-21.812 19.059v-26.93c0-22.143-16.338-40.54-37.592-43.773 2.734-4.517 4.309-9.81 4.309-15.464v-23.968c0-12.55-10.225-22.808-22.826-22.865h-24.085c-12.567.058-22.792 10.315-22.792 22.865v23.968c0 5.654 1.576 10.947 4.309 15.464-21.254 3.233-37.592 21.631-37.592 43.773v26.93c-11.401 1.166-21.889-7.355-21.812-19.059v-132.058c0-10.509 8.55-19.059 19.059-19.059h141.774c10.51 0 19.06 8.55 19.06 19.059zm-54.25-89.31c0 18.881-2.802 37.439-8.316 55.251h-45.948c3.452-17.889 5.214-36.427 5.214-55.251s-1.762-37.362-5.214-55.251h45.948c5.514 17.812 8.316 36.37 8.316 55.251zm-88.83-70.251v-26.93c0-16.145 13.134-29.278 29.278-29.278h47.711c16.145 0 29.278 13.134 29.278 29.278v26.93z"/><path d="m231.06 256c0 13.752 11.188 24.94 24.94 24.94s24.94-11.188 24.94-24.94-11.188-24.94-24.94-24.94-24.94 11.188-24.94 24.94zm34.88 0c0 5.481-4.459 9.94-9.94 9.94s-9.94-4.459-9.94-9.94 4.459-9.94 9.94-9.94 9.94 4.459 9.94 9.94z"/></g></g><g/><g/><g/><g/><g/><g/><g/><g/><g/><g/><g/><g/><g/><g/><g/></svg>