<svg id="Layer_1" enable-background="new 0 0 512 512" height="512" viewBox="0 0 512 512" width="512" xmlns="http://www.w3.org/2000/svg"><g clip-rule="evenodd" fill-rule="evenodd"><g><path d="m167.572 386.226 2.311-21.699 52.698 48.027-62.26 41.757 2.222-20.86c-79.785-8.498-119.498-79.383-95.777-126.451 7.505 51.297 72.723 76.235 100.806 79.226z" fill="#8ac9fe"/><path d="m168.728 375.377 1.155-10.85 52.698 48.027-7.523 5.046zm-108.74-40.866c.26-9.612 2.466-18.955 6.777-27.511 7.506 51.297 72.723 76.235 100.807 79.226l-1.156 10.85c-28.083-2.991-93.302-27.93-100.807-79.226-2.666 5.292-4.525 10.888-5.621 16.661z" fill="#60b7ff"/></g><g><path d="m344.425 125.776-2.311 21.7-52.698-48.027 62.26-41.757-2.221 20.86c79.785 8.497 119.498 79.382 95.778 126.45-7.507-51.296-72.725-76.235-100.808-79.226z" fill="#ffe177"/><path d="m343.269 136.626-1.155 10.85-52.698-48.027 7.523-5.046zm108.74 40.866c-.26 9.612-2.466 18.955-6.777 27.51-7.506-51.297-72.723-76.235-100.807-79.226l1.156-10.85c28.083 2.991 93.301 27.93 100.807 79.226 2.667-5.292 4.525-10.888 5.621-16.66z" fill="#ffd064"/></g><g><path d="m127.865 18.952-106.753 61.634c-3.251 1.877-5.111 5.099-5.111 8.852v123.268c0 3.753 1.86 6.976 5.111 8.852l106.754 61.634c3.25 1.876 6.971 1.876 10.221 0l106.753-61.634c3.25-1.877 5.111-5.099 5.111-8.852v-123.268c0-3.753-1.861-6.976-5.111-8.852l-106.754-61.634c-3.25-1.877-6.971-1.877-10.221 0z" fill="#f2d1a5"/><path d="m127.865 18.952-106.753 61.633c-1.625.938-2.903 2.213-3.774 3.722l115.639 66.764 115.639-66.764c-.871-1.509-2.149-2.784-3.774-3.722l-106.756-61.633c-3.25-1.877-6.97-1.877-10.221 0z" fill="#e3a76f"/><path d="m17.337 84.308c-.871 1.509-1.337 3.253-1.337 5.13v123.268c0 3.753 1.86 6.976 5.111 8.852l106.754 61.634c1.625.938 3.368 1.407 5.111 1.407v-133.527z" fill="#ecba78"/><path d="m208.424 107.511-33.922 19.586-116.975-67.536 33.923-19.585z" fill="#c48958"/><path d="m182.168 175.859 21.145-12.208c3.251-1.876 5.111-5.099 5.111-8.852v-47.287l-33.923 19.585v44.336c0 1.877.93 3.488 2.555 4.426 1.626.938 3.487.938 5.112 0z" fill="#e3a76f"/></g><g><path d="m373.914 228.808-106.754 61.634c-3.251 1.876-5.111 5.099-5.111 8.852v123.268c0 3.753 1.86 6.976 5.111 8.852l106.754 61.634c3.25 1.876 6.971 1.876 10.221 0l106.753-61.634c3.251-1.877 5.111-5.099 5.111-8.852v-123.268c0-3.753-1.861-6.976-5.111-8.852l-106.753-61.634c-3.251-1.876-6.971-1.876-10.221 0z" fill="#f2d1a5"/><path d="m373.914 228.808-106.754 61.634c-1.625.939-2.903 2.213-3.774 3.723l115.638 66.764 115.638-66.764c-.871-1.509-2.149-2.784-3.774-3.723l-106.754-61.634c-3.25-1.876-6.97-1.876-10.22 0z" fill="#e3a76f"/><path d="m263.386 294.165c-.871 1.509-1.337 3.253-1.337 5.129v123.268c0 3.753 1.86 6.976 5.111 8.852l106.754 61.634c1.625.938 3.368 1.407 5.111 1.407v-133.527z" fill="#ecba78"/><path d="m454.473 317.368-33.923 19.585-116.975-67.536 33.923-19.585z" fill="#c48958"/><path d="m428.216 385.715 21.145-12.208c3.251-1.877 5.111-5.099 5.111-8.852v-47.287l-33.923 19.585v44.336c0 1.877.93 3.488 2.556 4.426 1.626.939 3.486.938 5.111 0z" fill="#e3a76f"/></g></g></svg>