<svg id="Layer_1" enable-background="new 0 0 512 512" height="512" viewBox="0 0 512 512" width="512" xmlns="http://www.w3.org/2000/svg"><g clip-rule="evenodd" fill-rule="evenodd"><path d="m506 150.2v282.7h-412.1v-282.7l103-70 103.1-70 103 70z" fill="#dd6e42"/><path d="m134.9 183.2h330.2v249.6h-330.2z" fill="#cccccb"/><path d="m134.9 183.2h330.2v74h-330.2z" fill="#969696"/><path d="m270.9 356.6h97.1v76.2h-97.1z" fill="#e2bc81"/><path d="m309.6 356.6h19.8v57.8h-19.8z" fill="#e5175e"/><path d="m368 356.6h97.1v76.2h-97.1z" fill="#b69867"/><path d="m406.6 356.6h19.8v57.8h-19.8z" fill="#ba1e4e"/><path d="m368 280.4h97.1v76.2h-97.1z" fill="#cba974"/><path d="m406.6 280.4h19.8v57.8h-19.8z" fill="#cf1d56"/><path d="m368 204.2h97.1v76.3h-97.1z" fill="#e2bc81"/><path d="m406.6 204.2h19.8v57.8h-19.8z" fill="#e5175e"/><path d="m270.9 280.4h97.1v76.2h-97.1z" fill="#fbd18f"/><path d="m309.6 280.4h19.8v57.8h-19.8z" fill="#ed1968"/><path d="m300 170.8c22.1 0 40.1-18 40.1-40.1s-18.1-40.1-40.1-40.1c-22.1 0-40.1 18-40.1 40.1s18 40.1 40.1 40.1z" fill="#80311a"/><path d="m300 153.6c22.1 0 40.1-18 40.1-40.1s-18-40.1-40.1-40.1-40.1 18-40.1 40.1 18 40.1 40.1 40.1z" fill="#fdcc9a"/><path d="m71.7 353.5h133.2v104.6h-133.2z" fill="#fcb13b"/><path d="m71.7 248.9h133.2v104.6h-133.2z" fill="#fcb13b"/><path d="m71.7 230.9v227.1h111.4v19h-111.4-19.5v-19-222.8c0-3.8-3.1-6.9-6.9-6.9h-39.3v-19.2h41c14 0 24.7 6.6 24.7 21.8z" fill="#b3b4b4"/><path d="m61.8 501.8c17.8 0 32.3-14.5 32.3-32.3s-14.5-32.3-32.3-32.3-32.3 14.5-32.3 32.3c-.1 17.8 14.5 32.3 32.3 32.3z" fill="#5e5f5f"/><path d="m61.8 479.5c5.5 0 10-4.5 10-10s-4.5-10-10-10-10 4.5-10 10 4.5 10 10 10z" fill="#e6e6e6"/><path d="m71.7 353.5h133.2v30.3h-133.2z" fill="#fbd18f"/><path d="m71.7 248.9h133.2v30.3h-133.2z" fill="#fbd18f"/><g fill="#ed1968"><path d="m124.7 353.5h27.2v79.3h-27.2z"/><path d="m124.7 248.9h27.2v79.3h-27.2z"/></g></g></svg>