<svg id="Layer_1" enable-background="new 0 0 512 512" viewBox="0 0 512 512" xmlns="http://www.w3.org/2000/svg"><g><g><path clip-rule="evenodd" d="m508.358 242.648v52.886h-228.218v-52.886c0-29.08 23.796-52.875 52.875-52.875h122.425c29.122 0 52.918 23.795 52.918 52.875z" fill="#64b9fc" fill-rule="evenodd"/></g><g><path clip-rule="evenodd" d="m340.407 189.773 31.442 23.822 22.397-23.822-28.65-20.418z" fill="#cce4ff" fill-rule="evenodd"/></g><g><path clip-rule="evenodd" d="m448.056 189.773-31.443 23.822-22.367-23.822 28.621-20.418z" fill="#cce4ff" fill-rule="evenodd"/></g><g><path clip-rule="evenodd" d="m404.95 295.532 8.697-16.521-3.694-29.872-3.723-29.872h-11.984-12.013l-3.694 29.872-3.723 29.872 8.697 16.521z" fill="#fe646f" fill-rule="evenodd"/></g><g><path clip-rule="evenodd" d="m394.246 219.267h11.984l2.966-13.583-14.95-15.911-14.98 15.911 2.967 13.583z" fill="#e41f2d" fill-rule="evenodd"/></g><g><path d="m474.086 251.781v43.753h-14.366v-43.753c0-3.961 3.212-7.183 7.183-7.183s7.183 3.222 7.183 7.183z" fill="#31a7fb"/></g><g><path clip-rule="evenodd" d="m396.02 183.956c33.973 0 61.664-34.38 61.664-76.527 0-42.176-27.69-76.556-61.664-76.556-33.944 0-61.664 34.38-61.664 76.556.001 42.147 27.72 76.527 61.664 76.527z" fill="#ffcebf" fill-rule="evenodd"/></g><g><path clip-rule="evenodd" d="m396.02 30.873c34.06 0 61.664 34.264 61.664 76.556 0 42.263-27.603 76.527-61.664 76.527-1.629 0-3.258-.087-4.857-.233 31.763-3.083 56.777-36.067 56.777-76.294 0-40.256-25.014-73.24-56.777-76.323 1.599-.145 3.228-.233 4.857-.233z" fill="#ffb09e" fill-rule="evenodd"/></g><g><path clip-rule="evenodd" d="m334.996 118.337c-53.344-42.525-10.849-121.378 63.845-117.714 46.655 2.298 86.096 30.483 77.254 81.995-4.421 18.528-10.936 30.221-19.139 36.474.931-34.817-6.312-52.123-17.423-65.91-11.111 12.682-25.538 20.768-44.212 23.066-45.956-6.457-64.455 8.843-60.325 42.089z" fill="#407093" fill-rule="evenodd"/></g><g><path clip-rule="evenodd" d="m30.751 146.667 50.727 28.359h28.33 28.33l50.727-28.359c-10.326-15.649-10.064-40.867-5.294-70.128 6.632-40.547-32.723-74.782-73.764-76.032-41.011 1.251-80.365 35.486-73.762 76.032 4.77 29.262 5.061 54.479-5.294 70.128z" fill="#407093" fill-rule="evenodd"/></g><g><path clip-rule="evenodd" d="m3.642 295.532h212.332v-60.267c0-33.13-27.109-60.238-60.238-60.238h-91.826c-33.13 0-60.267 27.109-60.267 60.238v60.267z" fill="#64b9fc" fill-rule="evenodd"/></g><g><path clip-rule="evenodd" d="m109.808 258.825 28.505-83.799h-57.01z" fill="#f2fbff" fill-rule="evenodd"/></g><g><path clip-rule="evenodd" d="m81.245 131.833h57.126v43.194h-57.126z" fill="#ffcebf" fill-rule="evenodd"/></g><g><path clip-rule="evenodd" d="m162.193 83.695c.931 4.77 1.425 9.744 1.425 14.834 0 36.096-24.694 65.357-55.148 65.357s-55.177-29.261-55.177-65.357c0-7.65 1.135-14.98 3.171-21.786 1.251-4.188 5.177-6.864 9.511-6.457 34.613 3.2 55.672-4.799 64.863-22.629.058 19.72 14.019 35.718 31.355 36.038z" fill="#ffcebf" fill-rule="evenodd"/></g><g><path clip-rule="evenodd" d="m59.779 206.731 50.029 52.094-28.505-83.798h-1.716-15.677c-4.334 0-8.58.465-12.653 1.338l20.884 19.197z" fill="#31a7fb" fill-rule="evenodd"/></g><g><path clip-rule="evenodd" d="m159.837 206.731-50.029 52.094 28.505-83.798h1.745 15.648c4.363 0 8.581.465 12.682 1.338l-20.884 19.197z" fill="#31a7fb" fill-rule="evenodd"/></g><g><path clip-rule="evenodd" d="m382.002 420.576v58.406h-252.012v-58.406c0-32.107 26.268-58.406 58.406-58.406h135.2c32.138 0 58.406 26.299 58.406 58.406z" fill="#cce4ff" fill-rule="evenodd"/></g><g><path clip-rule="evenodd" d="m196.545 362.169 34.729 26.324 24.723-26.324-31.617-22.513z" fill="#9dc6fb" fill-rule="evenodd"/></g><g><path clip-rule="evenodd" d="m315.45 362.169-34.729 26.324-24.724-26.324 31.618-22.513z" fill="#9dc6fb" fill-rule="evenodd"/></g><g><path clip-rule="evenodd" d="m267.836 478.981 9.598-18.266-4.101-32.955-4.101-32.984h-13.235-13.234l-4.101 32.984-4.101 32.955 9.598 18.266z" fill="#fe646f" fill-rule="evenodd"/></g><g><path clip-rule="evenodd" d="m255.997 394.776h13.235l3.286-15.009-16.521-17.598-16.521 17.598 3.287 15.009z" fill="#e41f2d" fill-rule="evenodd"/></g><g><path d="m182.937 430.673v48.309h-14.376v-48.309c0-3.971 3.222-7.193 7.183-7.193 3.971 0 7.193 3.222 7.193 7.193z" fill="#9dc6fb"/></g><g><path clip-rule="evenodd" d="m257.975 355.77c37.493 0 68.092-37.987 68.092-84.526 0-46.568-30.599-84.526-68.092-84.526s-68.092 37.958-68.092 84.526c.001 46.539 30.6 84.526 68.092 84.526z" fill="#ffcebf" fill-rule="evenodd"/></g><g><path clip-rule="evenodd" d="m257.975 186.719c37.609 0 68.092 37.842 68.092 84.526s-30.483 84.526-68.092 84.526c-1.803 0-3.607-.087-5.381-.262 35.078-3.403 62.711-39.849 62.711-84.264 0-44.444-27.632-80.861-62.711-84.264 1.775-.174 3.578-.262 5.381-.262z" fill="#ffb09e" fill-rule="evenodd"/></g><g><path clip-rule="evenodd" d="m190.582 283.287c-58.9-46.946-11.984-134.031 70.506-129.988 51.512 2.531 95.084 33.653 85.311 90.547-4.887 20.477-12.071 33.391-21.146 40.314 1.018-38.482-6.981-57.591-19.255-72.804-12.245 13.991-28.185 22.949-48.807 25.451-50.757-7.127-71.176 9.802-66.609 46.48z" fill="#407093" fill-rule="evenodd"/></g><g><path clip-rule="evenodd" d="m408.091 345.881v13.642c8.581 1.803 16.58 5.177 23.677 9.831l9.657-9.657c7.97 5.585 14.921 12.536 20.506 20.506l-9.657 9.657c4.654 7.097 8.028 15.096 9.831 23.676h13.642c.843 4.712 1.251 9.57 1.251 14.514 0 4.945-.407 9.802-1.251 14.514h-13.642c-1.803 8.581-5.177 16.579-9.831 23.677l9.657 9.657c-5.585 7.97-12.536 14.921-20.506 20.506l-9.657-9.628c-7.097 4.625-15.125 7.999-23.677 9.802v13.671c-4.712.814-9.569 1.251-14.514 1.251s-9.802-.436-14.514-1.251v-13.671c-8.581-1.803-16.579-5.177-23.677-9.802l-9.657 9.628c-7.97-5.585-14.921-12.536-20.535-20.506l9.657-9.657c-4.625-7.097-7.999-15.096-9.802-23.677h-13.671c-.814-4.712-1.251-9.569-1.251-14.514s.436-9.802 1.251-14.514h13.671c1.803-8.581 5.177-16.579 9.802-23.676l-9.657-9.657c5.614-7.97 12.566-14.921 20.535-20.506l9.657 9.657c7.097-4.654 15.096-8.028 23.677-9.831v-13.642c4.712-.843 9.569-1.28 14.514-1.28s9.802.437 14.514 1.28z" fill="#64b9fc" fill-rule="evenodd"/></g><g><path clip-rule="evenodd" d="m393.577 386.34c23.037 0 41.71 18.674 41.71 41.71 0 23.037-18.674 41.71-41.71 41.71-23.037 0-41.71-18.674-41.71-41.71s18.673-41.71 41.71-41.71z" fill="#f2fbff" fill-rule="evenodd"/></g><g><path clip-rule="evenodd" d="m162.193 83.695c.931 4.77 1.425 9.744 1.425 14.834 0 36.096-24.694 65.357-55.148 65.357-1.338 0-2.647-.058-3.985-.145 28.621-2.414 51.192-30.686 51.192-65.212 0-5.09-.495-10.064-1.425-14.834-14.456-.262-26.585-11.489-30.221-26.672 2.734-2.734 5.003-5.875 6.806-9.366.059 19.72 14.02 35.718 31.356 36.038zm-99.738-13.06c1.105-.32 2.298-.465 3.519-.349 3.519.32 6.893.553 10.122.64-4.275.145-8.812.029-13.641-.291z" fill="#ffb09e" fill-rule="evenodd"/></g><g><path clip-rule="evenodd" d="m393.577 386.34c23.037 0 41.71 18.674 41.71 41.71 0 23.037-18.674 41.71-41.71 41.71-.989 0-1.949-.029-2.88-.087 21.67-1.483 38.802-19.546 38.802-41.623 0-22.048-17.132-40.11-38.802-41.594.931-.087 1.891-.116 2.88-.116z" fill="#cce4ff" fill-rule="evenodd"/></g></g></svg>