<svg enable-background="new 0 0 512 512" height="512" viewBox="0 0 512 512" width="512" xmlns="http://www.w3.org/2000/svg" xmlns:xlink="http://www.w3.org/1999/xlink"><linearGradient id="SVGID_1_" gradientUnits="userSpaceOnUse" x1="1.331" x2="510.669" y1="1.331" y2="510.669"><stop offset="0" stop-color="#05ade4"/><stop offset="1" stop-color="#803de7"/></linearGradient><g id="Backup" display="none"><g display="inline"><g><g><path d="m4 4.319h218.311v218.313h-218.311z" fill="#ffd15b"/><path d="m141.552 68.863-28.396-16.665-28.395 16.665v-64.544h56.791z" fill="#935b50"/><g style="fill:none;stroke:#000;stroke-width:8;stroke-linecap:round;stroke-linejoin:round;stroke-miterlimit:10"><path d="m4 4.319h218.311v218.313h-218.311z"/><path d="m141.552 6.436v62.427l-28.396-16.665-28.395 16.665v-62.427"/></g></g><g><path d="m4 289.367h218.311v218.313h-218.311z" fill="#6fd7a3"/><path d="m141.552 353.912-28.396-16.665-28.395 16.665v-64.545h56.791z" fill="#935b50"/><g style="fill:none;stroke:#000;stroke-width:8;stroke-linecap:round;stroke-linejoin:round;stroke-miterlimit:10"><path d="m4 289.367h218.311v218.313h-218.311z"/><path d="m141.552 291.484v62.428l-28.396-16.665-28.395 16.665v-62.428"/></g></g><g><path d="m289.688 4.319h218.312v218.313h-218.312z" fill="#fd4755"/><path d="m427.241 68.863-28.395-16.665-28.396 16.665v-64.544h56.791z" fill="#935b50"/><g style="fill:none;stroke:#000;stroke-width:8;stroke-linecap:round;stroke-linejoin:round;stroke-miterlimit:10"><path d="m289.688 4.319h218.312v218.313h-218.312z"/><path d="m427.241 6.436v62.427l-28.395-16.665-28.396 16.665v-62.427"/></g></g><g><path d="m289.688 289.367h218.312v218.313h-218.312z" fill="#01d0fb"/><path d="m427.241 353.912-28.395-16.665-28.396 16.665v-64.545h56.791z" fill="#935b50"/><g style="fill:none;stroke:#000;stroke-width:8;stroke-linecap:round;stroke-linejoin:round;stroke-miterlimit:10"><path d="m289.688 289.367h218.312v218.313h-218.312z"/><path d="m427.241 291.484v62.428l-28.395-16.665-28.396 16.665v-62.428"/></g></g></g><g><g><path d="m256 401.356 125.883-72.677v-145.358l-125.883 72.679z" fill="#ffcebf"/><path d="m178.817 249.421 30.97 17.88v-37.982l125.883-72.679-30.969-17.881-125.884 72.679z" fill="#935b50"/><path d="m209.787 229.319v37.982l-30.97-17.88v-37.983l125.884-72.679-48.701-28.115-125.883 72.677 48.698 28.117-48.698-28.117v145.358l125.883 72.677v-145.356l-46.211-26.681 46.211 26.681 125.883-72.679-46.213-26.681z" fill="#ffcebf"/></g><g style="fill:none;stroke:#000;stroke-width:8;stroke-linecap:round;stroke-linejoin:round;stroke-miterlimit:10"><path d="m130.117 183.321 125.883-72.677 125.883 72.677v145.358l-125.883 72.677-125.883-72.677z"/><path d="m381.883 183.321-125.883 72.679"/><path d="m304.701 138.759-125.884 72.679"/><path d="m335.67 156.64-125.883 72.679"/><path d="m209.789 229.319 46.211 26.681"/><path d="m130.117 183.321 48.698 28.117"/><path d="m256 401.356v-145.356"/><path d="m209.787 229.319v37.982l-30.97-17.88v-37.983"/></g></g></g></g><g id="Main" display="none"><g display="inline"><g><g><path d="m4 4.319h218.311v218.313h-218.311z" fill="#ffd15b"/><path d="m141.552 68.863-28.396-16.665-28.395 16.665v-64.544h56.791z" fill="#935b50"/><g style="fill:none;stroke:#000;stroke-width:8;stroke-linecap:round;stroke-linejoin:round;stroke-miterlimit:10"><path d="m4 4.319h218.311v218.313h-218.311z"/><path d="m141.552 6.436v62.427l-28.396-16.665-28.395 16.665v-62.427"/></g></g><g><path d="m4 289.367h218.311v218.313h-218.311z" fill="#6fd7a3"/><path d="m141.552 353.912-28.396-16.665-28.395 16.665v-64.545h56.791z" fill="#935b50"/><g style="fill:none;stroke:#000;stroke-width:8;stroke-linecap:round;stroke-linejoin:round;stroke-miterlimit:10"><path d="m4 289.367h218.311v218.313h-218.311z"/><path d="m141.552 291.484v62.428l-28.396-16.665-28.395 16.665v-62.428"/></g></g><g><path d="m289.688 4.319h218.312v218.313h-218.312z" fill="#fd4755"/><path d="m427.241 68.863-28.395-16.665-28.396 16.665v-64.544h56.791z" fill="#935b50"/><g style="fill:none;stroke:#000;stroke-width:8;stroke-linecap:round;stroke-linejoin:round;stroke-miterlimit:10"><path d="m289.688 4.319h218.312v218.313h-218.312z"/><path d="m427.241 6.436v62.427l-28.395-16.665-28.396 16.665v-62.427"/></g></g><g><path d="m289.688 289.367h218.312v218.313h-218.312z" fill="#01d0fb"/><path d="m427.241 353.912-28.395-16.665-28.396 16.665v-64.545h56.791z" fill="#935b50"/><g style="fill:none;stroke:#000;stroke-width:8;stroke-linecap:round;stroke-linejoin:round;stroke-miterlimit:10"><path d="m289.688 289.367h218.312v218.313h-218.312z"/><path d="m427.241 291.484v62.428l-28.395-16.665-28.396 16.665v-62.428"/></g></g></g><g><g><path d="m256 401.356 125.883-72.677v-145.358l-125.883 72.679z" fill="#ffcebf"/><path d="m178.817 249.421 30.97 17.88v-37.982l125.883-72.679-30.969-17.881-125.884 72.679z" fill="#935b50"/><path d="m209.787 229.319v37.982l-30.97-17.88v-37.983l125.884-72.679-48.701-28.115-125.883 72.677 48.698 28.117-48.698-28.117v145.358l125.883 72.677v-145.356l-46.211-26.681 46.211 26.681 125.883-72.679-46.213-26.681z" fill="#ffcebf"/></g><g style="fill:none;stroke:#000;stroke-width:8;stroke-linecap:round;stroke-linejoin:round;stroke-miterlimit:10"><path d="m130.117 183.321 125.883-72.677 125.883 72.677v145.358l-125.883 72.677-125.883-72.677z"/><path d="m381.883 183.321-125.883 72.679"/><path d="m304.701 138.759-125.884 72.679"/><path d="m335.67 156.64-125.883 72.679"/><path d="m209.789 229.319 46.211 26.681"/><path d="m130.117 183.321 48.698 28.117"/><path d="m256 401.356v-145.356"/><path d="m209.787 229.319v37.982l-30.97-17.88v-37.983"/></g></g></g></g><g id="Shadow"><g><g><g><path d="m4 4.319h218.311v218.313h-218.311z" fill="#ffd15b"/><path d="m141.552 68.863-28.396-16.665-28.395 16.665v-64.544h56.791z" fill="#935b50"/></g><g><path d="m4 289.367h218.311v218.313h-218.311z" fill="#6fd7a3"/><path d="m141.552 353.912-28.396-16.665-28.395 16.665v-64.545h56.791z" fill="#935b50"/></g><g><path d="m289.688 4.319h218.312v218.313h-218.312z" fill="#fd4755"/><path d="m427.241 68.863-28.395-16.665-28.396 16.665v-64.544h56.791z" fill="#935b50"/></g><g><path d="m289.688 289.367h218.312v218.313h-218.312z" fill="#01d0fb"/><path d="m427.241 353.912-28.395-16.665-28.396 16.665v-64.545h56.791z" fill="#935b50"/></g></g><g><g><path d="m256 401.356 125.883-72.677v-145.358l-125.883 72.679z" fill="#ffcebf"/><path d="m178.817 249.421 30.97 17.88v-37.982l125.883-72.679-30.969-17.881-125.884 72.679z" fill="#935b50"/><path d="m209.787 229.319v37.982l-30.97-17.88v-37.983l125.884-72.679-48.701-28.115-125.883 72.677 48.698 28.117-48.698-28.117v145.358l125.883 72.677v-145.356l-46.211-26.681 46.211 26.681 125.883-72.679-46.213-26.681z" fill="#ffcebf"/></g></g></g></g><g id="Line" style="display:none;fill:none;stroke:#000;stroke-width:8;stroke-linecap:round;stroke-linejoin:round;stroke-miterlimit:10"><path d="m4 4.319h218.311v218.313h-218.311z" display="inline"/><path d="m141.552 6.436v62.427l-28.396-16.665-28.395 16.665v-62.427" display="inline"/><path d="m4 289.367h218.311v218.313h-218.311z" display="inline"/><path d="m141.552 291.484v62.428l-28.396-16.665-28.395 16.665v-62.428" display="inline"/><path d="m289.688 4.319h218.312v218.313h-218.312z" display="inline"/><path d="m427.241 6.436v62.427l-28.395-16.665-28.396 16.665v-62.427" display="inline"/><path d="m289.688 289.367h218.312v218.313h-218.312z" display="inline"/><path d="m427.241 291.484v62.428l-28.395-16.665-28.396 16.665v-62.428" display="inline"/><g display="inline"><path d="m130.117 183.321 125.883-72.677 125.883 72.677v145.358l-125.883 72.677-125.883-72.677z"/><path d="m381.883 183.321-125.883 72.679"/><path d="m304.701 138.759-125.884 72.679"/><path d="m335.67 156.64-125.883 72.679"/><path d="m209.789 229.319 46.211 26.681"/><path d="m130.117 183.321 48.698 28.117"/><path d="m256 401.356v-145.356"/><path d="m209.787 229.319v37.982l-30.97-17.88v-37.983"/></g></g><g id="Base"><path d="m18 208.633v-200.314h62.761v55.544c0 3.218 1.735 6.211 4.527 7.811 1.361.778 2.907 1.189 4.473 1.189 1.6 0 3.175-.428 4.555-1.237l23.84-13.992 23.84 13.992c1.381.81 2.956 1.237 4.555 1.237 1.566 0 3.112-.411 4.471-1.188 2.794-1.601 4.529-4.594 4.529-7.812v-55.544h62.759v111.578l-87.694 50.63c-.225.129-.455.281-.681.441-.092.062-.182.125-.269.191-.399.304-.774.646-1.147 1.049-.084.091-.174.194-.264.3-.697.823-1.237 1.757-1.603 2.774-.043.118-.087.249-.128.379-.16.518-.269 1.009-.333 1.503-.013.099-.024.223-.033.339-.022.219-.043.518-.043.817v30.312h-108.115z" fill="#fee45a"/><path d="m122.711 39.436c-1.382-.81-2.957-1.237-4.555-1.237s-3.173.428-4.552 1.235l-14.843 8.712v-39.827h38.791v39.826z" fill="#ab695d"/><path d="m18 493.681v-200.314h62.761v55.545c0 3.218 1.735 6.211 4.527 7.811 1.361.778 2.907 1.189 4.473 1.189 1.6 0 3.175-.428 4.555-1.237l23.84-13.992 23.84 13.992c1.381.81 2.956 1.237 4.555 1.237 1.566 0 3.112-.411 4.471-1.188 2.794-1.601 4.529-4.594 4.529-7.812v-3.043l62.759 36.233v111.578h-200.31z" fill="#9be69d"/><path d="m98.761 293.367h27.355v30.312c0 1.086.198 2.147.568 3.138l-3.973-2.332c-1.382-.81-2.957-1.237-4.555-1.237s-3.173.428-4.552 1.235l-14.843 8.712z" fill="#ab695d"/><path d="m395.883 208.633v-30.312c0-.277-.017-.554-.044-.826-.008-.119-.021-.246-.034-.347-.062-.477-.17-.969-.331-1.485-.041-.134-.086-.264-.133-.394-.36-1.004-.899-1.938-1.599-2.763-.089-.104-.18-.209-.273-.31-.363-.391-.737-.733-1.134-1.035-.074-.056-.171-.125-.263-.187-.2-.144-.436-.301-.683-.444l-87.702-50.634v-111.577h62.762v55.544c0 3.218 1.735 6.211 4.527 7.811 1.361.778 2.907 1.189 4.473 1.189 1.6 0 3.174-.428 4.554-1.236l23.842-13.993 23.84 13.992c1.382.81 2.957 1.237 4.556 1.237 1.566 0 3.112-.411 4.471-1.189 2.793-1.6 4.528-4.593 4.528-7.811v-55.544h62.76v200.313h-108.117z" fill="#fe646f"/><path d="m384.45 8.319h38.791v39.826l-14.84-8.71c-1.382-.81-2.957-1.237-4.555-1.237s-3.173.428-4.552 1.235l-14.843 8.712v-39.826z" fill="#ab695d"/><path d="m303.688 493.681v-111.578l62.762-36.235v3.045c0 3.218 1.735 6.211 4.527 7.811 1.361.778 2.907 1.189 4.473 1.189 1.6 0 3.174-.428 4.554-1.236l23.842-13.993 23.84 13.992c1.38.81 2.955 1.237 4.555 1.237 1.566 0 3.113-.411 4.472-1.189 2.793-1.6 4.528-4.593 4.528-7.811v-55.545h62.759v200.313z" fill="#62dbfb"/><path d="m408.401 324.484c-1.382-.81-2.957-1.237-4.555-1.237s-3.173.428-4.552 1.235l-3.978 2.335c.37-.99.568-2.052.568-3.139v-30.312h27.357v39.827z" fill="#ab695d"/><path d="m270 256.195 107.883-62.286v124.573l-107.883 62.286z" fill="#ffdfcf"/><path d="m192.817 239.225v-27.592l116.881-67.48 12.971 7.488-112.382 64.885c-.125.072-.267.164-.401.258-.094.061-.197.129-.297.199-.212.153-.363.273-.514.398-.148.121-.312.262-.469.41-.114.107-.241.235-.366.368-.148.157-.281.313-.412.474-.114.137-.243.299-.363.468-.077.109-.148.216-.217.323-.083.118-.163.241-.237.368-.073.126-.15.272-.219.42-.066.127-.131.257-.192.392-.071.154-.148.346-.22.54-.087.235-.144.399-.195.566-.05.165-.098.339-.141.517-.053.224-.091.431-.125.642-.035.214-.062.397-.079.583-.011.101-.02.225-.027.356-.016.168-.025.338-.025.512v22.394z" fill="#ab695d"/><g fill="#ffdfcf"><path d="m144.117 318.482v-124.573l30.701 17.726v32.786c0 3.207 1.725 6.193 4.502 7.795l30.968 17.879c1.365.789 2.921 1.206 4.5 1.206 1.578 0 3.135-.417 4.501-1.207 2.773-1.6 4.499-4.586 4.499-7.793v-22.395l28.212 16.289v124.572z"/><path d="m153.117 178.321 107.883-62.285 30.699 17.724-107.883 62.286z"/><path d="m232.788 224.318 107.881-62.286 28.214 16.289-107.883 62.286z"/></g></g><g id="Blue" display="none"><path d="m126.117 183.321c0-.14.013-.278.028-.415.003-.033.002-.066.006-.1.029-.227.083-.448.15-.664.018-.057.038-.113.058-.17.162-.45.402-.867.712-1.232.038-.045.076-.09.116-.133.154-.166.318-.324.5-.463.028-.021.059-.039.088-.06.11-.079.221-.159.341-.228l90.194-52.073v-119.464h-72.759v60.544c0 1.435-.768 2.759-2.012 3.472-.616.353-1.302.528-1.988.528-.7 0-1.4-.184-2.024-.55l-26.371-15.478-26.37 15.478c-1.236.726-2.767.734-4.012.021s-2.012-2.037-2.012-3.472v-60.543h-72.762v210.313h118.117z" display="inline" fill="#fff"/><path d="m111.132 48.748c1.25-.732 2.799-.732 4.049 0l22.371 13.13v-53.559h-48.791v53.559z" display="inline" fill="#9bc9ff"/><path d="m145.552 342.209v11.703c0 1.435-.768 2.759-2.012 3.472-.616.353-1.302.528-1.988.528-.7 0-1.4-.184-2.024-.55l-26.371-15.478-26.371 15.478c-1.236.726-2.767.734-4.012.021s-2.012-2.037-2.012-3.472v-60.545h-72.762v210.313h210.311v-119.463z" display="inline" fill="#fff"/><path d="m88.761 293.367v53.56l22.371-13.13c1.25-.732 2.799-.732 4.049 0l22.371 13.13v-9.337l-9.435-5.447c-1.238-.714-2-2.035-2-3.464v-35.312z" display="inline" fill="#9bc9ff"/><path d="m431.241 68.863c0 1.435-.768 2.759-2.012 3.472-1.245.713-2.776.703-4.012-.021l-26.371-15.478-26.371 15.478c-.625.366-1.324.55-2.024.55-.686 0-1.372-.176-1.988-.528-1.245-.713-2.012-2.037-2.012-3.472v-60.545h-72.762v119.465l90.195 52.073c.12.069.231.148.341.229.029.021.06.037.087.059.183.139.347.297.5.463.04.043.078.088.116.133.31.365.55.782.712 1.232.021.057.041.113.058.17.067.216.121.438.15.664.004.033.003.066.006.1.015.137.028.275.028.415v35.312h118.118v-210.315h-72.759z" display="inline" fill="#fff"/><path d="m396.821 48.748c1.25-.732 2.799-.732 4.049 0l22.371 13.13v-53.559h-48.791v53.559z" display="inline" fill="#9bc9ff"/><path d="m431.241 353.912c0 1.435-.768 2.759-2.012 3.472-1.245.713-2.776.704-4.012-.021l-26.371-15.478-26.371 15.478c-.625.366-1.324.55-2.024.55-.686 0-1.372-.176-1.988-.528-1.245-.713-2.012-2.037-2.012-3.472v-11.705l-72.762 42.009v119.465h210.311v-210.315h-72.759z" display="inline" fill="#fff"/><path d="m385.883 328.679c0 1.429-.762 2.75-2 3.464l-9.433 5.446v9.338l22.371-13.13c1.25-.732 2.799-.732 4.049 0l22.371 13.13v-53.56h-37.357v35.312z" display="inline" fill="#9bc9ff"/><path d="m377.883 190.249-117.883 68.06v136.119l117.883-68.059z" display="inline" fill="#fff"/><path d="m182.817 213.746v33.365l22.97 13.262v-31.054c0-.045.012-.086.013-.131.003-.089.007-.177.016-.265.008-.082.022-.163.035-.244.016-.096.031-.189.053-.282.019-.079.041-.156.064-.234.023-.077.051-.152.079-.229.034-.091.067-.182.107-.27.037-.082.079-.159.122-.237.019-.035.028-.073.048-.107s.048-.062.068-.095c.047-.076.092-.15.144-.223.056-.078.117-.15.179-.225.054-.066.108-.131.166-.192.054-.058.109-.113.166-.167.067-.063.138-.122.209-.181.07-.058.139-.114.211-.167.069-.049.141-.094.213-.139.037-.023.067-.054.105-.076l119.882-69.215-22.971-13.262z" display="inline" fill="#9bc9ff"/><g fill="#fff"><path d="m252 394.428v-136.119l-38.213-22.063v31.055c0 1.429-.762 2.75-2 3.464-.619.357-1.31.536-2 .536s-1.381-.179-2-.536l-30.97-17.88c-1.238-.714-2-2.035-2-3.464v-35.673l-40.701-23.499v136.12z" display="inline"/><path d="m256 115.263-117.883 68.058 40.699 23.498 117.883-68.059z" display="inline"/><path d="m373.883 183.321-38.214-22.062-117.881 68.059 38.212 22.063z" display="inline"/></g></g><g id="Glyph" display="none"><path d="m121.927 217.428h-121.927v-217.098h75.108v62.496c0 1.481.792 2.849 2.077 3.584 1.286.736 2.865.727 4.142-.022l27.221-15.977 27.222 15.977c.645.379 1.367.568 2.09.568.708 0 1.416-.182 2.052-.546 1.285-.735 2.077-2.103 2.077-3.584v-62.496h75.106v123.318l-93.104 53.753c-.123.07-.238.153-.352.234-.03.021-.062.04-.091.062-.188.144-.358.307-.517.479-.042.044-.081.091-.12.137-.319.377-.568.808-.735 1.272-.021.059-.042.116-.06.175-.069.223-.125.452-.155.686-.005.034-.004.068-.007.104-.015.141-.029.284-.029.428v36.45zm-15.469-175.365c1.291-.756 2.889-.756 4.18 0l23.093 13.554v-55.287h-50.365v55.286zm35.531 302.927v12.08c0 1.481-.792 2.848-2.077 3.584-.636.364-1.344.545-2.052.545-.723 0-1.445-.189-2.09-.567l-27.222-15.977-27.221 15.977c-1.276.749-2.856.758-4.142.022-1.285-.736-2.077-2.103-2.077-3.584v-62.498h-75.108v217.098h217.095v-123.318zm-58.623-50.418v55.287l23.092-13.553c1.291-.756 2.889-.756 4.18 0l23.093 13.553v-9.638l-9.74-5.623c-1.277-.736-2.064-2.101-2.064-3.575v-36.451zm353.528-231.746c0 1.481-.792 2.849-2.077 3.584-1.285.736-2.865.726-4.142-.022l-27.221-15.977-27.222 15.977c-.645.379-1.367.568-2.09.568-.708 0-1.416-.182-2.052-.546-1.285-.735-2.077-2.103-2.077-3.584v-62.496h-75.109v123.318l93.104 53.753c.123.071.238.153.352.235.03.021.062.039.09.061.188.144.358.307.517.479.042.044.081.091.12.137.319.377.568.808.735 1.272.021.059.042.116.06.175.069.223.125.452.155.686.005.034.004.068.007.104.015.141.029.284.029.428v36.451h121.927v-217.099h-75.106zm-35.53-20.763c1.291-.756 2.889-.756 4.18 0l23.092 13.554v-55.287h-50.365v55.286zm35.53 315.007c0 1.481-.792 2.848-2.077 3.584-1.285.735-2.865.727-4.142-.022l-27.221-15.977-27.222 15.977c-.645.378-1.367.567-2.09.567-.708 0-1.416-.181-2.052-.545-1.285-.736-2.077-2.103-2.077-3.584v-12.082l-75.109 43.363v123.319h217.096v-217.098h-75.106zm-46.821-26.047c0 1.475-.787 2.839-2.064 3.575l-9.738 5.622v9.639l23.093-13.553c1.291-.756 2.889-.756 4.18 0l23.092 13.553v-55.287h-38.563zm-8.258-142.895-121.686 70.255v140.511l121.686-70.255zm-201.358 24.255v34.441l23.711 13.689v-32.055c0-.047.012-.089.014-.136.003-.092.007-.182.017-.272.008-.085.022-.169.036-.252.016-.1.032-.196.054-.292.02-.081.042-.161.067-.242.024-.079.052-.157.082-.236.035-.094.069-.188.111-.278.039-.085.082-.164.125-.245.02-.036.029-.075.05-.11.021-.036.049-.063.071-.099.048-.078.095-.154.148-.229.058-.08.121-.155.185-.231.056-.068.111-.136.171-.199.056-.06.112-.116.171-.172.069-.065.142-.126.216-.187.072-.06.143-.118.218-.173.071-.05.146-.097.22-.143.038-.024.069-.056.109-.079l123.75-71.447-23.712-13.689zm71.414 186.511v-140.511l-39.446-22.774v32.057c0 1.475-.787 2.839-2.064 3.576-.639.369-1.352.553-2.064.553s-1.426-.184-2.064-.553l-31.969-18.457c-1.278-.736-2.064-2.101-2.064-3.575v-36.824l-42.014-24.257v140.511zm4.129-288.171-121.686 70.254 42.013 24.256 121.686-70.255zm121.686 70.254-39.447-22.774-121.684 70.256 39.445 22.772z" display="inline"/></g><g id="Outline"><path d="m508 .319h-218.312c-2.209 0-4 1.791-4 4v118.847l-27.688-15.986c-1.237-.715-2.763-.715-4 0l-27.689 15.986v-118.847c0-2.209-1.791-4-4-4h-218.311c-2.209 0-4 1.791-4 4v218.313c0 2.209 1.791 4 4 4h122.117v58.734h-122.117c-2.209 0-4 1.791-4 4v218.313c0 2.209 1.791 4 4 4h218.311c2.209 0 4-1.791 4-4v-118.845l27.689 15.986c.121.07.247.127.372.184.031.014.06.031.091.044.211.089.429.151.649.202.059.014.118.023.178.035.235.042.472.071.71.071s.475-.029.71-.071c.06-.012.119-.021.178-.035.22-.051.438-.113.649-.202.031-.013.06-.03.091-.044.126-.057.251-.113.372-.184l27.688-15.986v118.847c0 2.209 1.791 4 4 4h218.312c2.209 0 4-1.791 4-4v-218.314c0-2.209-1.791-4-4-4h-122.117v-58.734h122.117c2.209 0 4-1.791 4-4v-218.314c0-2.209-1.791-4-4-4zm-4 218.314h-118.117v-35.312c0-.14-.013-.278-.028-.415-.003-.033-.002-.066-.006-.1-.029-.227-.083-.448-.15-.664-.018-.057-.038-.113-.058-.17-.162-.45-.402-.867-.712-1.232-.038-.045-.076-.09-.116-.133-.154-.166-.318-.324-.5-.463-.028-.021-.059-.038-.087-.059-.11-.08-.222-.159-.341-.229l-90.195-52.073v-119.464h72.762v60.544c0 1.435.768 2.759 2.012 3.472.616.353 1.302.528 1.988.528.7 0 1.4-.184 2.024-.55l26.371-15.478 26.371 15.478c1.236.725 2.767.734 4.012.021s2.012-2.037 2.012-3.472v-60.543h72.758zm0 285.048h-210.312v-119.465l72.762-42.009v11.705c0 1.435.768 2.759 2.012 3.472.616.353 1.302.528 1.988.528.7 0 1.4-.184 2.024-.55l26.371-15.478 26.371 15.478c1.236.726 2.767.734 4.012.021s2.012-2.037 2.012-3.472v-60.545h72.76zm-80.759-156.754-22.371-13.13c-1.25-.732-2.799-.732-4.049 0l-22.371 13.13v-9.338l9.433-5.446c1.238-.714 2-2.035 2-3.464v-35.312h37.357v53.56zm-45.358-20.558-117.883 68.059v-136.119l117.883-68.06zm-369.883 177.312v-210.314h72.761v60.545c0 1.435.768 2.759 2.012 3.472 1.246.713 2.776.704 4.012-.021l26.371-15.478 26.371 15.478c.625.366 1.324.55 2.024.55.686 0 1.372-.176 1.988-.528 1.245-.713 2.012-2.037 2.012-3.472v-11.703l72.759 42.007v119.465h-210.31zm120.117-171.538 9.435 5.447v9.337l-22.371-13.13c-1.25-.732-2.799-.732-4.049 0l-22.371 13.13v-53.56h37.355v35.312c.001 1.428.763 2.75 2.001 3.464zm6-5.774v-136.12l40.701 23.499v35.673c0 1.429.762 2.75 2 3.464l30.97 17.88c.619.357 1.31.536 2 .536s1.381-.179 2-.536c1.238-.714 2-2.035 2-3.464v-31.055l38.212 22.063v136.119zm3.435-318.05v53.559l-22.371-13.13c-1.25-.732-2.799-.732-4.049 0l-22.371 13.13v-53.559zm-129.552 0h72.761v60.544c0 1.435.768 2.759 2.012 3.472 1.246.713 2.776.704 4.012-.021l26.371-15.478 26.371 15.478c.625.366 1.324.55 2.024.55.686 0 1.372-.176 1.988-.528 1.245-.713 2.012-2.037 2.012-3.472v-60.545h72.759v119.465l-90.194 52.073c-.12.068-.23.148-.341.228-.029.021-.06.038-.088.06-.183.139-.347.297-.5.463-.04.043-.078.088-.116.133-.31.365-.55.782-.712 1.232-.021.057-.041.113-.058.17-.067.216-.121.438-.15.664-.004.033-.003.066-.006.1-.015.137-.028.275-.028.415v35.312h-118.117zm248 243.062-38.212-22.063 117.881-68.06 38.214 22.063zm-48.213-25.526c-.039.022-.068.053-.105.076-.072.045-.144.09-.213.139-.073.053-.142.109-.211.167-.072.059-.143.117-.209.181-.057.054-.112.109-.166.167-.058.062-.112.126-.166.192-.062.074-.123.146-.179.225-.051.072-.097.146-.144.223-.021.033-.048.061-.068.095s-.029.072-.048.107c-.042.078-.084.155-.122.237-.041.088-.073.179-.107.27-.028.077-.056.152-.079.229-.024.078-.045.155-.064.234-.022.093-.037.187-.053.282-.013.081-.027.162-.035.244-.009.088-.013.176-.016.265-.001.045-.013.086-.013.131v31.054l-22.97-13.262v-33.365l121.881-70.367 22.971 13.262zm88.912-87.095-117.883 68.06-40.7-23.498 117.884-68.059zm126.542-130.441v53.559l-22.371-13.13c-1.25-.732-2.799-.732-4.049 0l-22.371 13.13v-53.559z"/></g><g id="Gradient" display="none"><path d="m508 .319h-218.312c-2.209 0-4 1.791-4 4v118.847l-27.688-15.986c-1.237-.715-2.763-.715-4 0l-27.689 15.986v-118.847c0-2.209-1.791-4-4-4h-218.311c-2.209 0-4 1.791-4 4v218.313c0 2.209 1.791 4 4 4h122.117v58.734h-122.117c-2.209 0-4 1.791-4 4v218.313c0 2.209 1.791 4 4 4h218.311c2.209 0 4-1.791 4-4v-118.845l27.689 15.986c.121.07.247.127.372.184.031.014.06.031.091.044.211.089.429.151.649.202.059.014.118.023.178.035.235.042.472.071.71.071s.475-.029.71-.071c.06-.012.119-.021.178-.035.22-.051.438-.113.649-.202.031-.013.06-.03.091-.044.126-.057.251-.113.372-.184l27.688-15.986v118.847c0 2.209 1.791 4 4 4h218.312c2.209 0 4-1.791 4-4v-218.314c0-2.209-1.791-4-4-4h-122.117v-58.734h122.117c2.209 0 4-1.791 4-4v-218.314c0-2.209-1.791-4-4-4zm-4 218.314h-118.117v-35.312c0-.14-.013-.278-.028-.415-.003-.033-.002-.066-.006-.1-.029-.227-.083-.448-.15-.664-.018-.057-.038-.113-.058-.17-.162-.45-.402-.867-.712-1.232-.038-.045-.076-.09-.116-.133-.154-.166-.318-.324-.5-.463-.028-.021-.059-.038-.087-.059-.11-.08-.222-.159-.341-.229l-90.195-52.073v-119.464h72.762v60.544c0 1.435.768 2.759 2.012 3.472.616.353 1.302.528 1.988.528.7 0 1.4-.184 2.024-.55l26.371-15.478 26.371 15.478c1.236.725 2.767.734 4.012.021s2.012-2.037 2.012-3.472v-60.543h72.758zm0 285.048h-210.312v-119.465l72.762-42.009v11.705c0 1.435.768 2.759 2.012 3.472.616.353 1.302.528 1.988.528.7 0 1.4-.184 2.024-.55l26.371-15.478 26.371 15.478c1.236.726 2.767.734 4.012.021s2.012-2.037 2.012-3.472v-60.545h72.76zm-80.759-156.754-22.371-13.13c-1.25-.732-2.799-.732-4.049 0l-22.371 13.13v-9.338l9.433-5.446c1.238-.714 2-2.035 2-3.464v-35.312h37.357v53.56zm-45.358-20.558-117.883 68.059v-136.119l117.883-68.06zm-369.883 177.312v-210.314h72.761v60.545c0 1.435.768 2.759 2.012 3.472 1.246.713 2.776.704 4.012-.021l26.371-15.478 26.371 15.478c.625.366 1.324.55 2.024.55.686 0 1.372-.176 1.988-.528 1.245-.713 2.012-2.037 2.012-3.472v-11.703l72.759 42.007v119.465h-210.31zm120.117-171.538 9.435 5.447v9.337l-22.371-13.13c-1.25-.732-2.799-.732-4.049 0l-22.371 13.13v-53.56h37.355v35.312c.001 1.428.763 2.75 2.001 3.464zm6-5.774v-136.12l40.701 23.499v35.673c0 1.429.762 2.75 2 3.464l30.97 17.88c.619.357 1.31.536 2 .536s1.381-.179 2-.536c1.238-.714 2-2.035 2-3.464v-31.055l38.212 22.063v136.119zm3.435-318.05v53.559l-22.371-13.13c-1.25-.732-2.799-.732-4.049 0l-22.371 13.13v-53.559zm-129.552 0h72.761v60.544c0 1.435.768 2.759 2.012 3.472 1.246.713 2.776.704 4.012-.021l26.371-15.478 26.371 15.478c.625.366 1.324.55 2.024.55.686 0 1.372-.176 1.988-.528 1.245-.713 2.012-2.037 2.012-3.472v-60.545h72.759v119.465l-90.194 52.073c-.12.068-.23.148-.341.228-.029.021-.06.038-.088.06-.183.139-.347.297-.5.463-.04.043-.078.088-.116.133-.31.365-.55.782-.712 1.232-.021.057-.041.113-.058.17-.067.216-.121.438-.15.664-.004.033-.003.066-.006.1-.015.137-.028.275-.028.415v35.312h-118.117zm248 243.062-38.212-22.063 117.881-68.06 38.214 22.063zm-48.213-25.526c-.039.022-.068.053-.105.076-.072.045-.144.09-.213.139-.073.053-.142.109-.211.167-.072.059-.143.117-.209.181-.057.054-.112.109-.166.167-.058.062-.112.126-.166.192-.062.074-.123.146-.179.225-.051.072-.097.146-.144.223-.021.033-.048.061-.068.095s-.029.072-.048.107c-.042.078-.084.155-.122.237-.041.088-.073.179-.107.27-.028.077-.056.152-.079.229-.024.078-.045.155-.064.234-.022.093-.037.187-.053.282-.013.081-.027.162-.035.244-.009.088-.013.176-.016.265-.001.045-.013.086-.013.131v31.054l-22.97-13.262v-33.365l121.881-70.367 22.971 13.262zm88.912-87.095-117.883 68.06-40.7-23.498 117.884-68.059zm126.542-130.441v53.559l-22.371-13.13c-1.25-.732-2.799-.732-4.049 0l-22.371 13.13v-53.559z" display="inline" fill="url(#SVGID_1_)"/></g><g id="Outline_Blue" display="none"><path d="m508 .319h-218.312c-2.209 0-4 1.791-4 4v118.847l-27.688-15.986c-1.237-.715-2.763-.715-4 0l-27.689 15.986v-118.847c0-2.209-1.791-4-4-4h-218.311c-2.209 0-4 1.791-4 4v218.313c0 2.209 1.791 4 4 4h122.117v58.734h-122.117c-2.209 0-4 1.791-4 4v218.313c0 2.209 1.791 4 4 4h218.311c2.209 0 4-1.791 4-4v-118.845l27.689 15.986c.121.07.247.127.372.184.031.014.06.031.091.044.211.089.429.151.649.202.059.014.118.023.178.035.235.042.472.071.71.071s.475-.029.71-.071c.06-.012.119-.021.178-.035.22-.051.438-.113.649-.202.031-.013.06-.03.091-.044.126-.057.251-.113.372-.184l27.688-15.986v118.847c0 2.209 1.791 4 4 4h218.312c2.209 0 4-1.791 4-4v-218.314c0-2.209-1.791-4-4-4h-122.117v-58.734h122.117c2.209 0 4-1.791 4-4v-218.314c0-2.209-1.791-4-4-4zm-4 218.314h-118.117v-35.312c0-.14-.013-.278-.028-.415-.003-.033-.002-.066-.006-.1-.029-.227-.083-.448-.15-.664-.018-.057-.038-.113-.058-.17-.162-.45-.402-.867-.712-1.232-.038-.045-.076-.09-.116-.133-.154-.166-.318-.324-.5-.463-.028-.021-.059-.038-.087-.059-.11-.08-.222-.159-.341-.229l-90.195-52.073v-119.464h72.762v60.544c0 1.435.768 2.759 2.012 3.472.616.353 1.302.528 1.988.528.7 0 1.4-.184 2.024-.55l26.371-15.478 26.371 15.478c1.236.725 2.767.734 4.012.021s2.012-2.037 2.012-3.472v-60.543h72.758zm0 285.048h-210.312v-119.465l72.762-42.009v11.705c0 1.435.768 2.759 2.012 3.472.616.353 1.302.528 1.988.528.7 0 1.4-.184 2.024-.55l26.371-15.478 26.371 15.478c1.236.726 2.767.734 4.012.021s2.012-2.037 2.012-3.472v-60.545h72.76zm-80.759-156.754-22.371-13.13c-1.25-.732-2.799-.732-4.049 0l-22.371 13.13v-9.338l9.433-5.446c1.238-.714 2-2.035 2-3.464v-35.312h37.357v53.56zm-45.358-20.558-117.883 68.059v-136.119l117.883-68.06zm-369.883 177.312v-210.314h72.761v60.545c0 1.435.768 2.759 2.012 3.472 1.246.713 2.776.704 4.012-.021l26.371-15.478 26.371 15.478c.625.366 1.324.55 2.024.55.686 0 1.372-.176 1.988-.528 1.245-.713 2.012-2.037 2.012-3.472v-11.703l72.759 42.007v119.465h-210.31zm120.117-171.538 9.435 5.447v9.337l-22.371-13.13c-1.25-.732-2.799-.732-4.049 0l-22.371 13.13v-53.56h37.355v35.312c.001 1.428.763 2.75 2.001 3.464zm6-5.774v-136.12l40.701 23.499v35.673c0 1.429.762 2.75 2 3.464l30.97 17.88c.619.357 1.31.536 2 .536s1.381-.179 2-.536c1.238-.714 2-2.035 2-3.464v-31.055l38.212 22.063v136.119zm3.435-318.05v53.559l-22.371-13.13c-1.25-.732-2.799-.732-4.049 0l-22.371 13.13v-53.559zm-129.552 0h72.761v60.544c0 1.435.768 2.759 2.012 3.472 1.246.713 2.776.704 4.012-.021l26.371-15.478 26.371 15.478c.625.366 1.324.55 2.024.55.686 0 1.372-.176 1.988-.528 1.245-.713 2.012-2.037 2.012-3.472v-60.545h72.759v119.465l-90.194 52.073c-.12.068-.23.148-.341.228-.029.021-.06.038-.088.06-.183.139-.347.297-.5.463-.04.043-.078.088-.116.133-.31.365-.55.782-.712 1.232-.021.057-.041.113-.058.17-.067.216-.121.438-.15.664-.004.033-.003.066-.006.1-.015.137-.028.275-.028.415v35.312h-118.117zm248 243.062-38.212-22.063 117.881-68.06 38.214 22.063zm-48.213-25.526c-.039.022-.068.053-.105.076-.072.045-.144.09-.213.139-.073.053-.142.109-.211.167-.072.059-.143.117-.209.181-.057.054-.112.109-.166.167-.058.062-.112.126-.166.192-.062.074-.123.146-.179.225-.051.072-.097.146-.144.223-.021.033-.048.061-.068.095s-.029.072-.048.107c-.042.078-.084.155-.122.237-.041.088-.073.179-.107.27-.028.077-.056.152-.079.229-.024.078-.045.155-.064.234-.022.093-.037.187-.053.282-.013.081-.027.162-.035.244-.009.088-.013.176-.016.265-.001.045-.013.086-.013.131v31.054l-22.97-13.262v-33.365l121.881-70.367 22.971 13.262zm88.912-87.095-117.883 68.06-40.7-23.498 117.884-68.059zm126.542-130.441v53.559l-22.371-13.13c-1.25-.732-2.799-.732-4.049 0l-22.371 13.13v-53.559z" display="inline" fill="#57a4ff"/></g></svg>