<svg height="512" viewBox="0 0 64 64" width="512" xmlns="http://www.w3.org/2000/svg"><g id="Icons"><g><g><path d="m33 42h-2c0-1.654-1.346-3-3-3h-10c-2.757 0-5-2.243-5-5v-2h2v2c0 1.654 1.346 3 3 3h10c2.757 0 5 2.243 5 5z" fill="#0a5078"/></g><g><path d="m33 34h-2c0-2.757 2.243-5 5-5h10c1.654 0 3-1.346 3-3v-2h2v2c0 2.757-2.243 5-5 5h-10c-1.654 0-3 1.346-3 3z" fill="#00a0c8"/></g><path d="m35.707 7.293-3-3c-.391-.391-1.023-.391-1.414 0l-3 3c-.286.286-.372.716-.217 1.09s.52.617.924.617h2v51h2v-51h2c.404 0 .769-.243.924-.617s.069-.804-.217-1.09z" fill="#c80a50"/><g><path d="m32 46-1.414-1.414c-.375-.375-.884-.586-1.414-.586h-5.172c-1.105 0-2 .895-2 2v12c0 1.105.895 2 2 2h16c1.105 0 2-.895 2-2v-10c0-1.105-.895-2-2-2z" fill="#fab400"/></g><g><g><path d="m30 57c-.431 0-.813-.275-.949-.684l-2-6c-.175-.524.108-1.091.632-1.265.526-.177 1.091.108 1.265.632l1.052 3.155 1.051-3.154c.174-.523.739-.809 1.265-.632.524.174.807.74.632 1.265l-2 6c-.136.408-.517.683-.948.683z" fill="#be7800"/></g><g><path d="m36 57c-.552 0-1-.447-1-1v-4c-.256 0-.512-.098-.707-.293-.391-.391-.391-1.023 0-1.414l1-1c.286-.286.715-.373 1.09-.217.373.154.617.52.617.924v6c0 .553-.448 1-1 1z" fill="#be7800"/></g></g><g><g><path d="m14 18-1.414-1.414c-.375-.375-.884-.586-1.414-.586h-5.172c-1.105 0-2 .895-2 2v12c0 1.105.895 2 2 2h16c1.105 0 2-.895 2-2v-10c0-1.105-.895-2-2-2z" fill="#fab400"/></g><g><path d="m10.5 29c-.431 0-.813-.275-.949-.684l-2-6c-.175-.524.108-1.091.632-1.265.527-.175 1.09.108 1.265.632l1.051 3.154 1.051-3.154c.174-.523.74-.807 1.265-.632.524.174.807.74.632 1.265l-2 6c-.134.409-.516.684-.947.684z" fill="#be7800"/></g><g><path d="m19.5 29h-4c-.552 0-1-.447-1-1v-.5c0-1.93 1.57-3.5 3.5-3.5.276 0 .5-.225.5-.5s-.224-.5-.5-.5h-2.5c-.552 0-1-.447-1-1s.448-1 1-1h2.5c1.378 0 2.5 1.121 2.5 2.5s-1.122 2.5-2.5 2.5c-.652 0-1.208.418-1.415 1h2.915c.552 0 1 .447 1 1s-.448 1-1 1z" fill="#be7800"/></g></g><g><path d="m50 10-1.414-1.414c-.375-.375-.884-.586-1.414-.586h-5.172c-1.105 0-2 .895-2 2v12c0 1.105.895 2 2 2h16c1.105 0 2-.895 2-2v-10c0-1.105-.895-2-2-2z" fill="#fab400"/></g><g fill="#be7800"><path d="m48.816 13.052c-.525-.176-1.091.108-1.265.632l-1.051 3.154-1.051-3.154c-.174-.523-.738-.808-1.265-.632-.524.174-.807.74-.632 1.265l2 6c.135.408.517.683.948.683s.812-.275.949-.684l2-6c.175-.524-.109-1.09-.633-1.264z"/><path d="m56.5 15.5c0-1.379-1.122-2.5-2.5-2.5h-2.5c-.552 0-1 .447-1 1s.448 1 1 1h2.5c.276 0 .5.225.5.5s-.224.5-.5.5h-.5c-.552 0-1 .447-1 1s.448 1 1 1h.5c.276 0 .5.225.5.5s-.224.5-.5.5h-2.5c-.552 0-1 .447-1 1s.448 1 1 1h2.5c1.378 0 2.5-1.121 2.5-2.5 0-.563-.187-1.082-.501-1.5.314-.418.501-.937.501-1.5z"/></g><g><path d="m13 32h2v1h-2z" fill="#00325a"/></g><g><path d="m49 24h2v1h-2z" fill="#0082aa"/></g></g></g></svg>