<svg id="Layer_1" enable-background="new 0 0 66 66" viewBox="0 0 66 66" xmlns="http://www.w3.org/2000/svg"><g id="Attendance"><g><g><path d="m59.9399147 28.4452858-5.1122246-7.6683407c-.8699493-1.3049202-2.3344269-2.0886936-3.9029274-2.0886936h-35.8499059c-1.5683098 0-3.0327902.7837734-3.9027376 2.0886936l-5.1124167 7.6683407c-.4076805.6116161-.7180214 1.276577-.9382753 1.9694996h55.7571487c-.2204491-.6929226-.5309807-1.3578835-.9386612-1.9694996z" fill="#62d333"/></g><g><path d="m30.8393459 18.6903324c-.4001465 4.2399902-1.7000732 8.210022-3.7301025 11.7199707h-21.9899912c.2200928-.6900024.5300293-1.3499756.9400635-1.9699707l5.1099854-7.6599731c.8699951-1.3100586 2.3399658-2.0900269 3.9100342-2.0900269z" fill="#77e244"/></g><g><path d="m5.1214271 30.4147854c-.2423944.7621098-.3744707 1.5585747-.3744707 2.3669682v26.7773018c0 2.5905647 2.0998588 4.6906166 4.6906133 4.6906166h47.1248627c2.5903702 0 4.6906128-2.1000519 4.6906128-4.6906166v-26.7773019c0-.8083935-.1320763-1.6048584-.3744698-2.3669682h-55.7571483z" fill="#57c624"/></g><g><path d="m27.1092434 30.4103031c-4.5599365 7.9500103-12.7799082 13.5300274-22.3599854 14.4700298v-12.0999755c0-.8100567.1300049-1.6000347.3699951-2.3700542h21.9899903z" fill="#62d333"/></g><g><path d="m60.879261 30.4103031h-10.3499756c-.1700439-4.1999512-1.2399902-8.1699829-3.0100098-11.7199707h3.4099121c1.5600586 0 3.0300293.7799683 3.9001465 2.0900269l5.1098633 7.6599731c.4101563.6199951.7200928 1.2799683.9400635 1.9699707z" fill="#57c624"/></g><g><path d="m61.2492561 32.7803574v26.7799683c0 2.5900269-2.0999756 4.6900024-4.6899414 4.6900024h-47.1201162c-2.5898438 0-4.6899414-2.0999756-4.6899414-4.6900024v-4.1400147c4.7299805 3.3400269 10.5 5.2999878 16.7299805 5.2999878 16.0700645 0 29.0800743-13.0199585 29.0800743-29.0799541 0-.4100342-.0100098-.8200073-.0300293-1.2300415h10.3499784c.2399903.7700194.3699951 1.5599975.3699951 2.3700542z" fill="#5dbc26"/></g><g><path d="m46.1771278 47.3321457c0 7.2803459-5.9103928 13.163681-13.1909027 13.163681-7.2532883 0-13.163353-5.8833351-13.163353-13.163681 0-7.2801819 5.9100647-13.163517 13.163353-13.163517 7.28051 0 13.1909027 5.8833351 13.1909027 13.163517z" fill="#d6dbf2"/></g><g><path d="m38.0793343 35.1903305c-1.0700684 8.210022-8.090086 14.5499878-16.590086 14.5499878-.4899902 0-.9799805-.0200195-1.4599609-.0700073-.1400146-.7600098-.2099609-1.539978-.2099609-2.3399658 0-7.2800293 5.9099121-13.1600342 13.16992-13.1600342 1.8000487 0 3.5300292.3600464 5.0900878 1.0200195z" fill="#e5e8f9"/></g><g><path d="m46.1791878 47.3303452c0 7.2799683-5.9099121 13.1699829-13.1899414 13.1699829-4.5899639 0-8.6398907-2.3499756-10.9999981-5.9299927 1.8800049.75 3.9399414 1.1499634 6.0800781 1.1499634 8.4899883 0 15.5100079-6.3299561 16.5899639-14.5299683.9699707 1.8300171 1.5198975 3.9199829 1.5198975 6.1400147z" fill="#c5ceea"/></g><g><path d="m28.9312229 52.1505661c-.1918945 0-.3837891-.0732422-.5302734-.2197266-.2929688-.2929688-.2929688-.7675781 0-1.0605469l4.0688496-4.0683594c.2929688-.2929688.7675781-.2929688 1.0605469 0s.2929688.7675781 0 1.0605469l-4.0688496 4.0683594c-.1464844.1464844-.338379.2197266-.5302735.2197266z" fill="#ff4848"/></g><g><path d="m37.9038811 52.9865036c-.1918945 0-.3837891-.0732422-.5302734-.2197266l-4.9038086-4.9042969c-.2929688-.2929688-.2929688-.7675781 0-1.0605469s.7675781-.2929688 1.0605469 0l4.9038086 4.9042969c.2929688.2929688.2929688.7675781 0 1.0605469-.1464845.1464844-.338379.2197266-.5302735.2197266z" fill="#ff4848"/></g><g><path d="m35.3122292 47.3322144c0 1.277504-1.0371132 2.3098679-2.3146477 2.3098679-1.2727547 0-2.3098106-1.0323639-2.3098106-2.3098679 0-1.2774773 1.037056-2.3098412 2.3098106-2.3098412 1.2775345 0 2.3146477 1.0323639 2.3146477 2.3098412z" fill="#595857"/></g><g><g><g><path d="m33.0000725 38.5919724c-.4140625 0-.75-.3359375-.75-.75v-.6674805c0-.4140625.3359375-.75.75-.75s.75.3359375.75.75v.6674805c0 .4140625-.3359375.75-.75.75z" fill="#666"/></g><g><path d="m33.0000725 58.2399216c-.4140625 0-.75-.3359375-.75-.75v-.6674805c0-.4140625.3359375-.75.75-.75s.75.3359375.75.75v.6674805c0 .4140625-.3359375.75-.75.75z" fill="#666"/></g></g><g><g><path d="m43.1577873 48.0822067h-.6674805c-.4140625 0-.75-.3359375-.75-.75s.3359375-.75.75-.75h.6674805c.4140625 0 .75.3359375.75.75s-.3359375.75-.75.75z" fill="#666"/></g><g><path d="m23.5098362 48.0822067h-.6679688c-.4140625 0-.75-.3359375-.75-.75s.3359375-.75.75-.75h.6679688c.4140625 0 .75.3359375.75.75s-.3359375.75-.75.75z" fill="#666"/></g></g></g><g><path d="m20.3167801 24.551384.000103-15.0075483 7.7940712-7.7941657 14.9961281.0000929c1.4250603.0000057 2.5751648 1.1588162 2.5751572 2.575181l-.0001221 20.2265759z" fill="#d6dbf2"/></g><g><path d="m35.6992073 1.7503297c-1.4799805 7.1400146-7.7999249 12.5100098-15.3798809 12.5100098v-4.7200315l7.789917-7.789978s7.5899639 0 7.5899639-.0000003z" fill="#e5e8f9"/></g><g><path d="m45.6791878 4.3203373v20.2299805h-25.3598614v-3.1400146c1.8598633.7800293 3.9099121 1.210022 6.0499268 1.210022 8.670042 0 15.7000713-7.0299683 15.7000713-15.7000122 0-1.8099976-.3100586-3.549988-.8701172-5.1699829h1.9100342c1.4200439-.0000004 2.5699463 1.1599728 2.5699463 2.5700072z" fill="#c5ceea"/></g><g><path d="m20.3168831 9.5438356 7.7940712-7.7941656-.000021 5.2190266c-.0000057 1.4163132-1.1587105 2.5751667-2.5751801 2.575161z" fill="#666"/></g><g><path d="m28.1092434 1.7503297v5.2199707c0 1.4100342-1.1600342 2.5700073-2.5699463 2.5700073h-5.2199707l.2700195-.2699585c.1699219.0100098.3498535.0199585.5198975.0199585 3.5300293 0 6.4000244-2.8699951 6.4000244-6.4099731 0-.1699829-.0100098-.3400269-.0200195-.5100098z" fill="#595857"/></g><g><g><g><path d="m30.9717503 13.9005642h-6.5556641c-.4140625 0-.75-.3359375-.75-.75s.3359375-.75.75-.75h6.5556641c.4140625 0 .75.3359375.75.75s-.3359375.75-.75.75z" fill="#69f"/></g><g><path d="m41.582592 13.9005642h-6.5551758c-.4140625 0-.75-.3359375-.75-.75s.3359375-.75.75-.75h6.5551758c.4140625 0 .75.3359375.75.75s-.3359375.75-.75.75z" fill="#69f"/></g></g><g><g><path d="m30.9717503 17.6705837h-6.5556641c-.4140625 0-.75-.3359375-.75-.75s.3359375-.75.75-.75h6.5556641c.4140625 0 .75.3359375.75.75s-.3359375.75-.75.75z" fill="#69f"/></g><g><path d="m41.582592 17.6705837h-6.5551758c-.4140625 0-.75-.3359375-.75-.75s.3359375-.75.75-.75h6.5551758c.4140625 0 .75.3359375.75.75s-.3359375.75-.75.75z" fill="#69f"/></g></g><g><g><path d="m30.9717503 21.4406033h-6.5556641c-.4140625 0-.75-.3359375-.75-.75s.3359375-.75.75-.75h6.5556641c.4140625 0 .75.3359375.75.75s-.3359375.75-.75.75z" fill="#69f"/></g><g><path d="m41.582592 21.4406033h-6.5551758c-.4140625 0-.75-.3359375-.75-.75s.3359375-.75.75-.75h6.5551758c.4140625 0 .75.3359375.75.75s-.3359375.75-.75.75z" fill="#69f"/></g></g></g><g><path d="m48.0161858 25.3014431h-30.0327168c-.4140625 0-.75-.3359375-.75-.75s.3359375-.75.75-.75h30.0327168c.4140625 0 .75.3359375.75.75s-.3359375.75-.75.75z" fill="#666"/></g></g></g></svg>