<svg version="1.1" id="Layer_1" xmlns="http://www.w3.org/2000/svg" xmlns:xlink="http://www.w3.org/1999/xlink" x="0px" y="0px"
	 viewBox="0 0 24 24" style="enable-background:new 0 0 24 24;" xml:space="preserve">
<path d="M12,13c2.8,0,5-3.1,5-5.9c0-1.3-0.5-2.5-1.3-3.4L15,4l0.6-0.5C14.7,2.6,13.4,2,12,2C9.2,2,7,4.3,7,7.1S9.2,13,12,13z M12,3
	c0.7,0,1.4,0.2,2,0.5L9.8,7l5.5-2.1l0,0C15.8,5.6,16,6.3,16,7.1c0,2.2-1.8,4.9-4,4.9S8,9.3,8,7.1C8,4.8,9.8,3,12,3z M20.2,18.4
	c-0.8-1.5-2.1-2.7-3.7-3.4L14,14v3l-4-3l-2.7,0.9c-2.1,0.7-3.7,2.3-4.4,4.4L2,22h20L20.2,18.4z M3.8,19.6c0.6-1.8,2-3.2,3.8-3.8
	l2.2-0.7l3.6,2.7L15,19v-2v-1.5l1.2,0.5c1.4,0.5,2.5,1.6,3.1,2.9l1.1,2.2h-17L3.8,19.6z"/>
</svg>
